<svg xmlns="http://www.w3.org/2000/svg" xmlns:xlink="http://www.w3.org/1999/xlink" width="80" height="80" viewBox="0 0 80 80">
    <defs>
        <linearGradient id="c" x1=".063%" x2="108.148%" y1="99.942%" y2="0%">
            <stop offset=".058%" stop-color="#EB304B"/>
            <stop offset="33.784%" stop-color="#CB0689"/>
            <stop offset="100%" stop-color="#5109C1"/>
        </linearGradient>
        <rect id="b" width="60" height="60" rx="30"/>
        <filter id="a" width="153.3%" height="153.3%" x="-26.7%" y="-23.3%" filterUnits="objectBoundingBox">
            <feOffset dy="2" in="SourceAlpha" result="shadowOffsetOuter1"/>
            <feGaussianBlur in="shadowOffsetOuter1" result="shadowBlurOuter1" stdDeviation="5"/>
            <feColorMatrix in="shadowBlurOuter1" values="0 0 0 0 0 0 0 0 0 0 0 0 0 0 0 0 0 0 0.1 0"/>
        </filter>
        <path id="d" d="M0 .01h29.99v30.104H0z"/>
    </defs>
    <g fill="none" fill-rule="evenodd">
        <g transform="translate(10 8)">
            <use fill="#000" filter="url(#a)" xlink:href="#b"/>
            <use fill="url(#c)" xlink:href="#b"/>
        </g>
        <g transform="translate(25 23.05)">
            <mask id="e" fill="#fff">
                <use xlink:href="#d"/>
            </mask>
            <path fill="#FFF" d="M14.995.01c-4.072 0-4.583.017-6.182.09-1.596.073-2.686.328-3.64.7-.986.384-1.823.9-2.656 1.736a7.381 7.381 0 0 0-1.73 2.666C.417 6.159.163 7.254.09 8.856.017 10.46 0 10.974 0 15.062c0 4.088.017 4.6.09 6.206.073 1.602.327 2.696.697 3.654.383.99.896 1.83 1.73 2.666a7.348 7.348 0 0 0 2.656 1.736c.954.372 2.044.627 3.64.7 1.6.073 2.11.09 6.182.09 4.073 0 4.583-.017 6.183-.09 1.596-.073 2.686-.328 3.64-.7a7.348 7.348 0 0 0 2.656-1.736 7.38 7.38 0 0 0 1.73-2.666c.37-.958.624-2.052.696-3.654.073-1.605.09-2.118.09-6.206 0-4.088-.017-4.6-.09-6.206-.072-1.602-.326-2.697-.697-3.654a7.381 7.381 0 0 0-1.73-2.666A7.347 7.347 0 0 0 24.819.8c-.954-.372-2.044-.627-3.64-.7-1.6-.073-2.11-.09-6.183-.09m0 2.712c4.004 0 4.478.015 6.06.087 1.462.067 2.256.313 2.784.519.7.273 1.2.599 1.724 1.126.525.526.85 1.028 1.122 1.73.205.53.45 1.328.516 2.795.072 1.588.088 2.064.088 6.083 0 4.02-.016 4.495-.088 6.082-.066 1.468-.31 2.265-.516 2.795a4.667 4.667 0 0 1-1.122 1.731 4.644 4.644 0 0 1-1.724 1.126c-.528.206-1.322.452-2.784.518-1.581.073-2.056.088-6.06.088s-4.478-.015-6.06-.088c-1.461-.066-2.255-.312-2.784-.518-.7-.273-1.199-.599-1.724-1.126a4.666 4.666 0 0 1-1.121-1.73c-.206-.53-.45-1.328-.517-2.796-.072-1.587-.087-2.063-.087-6.082 0-4.02.015-4.495.087-6.083.067-1.467.311-2.264.517-2.795a4.666 4.666 0 0 1 1.121-1.73 4.644 4.644 0 0 1 1.724-1.126c.529-.206 1.323-.452 2.785-.519 1.581-.072 2.055-.087 6.06-.087" mask="url(#e)"/>
        </g>
        <path fill="#FFF" d="M39.995 43.13c-2.76 0-4.998-2.247-4.998-5.018 0-2.77 2.238-5.017 4.998-5.017 2.76 0 4.999 2.246 4.999 5.017 0 2.771-2.238 5.018-4.999 5.018m0-12.747c-4.252 0-7.7 3.46-7.7 7.73 0 4.268 3.448 7.729 7.7 7.729 4.253 0 7.7-3.46 7.7-7.73 0-4.269-3.447-7.73-7.7-7.73M49.8 30.077c0 .998-.806 1.806-1.8 1.806s-1.8-.808-1.8-1.806c0-.997.806-1.806 1.8-1.806s1.8.809 1.8 1.806"/>
    </g>
</svg>
