<?xml version="1.0" encoding="UTF-8"?>
<svg width="80px" height="80px" viewBox="0 0 80 80" version="1.1" xmlns="http://www.w3.org/2000/svg" xmlns:xlink="http://www.w3.org/1999/xlink">
    <!-- Generator: Sketch 57.1 (83088) - https://sketch.com -->
    <title>btn_twitter@1x</title>
    <desc>Created with Sketch.</desc>
    <defs>
        <rect id="path-1" x="0" y="0" width="60" height="60" rx="30"></rect>
        <filter x="-26.7%" y="-23.3%" width="153.3%" height="153.3%" filterUnits="objectBoundingBox" id="filter-2">
            <feOffset dx="0" dy="2" in="SourceAlpha" result="shadowOffsetOuter1"></feOffset>
            <feGaussianBlur stdDeviation="5" in="shadowOffsetOuter1" result="shadowBlurOuter1"></feGaussianBlur>
            <feColorMatrix values="0 0 0 0 0   0 0 0 0 0   0 0 0 0 0  0 0 0 0.1 0" type="matrix" in="shadowBlurOuter1"></feColorMatrix>
        </filter>
    </defs>
    <g id="Mobile" stroke="none" stroke-width="1" fill="none" fill-rule="evenodd">
        <g id="M-Done" transform="translate(-167.000000, -547.000000)">
            <g id="btn_twitter" transform="translate(177.000000, 555.000000)">
                <g id="Rectangle">
                    <use fill="black" fill-opacity="1" filter="url(#filter-2)" xlink:href="#path-1"></use>
                    <use fill="#61AAFF" fill-rule="evenodd" xlink:href="#path-1"></use>
                </g>
                <g id="Group-4" transform="translate(16.000000, 19.000000)" fill="#FFFFFF">
                    <g id="Group-3">
                        <path d="M24.8128851,3.98073974 L26.5104596,1.85766282 C27.0168426,1.29740641 27.1657787,0.884585897 27.2256511,0.619201282 C25.9147149,1.44484231 24.6639489,1.68073974 23.7703319,1.71022692 L23.4128851,1.71022692 L23.2043745,1.47432949 C22.132034,0.530739744 20.7916085,-2.94871795e-05 19.332034,-2.94871795e-05 C16.2043745,-2.94871795e-05 13.6724596,2.53586795 13.6724596,5.60253462 C13.6724596,5.83843205 13.6724596,6.04484231 13.7022468,6.25125256 L13.851183,7.16535513 L12.8979915,7.13586795 C7.08948085,6.98843205 2.41288511,2.12304744 1.60862979,1.23843205 C0.357268085,3.53843205 1.04267234,5.63202179 1.84662979,6.95894487 L3.3660766,9.46535513 L0.953012766,8.16791923 C0.983097872,10.0256115 1.72777872,11.4999705 3.09799149,12.561509 L4.25969362,13.4461244 L3.03811915,13.9474064 C3.81288511,16.2474064 5.48097021,17.161509 6.79160851,17.5153551 L8.42990638,17.9576628 L7.00011915,18.9307397 C4.49799149,20.6704833 1.31075745,20.5525346 0.000119148936,20.4345859 C2.85969362,22.3807397 6.19586383,22.7935603 8.57884255,22.7935603 C10.3359915,22.7935603 11.6171404,22.5576628 11.9448,22.4986885 C24.5742894,19.5499705 25.1405447,8.40381667 25.1107574,6.16279103 L25.1107574,5.80894487 L25.3785447,5.57304744 C26.8979915,4.15766282 27.5530128,3.36150897 27.9104596,2.94868846 C27.7615234,3.03715 27.6125872,3.06663718 27.4040766,3.12561154 L24.8128851,3.98073974 Z" id="Fill-1"></path>
                    </g>
                </g>
            </g>
        </g>
    </g>
</svg>