<svg xmlns="http://www.w3.org/2000/svg" width="75" height="74" viewBox="0 0 75 74">
    <g fill="none" fill-rule="evenodd">
        <path stroke="#C2FAF6" stroke-width="4" d="M65.5 17.69C48.76 8.023 27.354 13.76 17.69 30.5 8.023 47.24 13.76 68.646 30.5 78.31c16.74 9.666 38.146 3.93 47.81-12.81 4.69-8.123 5.754-17.343 3.694-25.789" transform="translate(-10.5 -11)"/>
        <g fill="#20746E">
            <path d="M3.315 20.416c1.747-1.735 4.566-1.735 6.312 0L28.563 39.22c1.73 1.719 1.74 4.515.022 6.246l-.022.022c-1.747 1.734-4.565 1.734-6.312 0L3.315 26.684c-1.73-1.719-1.74-4.516-.021-6.247l.021-.021z" transform="translate(-10.5 -11) translate(24.116 18.136)"/>
            <path d="M56.384 3.074c1.932 1.5 2.282 4.283.782 6.215l-.017.02-27.422 34.882c-1.523 1.938-4.325 2.282-6.272.77-1.932-1.5-2.282-4.282-.782-6.214l.016-.02L50.111 3.844c1.523-1.938 4.326-2.282 6.273-.77z" transform="translate(-10.5 -11) translate(24.116 18.136)"/>
        </g>
    </g>
</svg>
