<svg xmlns="http://www.w3.org/2000/svg" xmlns:xlink="http://www.w3.org/1999/xlink" width="85" height="85" viewBox="0 0 85 85">
    <defs>
        <linearGradient id="prefix__c" x1="12.556%" x2="100%" y1="99.744%" y2="9.06%">
            <stop offset="0%" stop-color="#FF8E0E"/>
            <stop offset="100%" stop-color="#B600EE"/>
        </linearGradient>
        <linearGradient id="prefix__d" x1="12.556%" x2="100%" y1="100%" y2="8.849%">
            <stop offset="0%" stop-color="#FF8E0E"/>
            <stop offset="100%" stop-color="#B600EE"/>
        </linearGradient>
        <filter id="prefix__a" width="155.6%" height="155.6%" x="-27.8%" y="-24.6%" filterUnits="objectBoundingBox">
            <feOffset dy="2" in="SourceAlpha" result="shadowOffsetOuter1"/>
            <feGaussianBlur in="shadowOffsetOuter1" result="shadowBlurOuter1" stdDeviation="5.5"/>
            <feColorMatrix in="shadowBlurOuter1" values="0 0 0 0 0 0 0 0 0 0 0 0 0 0 0 0 0 0 0.1 0"/>
        </filter>
        <circle id="prefix__b" cx="31.5" cy="31.5" r="31.5"/>
    </defs>
    <g fill="none" fill-rule="evenodd" transform="translate(11 9)">
        <use fill="#000" filter="url(#prefix__a)" xlink:href="#prefix__b"/>
        <use fill="#FFF" xlink:href="#prefix__b"/>
        <g>
            <path fill="url(#prefix__c)" d="M16.995.01c-4.616 0-5.195.02-7.007.103C8.178.195 6.944.482 5.862.9c-1.117.433-2.065 1.012-3.01 1.955-.944.942-1.525 1.888-1.96 3.002-.42 1.078-.707 2.31-.79 4.115C.02 11.78 0 12.358 0 16.962s.02 5.18.102 6.989c.083 1.804.37 3.036.79 4.115.435 1.114 1.016 2.06 1.96 3.002.945.942 1.893 1.522 3.01 1.955 1.082.42 2.317.706 4.126.788 1.812.082 2.391.102 7.007.102 4.615 0 5.194-.02 7.006-.102 1.81-.082 3.045-.369 4.126-.788 1.117-.433 2.065-1.013 3.01-1.955.945-.942 1.526-1.888 1.96-3.002.42-1.079.708-2.31.79-4.115.083-1.808.102-2.385.102-6.99 0-4.603-.02-5.18-.102-6.988-.082-1.804-.37-3.037-.79-4.115-.434-1.114-1.015-2.06-1.96-3.002-.945-.943-1.893-1.522-3.01-1.955C27.046.48 25.81.195 24 .113 22.19.03 21.611.01 16.995.01m0 3.054c4.537 0 5.075.017 6.867.099 1.657.075 2.557.351 3.156.583.793.308 1.359.675 1.954 1.268.594.594.963 1.158 1.271 1.95.233.597.51 1.494.585 3.147.082 1.788.1 2.324.1 6.85s-.018 5.062-.1 6.85c-.076 1.652-.352 2.55-.585 3.147-.308.791-.677 1.356-1.271 1.95-.595.592-1.161.96-1.954 1.267-.6.232-1.5.509-3.156.584-1.792.081-2.33.099-6.867.099-4.538 0-5.076-.018-6.868-.1-1.657-.074-2.557-.35-3.155-.583-.794-.307-1.36-.675-1.954-1.268-.595-.593-.963-1.158-1.272-1.949-.232-.597-.51-1.495-.585-3.147-.082-1.788-.099-2.324-.099-6.85s.017-5.062.1-6.85c.075-1.653.352-2.55.584-3.147.309-.792.677-1.356 1.272-1.95.594-.593 1.16-.96 1.954-1.268.598-.232 1.498-.508 3.155-.583 1.792-.082 2.33-.099 6.868-.099" transform="translate(14 14) translate(.5 .5)"/>
            <path fill="url(#prefix__d)" d="M17.5 23.342c-3.226 0-5.842-2.616-5.842-5.842 0-3.227 2.616-5.842 5.842-5.842 3.227 0 5.842 2.615 5.842 5.842 0 3.226-2.615 5.842-5.842 5.842m0-14.842c-4.97 0-9 4.03-9 9s4.03 9 9 9 9-4.03 9-9-4.03-9-9-9M28.5 9.5c0 1.105-.895 2-2 2s-2-.895-2-2 .895-2 2-2 2 .895 2 2" transform="translate(14 14)"/>
        </g>
    </g>
</svg>
