<svg xmlns="http://www.w3.org/2000/svg" width="241" height="241" viewBox="0 0 241 241">
    <g fill="none" fill-rule="evenodd">
        <path fill="#E9E9E9" d="M5.541 102.746c15.332 19.899 229.273 16.89 234.36-3.643 5.086-20.533-7.5-61.642-30.5-69.427-15.741-5.328-29.34-2.383-41.262 16.152C165.472 49.974 156.943 0 108.229 0 63.639 0 54.15 42.371 50.307 57.066c-2.005 7.664-1.44-7.441-11.753-7.441-30.087 0-48.345 33.223-33.013 53.121z" opacity=".8"/>
        <path fill="#FFF" d="M69.5 241c17.397 0 31.5-14.147 31.5-31.597C101 191.953 72.85 166 69.5 166c-3.35 0-31.5 25.952-31.5 43.403C38 226.853 52.103 241 69.5 241z" opacity=".3"/>
        <path fill="#FFF" d="M190.5 180c10.77 0 19.5-8.677 19.5-19.38S192.574 134 190.5 134c-2.074 0-19.5 15.917-19.5 26.62 0 10.703 8.73 19.38 19.5 19.38zM41 132.003l2-3h2l1 2-2 3 3.933.05 1.067 1.95-1.023 2H44l2 3-1 2h-2l-2-3-2.115 3H37l-1-2 1.984-3h-3.648l-1.336-2 1.376-2H38l-2-3L37 129l2 .003z" opacity=".6"/>
        <path fill="#FFF" d="M167 209.075l2.75-4.07h2.75l1.375 2.713-2.75 4.07 5.408.067 1.467 2.647-1.406 2.714h-5.469l2.75 4.07L172.5 224h-2.75l-2.75-4.07-2.907 4.07H161.5l-1.375-2.714 2.728-4.07h-5.016L156 214.502l1.891-2.714h4.984l-2.75-4.07L161.5 205l2.75.004z" opacity=".3"/>
        <path fill="#FFF" d="M111.576 148l-5.57-3.75v-3.75l3.713-1.875 5.57 3.75.092-7.374 3.622-2.001 3.713 1.918v7.457l5.57-3.75L132 140.5v3.75l-5.57 3.75 5.57 3.965v3.535l-3.713 1.875-5.57-3.72v6.84L119.002 163l-3.713-2.58v-6.795l-5.57 3.75L106 155.5l.006-3.75z" opacity=".4"/>
    </g>
</svg>
