<svg xmlns="http://www.w3.org/2000/svg" width="28" height="24" viewBox="0 0 28 24">
    <path fill="#20746E" d="M0 21.74C2.824 23.582 6.09 24 8.403 24c2.042 0 3.437-.313 3.47-.313C24.837 20.591 25.38 8.8 25.347 6.47v-.418l.306-.278C26.912 4.59 27.626 3.79 28 3.304c-.068 0-.102 0-.17.035L25.925 4c-.307.104-.579-.278-.375-.557l1.26-1.6c.34-.417.51-.765.612-1.043-1.293.8-2.518 1.009-3.369 1.043h-.374l-.306-.278C22.318.557 20.923 0 19.495 0c-3.165 0-5.716 2.609-5.716 5.843 0 .244 0 .453.034.696l.068.696c.034.208-.136.382-.34.382l-.68-.034C7.076 7.478 2.347 2.609 1.258 1.426.068 3.791.749 5.878 1.565 7.27l1.123 1.913c.17.313-.136.66-.443.487L.68 8.8c.068 1.878.783 3.34 2.144 4.383l.816.66c.204.174.17.487-.068.592l-.748.313c.782 2.33 2.483 3.27 3.776 3.617l1.225.348c.272.07.34.452.102.626l-1.02.73C4.524 21.775 1.53 21.844 0 21.74z"/>
</svg>
