<?xml version="1.0" encoding="UTF-8"?>
<svg width="76px" height="242px" viewBox="0 0 76 242" version="1.1" xmlns="http://www.w3.org/2000/svg" xmlns:xlink="http://www.w3.org/1999/xlink">
    <!-- Generator: Sketch 57.1 (83088) - https://sketch.com -->
    <title>ic_cloud@1x</title>
    <desc>Created with Sketch.</desc>
    <g id="Mobile" stroke="none" stroke-width="1" fill="none" fill-rule="evenodd">
        <g id="M-Start-QR" transform="translate(-338.000000, -210.000000)">
            <g id="ic_cloud" transform="translate(338.000000, 200.000000)">
                <path d="M5.54128164,102.746094 C20.8733129,122.644531 234.813619,119.636219 239.900107,99.1032656 C244.986594,78.5703125 232.400657,37.4609375 209.400657,29.6757813 C193.659535,24.3476467 180.060813,27.2929688 168.138938,45.828125 C165.472115,49.9742833 156.942972,4.97379915e-14 108.228782,4.97379915e-14 C63.6385555,4.97379915e-14 54.150402,42.3714985 50.3069066,57.0664063 C48.3024849,64.7299492 48.8664676,49.624788 38.5538348,49.624788 C8.46664205,49.624788 -9.79074961,82.8476563 5.54128164,102.746094 Z" id="Path-2" fill-opacity="0.8" fill="#E9E9E9"></path>
                <path d="M72,252 C90.7776815,252 106,236.721717 106,217.875 C106,199.028283 75.6165865,171 72,171 C68.3834135,171 38,199.028283 38,217.875 C38,236.721717 53.2223185,252 72,252 Z" id="Oval" fill-opacity="0.3" fill="#FFFFFF"></path>
                <polygon id="Star-Copy" fill-opacity="0.6" fill="#FFFFFF" transform="translate(31.000000, 136.001587) rotate(-180.000000) translate(-31.000000, -136.001587) " points="31 140 29 143 27 143 26 141 28 138 24.0672607 137.950684 23 136 24.0227064 134 28 134 26 131 27 129 29 129 31 132 33.114502 129 35 129 36 131 34.0158626 134 37.664342 134 39 136 37.6244797 138 34 138 36 141 35 143.003174 33 143"></polygon>
            </g>
        </g>
    </g>
</svg>