<?xml version="1.0" encoding="UTF-8"?>
<svg width="175px" height="176px" viewBox="0 0 175 176" version="1.1" xmlns="http://www.w3.org/2000/svg" xmlns:xlink="http://www.w3.org/1999/xlink">
    <!-- Generator: Sketch 57.1 (83088) - https://sketch.com -->
    <title>ic_earthcheck@2x</title>
    <desc>Created with Sketch.</desc>
    <defs>
        <polygon id="path-1" points="0 0.000603877166 175 0.000603877166 175 175.124378 0 175.124378"></polygon>
        <polygon id="path-3" points="-0.000302702703 0.114889206 111.639481 0.114889206 111.639481 69.1741294 -0.000302702703 69.1741294"></polygon>
        <polygon id="path-5" points="0 0.185817267 95.6514453 0.185817267 95.6514453 50.7860697 0 50.7860697"></polygon>
    </defs>
    <g id="Mobile" stroke="none" stroke-width="1" fill="none" fill-rule="evenodd">
        <g id="M-Done---Student" transform="translate(-120.000000, -80.000000)">
            <g id="ic_earthcheck" transform="translate(117.000000, 75.000000)">
                <g id="Group-20" transform="translate(3.000000, 5.000000)">
                    <g id="Group-3">
                        <mask id="mask-2" fill="white">
                            <use xlink:href="#path-1"></use>
                        </mask>
                        <g id="Clip-2"></g>
                        <path d="M87.5,0.000603877166 C135.827155,0.000603877166 175,39.2012901 175,87.5627929 C175,135.921276 135.827155,175.124982 87.5,175.124982 C39.1758621,175.124982 0,135.921276 0,87.5627929 C0,39.2012901 39.1758621,0.000603877166 87.5,0.000603877166" id="Fill-1" fill="#4A90E2" mask="url(#mask-2)"></path>
                    </g>
                    <path d="M87.0128557,0 C74.8266284,0 63.2270334,2.48024079 52.6827716,6.95552337 C52.2019751,9.81548511 49.80404,14.7006252 49.8766131,16.2586866 C50.2152874,16.3249871 72.1716637,-6.04238491 69.4471499,9.05604322 C67.6902769,18.7750913 49.7405386,18.7178318 50.5116274,28.5031803 C69.3685291,35.8715748 75.9454632,14.5137784 91.9629436,14.6011745 C97.3061356,14.6313111 110.989182,6.21114977 113.598789,7.92592135 C124.170265,14.8663764 111.182711,39.4698829 103.093838,31.2817732 C95.316424,23.5306441 84.2187927,33.9970794 84.7177325,46.0848628 C88.7606571,46.2656823 90.4872913,34.6450159 94.1219923,38.5205805 C98.1256064,42.7909343 96.6801929,51.3889015 91.1404488,53.3628477 C85.5644183,55.3488485 63.6927105,38.6260585 69.0661413,51.3015054 C74.9747984,65.3692624 51.364361,76.2395279 75.1985654,70.5678229 C86.4352951,67.8826534 82.7008061,76.4052791 88.0016637,80.4707041 C94.3155205,85.3015984 91.5214574,73.7984646 96.1237994,75.5494001 C102.821689,78.1321053 94.971702,84.7862628 105.461534,79.9553686 C117.765692,74.3620187 113.142183,83.0835459 116.909935,88.7853874 C123.973713,99.4296286 141.333796,109.64593 150.432644,95.5781732 C152.576573,92.2601354 151.200709,66.0232262 164.705347,83.6229907 C173.281064,94.8036631 170.338831,70.4141264 171.5,64.0070888 C161.239983,27.1018292 127.312074,0 87.0128557,0" id="Fill-4" fill="#4FD586"></path>
                    <g id="Group-8" transform="translate(14.875000, 105.950249)">
                        <mask id="mask-4" fill="white">
                            <use xlink:href="#path-3"></use>
                        </mask>
                        <g id="Clip-7"></g>
                        <path d="M84.5112649,21.3002182 L68.3227243,9.24587428 L57.4708324,9.66994177 L46.2133189,6.15108388 L37.4016432,0.114889206 L17.4141838,4.70143474 L9.17158919,8.66541311 L-0.000302702703,20.9423173 L3.24467027,35.3305362 C4.17094054,36.5185267 5.13050811,37.6824566 6.11731892,38.8223259 L23.0928865,46.6931388 L34.5501838,48.2330151 L41.3670486,62.1340075 L41.5728865,63.532528 C51.2351568,67.1686811 61.7056432,69.1747309 72.6483459,69.1747309 C80.1977514,69.1747309 87.5231568,68.2273461 94.5155892,66.4438565 L96.8191568,52.7774546 L107.289643,44.3352033 L111.639481,30.8582783 L89.7782919,30.7650437 L84.5112649,21.3002182 Z" id="Fill-6" fill="#FAC176" mask="url(#mask-4)"></path>
                    </g>
                    <path d="M1.10930268,101.572139 C1.51752607,101.536007 1.57077259,101.502885 1.60627028,101.463742 C5.44297848,97.5614308 8.6377702,96.9080346 11.8355201,91.0515571 C15.0332699,85.1980906 11.1965617,85.1980906 11.8355201,75.43328 C12.4744784,65.6714805 11.1965617,70.2271877 11.8355201,59.815003 C12.066255,56.0692662 11.6787386,54.0097132 7.20603021,52.5373134 C2.58245664,63.2686686 0,75.1141095 0,87.5828362 C0,92.3463053 0.387516403,97.0134211 1.10930268,101.572139" id="Fill-9" fill="#4FD586"></path>
                    <g id="Group-13" transform="translate(15.750000, 124.338308)">
                        <mask id="mask-6" fill="white">
                            <use xlink:href="#path-5"></use>
                        </mask>
                        <g id="Clip-12"></g>
                        <path d="M75.1953125,35.8495878 C71.9378516,35.6016323 59.9066016,31.8673625 57.1484375,26.8873402 C54.3902734,21.907318 48.3746484,13.4439689 48.125,14.9376768 C47.9535547,15.9533982 20.7208203,6.74319508 2.01222656,0.185817267 L0,2.87747896 L3.224375,17.1692764 C4.14476562,18.3493057 5.09824219,19.5054356 6.07878906,20.6376663 L22.9466016,28.4557336 L34.3311719,29.9852905 L41.1047656,43.7931266 L41.3092969,45.182275 C50.9102344,48.7940608 61.3142578,50.7866671 72.1875,50.7866671 C79.6889844,50.7866671 86.9678906,49.8456311 93.9159375,48.0740935 L95.6514453,37.7794585 C94.1204687,37.3074468 92.3548828,36.677102 90.234375,35.8495878 C81.9628906,32.6142164 78.4527734,36.0975433 75.1953125,35.8495878" id="Fill-11" fill="#F8E71C" mask="url(#mask-6)"></path>
                    </g>
                    <path d="M122.534674,150.229763 L126.875,136.734795 L105.061616,136.641436 L99.8030867,127.16394 L83.6469264,115.093458 L72.8217856,115.518093 L61.5888897,111.994524 L52.7964832,105.950249 L32.8527318,110.542935 L24.6281619,114.51222 L17.5,124.086087 C36.2869353,130.702566 63.6337057,139.98732 63.8058689,138.963377 C64.0565627,137.457579 70.0973779,145.989434 72.8670917,151.009766 C75.6368055,156.030099 87.7184359,159.794595 90.9895373,160.044558 C94.2606387,160.294521 97.7854544,156.782998 106.091575,160.044558 C108.220963,160.87877 109.993942,161.514217 111.528309,161.99005 L112.087084,158.683316 L122.534674,150.229763 Z" id="Fill-14" fill="#4FD586"></path>
                    <path d="M120.226442,7.00497512 C119.644952,18.0292732 119.211094,25.9962864 119.211094,25.9962864 L102.375,42.8279196 C102.375,42.8279196 118.156578,65.4427912 119.211094,68.0723574 C120.262596,70.7019235 133.413912,73.8586078 136.047188,72.2802657 C138.677451,70.7019235 148.674258,62.2861069 152.883281,68.0723574 C155.814835,72.0995395 155.438222,75.614664 157.236924,78.0876008 C158.47824,78.1056734 160.029884,78.9400261 161.96718,80.8888569 C164.699881,81.708149 167.818234,82.5123806 170.59613,83.1840796 C171.518077,77.7924147 170.834149,68.1747689 171.5,64.4939786 C164.235894,38.318801 145.073841,17.1346785 120.226442,7.00497512" id="Fill-16" fill="#B8E986"></path>
                    <path d="M131.006877,11.3830846 C130.465421,21.7365011 130.025117,29.9496919 130.025117,29.9496919 L118.125,41.9397515 C118.125,41.9397515 129.28136,58.0513942 130.025117,59.924841 C130.768874,61.7982878 140.065841,64.046424 141.925234,62.9223559 C143.784627,61.7982878 150.850322,55.803258 153.825351,59.924841 C156.80038,64.046424 154.940987,67.4186282 159.77541,68.9173857 C163.860125,70.1853345 169.49483,71.4412932 171.154897,71.800995 C171.178697,68.4677584 171.187622,65.3833156 171.5,63.6387619 C165.356565,41.3012809 150.561744,22.620768 131.006877,11.3830846" id="Fill-18" fill="#FFDD7A"></path>
                </g>
                <g id="Group-5" transform="translate(48.058463, 52.021727)" fill="#FFFFFF">
                    <g id="Group-2" transform="translate(0.941537, 0.978273)">
                        <path d="M24.348229,26.5017382 C28.1122296,26.5010631 31.1641023,29.5518411 31.1647775,33.3158417 C31.1647776,33.3166568 31.1647776,33.3174718 31.1647775,33.3182868 L31.1574398,74.2249158 C31.1567643,77.9906626 28.1041921,81.0432347 24.3384453,81.0439102 C20.5744447,81.0445854 17.5225719,77.9938073 17.5218968,74.2298067 C17.5218966,74.2289917 17.5218966,74.2281767 17.5218968,74.2273617 L17.5292345,33.3207327 C17.52991,29.5549859 20.5824822,26.5024137 24.348229,26.5017382 Z" id="Rectangle" transform="translate(24.343337, 53.772824) rotate(-45.000000) translate(-24.343337, -53.772824) "></path>
                        <path d="M56.3604426,-1.47556888 C60.1257986,-1.47498389 63.1780766,1.57729417 63.1786615,5.34265025 L63.189253,73.5289259 C63.1898376,77.2927698 60.1391132,80.3444422 56.3752693,80.3450268 C56.3745635,80.3450269 56.3738577,80.3450269 56.3731519,80.3450268 C52.6077958,80.3444418 49.5555178,77.2921638 49.554933,73.5268077 L49.5443415,5.34053203 C49.5437568,1.57668809 52.5944812,-1.47498423 56.3583252,-1.47556888 C56.359031,-1.47556899 56.3597368,-1.47556899 56.3604426,-1.47556888 Z" id="Rectangle" transform="translate(56.366797, 39.434729) rotate(-330.000000) translate(-56.366797, -39.434729) "></path>
                    </g>
                </g>
            </g>
        </g>
    </g>
</svg>