<?xml version="1.0" encoding="UTF-8"?>
<svg width="241px" height="197px" viewBox="0 0 241 197" version="1.1" xmlns="http://www.w3.org/2000/svg" xmlns:xlink="http://www.w3.org/1999/xlink">
    <!-- Generator: Sketch 57.1 (83088) - https://sketch.com -->
    <title>ic_rain</title>
    <desc>Created with Sketch.</desc>
    <g id="Mobile" stroke="none" stroke-width="1" fill="none" fill-rule="evenodd">
        <g id="M-Reg-child" transform="translate(-42.000000, -536.000000)">
            <g id="ic_rain" transform="translate(42.000000, 536.000000)">
                <path d="M5.54128164,102.746094 C20.8733129,122.644531 234.813619,119.636219 239.900107,99.1032656 C244.986594,78.5703125 232.400657,37.4609375 209.400657,29.6757813 C193.659535,24.3476467 180.060813,27.2929688 168.138938,45.828125 C165.472115,49.9742833 156.942972,0 108.228782,0 C63.6385555,0 54.150402,42.3714985 50.3069066,57.0664063 C48.3024849,64.7299492 48.8664676,49.624788 38.5538348,49.624788 C8.46664205,49.624788 -9.79074961,82.8476563 5.54128164,102.746094 Z" id="Path-2" fill="#A4CEFF" style="mix-blend-mode: multiply;"></path>
                <path d="M70.5,174 C81.8218374,174 91,164.946203 91,153.777778 C91,142.609353 72.6805889,126 70.5,126 C68.3194111,126 50,142.609353 50,153.777778 C50,164.946203 59.1781626,174 70.5,174 Z" id="Oval" fill="#4A90E2"></path>
                <path d="M150.5,197 C159.060414,197 166,190.209652 166,181.833333 C166,173.457015 152.148738,161 150.5,161 C148.851262,161 135,173.457015 135,181.833333 C135,190.209652 141.939586,197 150.5,197 Z" id="Oval" fill="#2E4FD0"></path>
                <path d="M175.5,149.5 C182.955844,149.5 189,143.558446 189,136.229167 C189,128.899888 176.935998,118 175.5,118 C174.064002,118 162,128.899888 162,136.229167 C162,143.558446 168.044156,149.5 175.5,149.5 Z" id="Oval" fill="#4A90E2"></path>
                <path d="M111.5,136 C117.851275,136 123,130.907239 123,124.625 C123,118.342761 112.723257,109 111.5,109 C110.276743,109 100,118.342761 100,124.625 C100,130.907239 105.148725,136 111.5,136 Z" id="Oval-Copy-2" fill="#2E4FD0"></path>
            </g>
        </g>
    </g>
</svg>