<?xml version="1.0" encoding="UTF-8"?>
<svg width="241px" height="241px" viewBox="0 0 241 241" version="1.1" xmlns="http://www.w3.org/2000/svg" xmlns:xlink="http://www.w3.org/1999/xlink">
    <!-- Generator: Sketch 57.1 (83088) - https://sketch.com -->
    <title>ic_snowrain</title>
    <desc>Created with Sketch.</desc>
    <g id="Desktop" stroke="none" stroke-width="1" fill="none" fill-rule="evenodd">
        <g id="DT-Letter" transform="translate(-100.000000, -315.000000)">
            <g id="ic_snowrain" transform="translate(100.000000, 315.000000)">
                <path d="M5.54128164,102.746094 C20.8733129,122.644531 234.813619,119.636219 239.900107,99.1032656 C244.986594,78.5703125 232.400657,37.4609375 209.400657,29.6757812 C193.659535,24.3476467 180.060813,27.2929687 168.138938,45.828125 C165.472115,49.9742833 156.942972,-5.18696197e-13 108.228782,-5.18696197e-13 C63.6385555,-5.18696197e-13 54.150402,42.3714985 50.3069066,57.0664062 C48.3024849,64.7299492 48.8664676,49.624788 38.5538348,49.624788 C8.46664205,49.624788 -9.79074961,82.8476562 5.54128164,102.746094 Z" id="Path-2" fill="#E9E9E9"></path>
                <path d="M69.5,241 C86.8969696,241 101,226.853442 101,209.402778 C101,191.952114 72.8506611,166 69.5,166 C66.1493389,166 38,191.952114 38,209.402778 C38,226.853442 52.1030304,241 69.5,241 Z" id="Oval" fill="#FFFFFF"></path>
                <path d="M190.5,180 C201.269553,180 210,171.323444 210,160.62037 C210,149.917296 192.574219,134 190.5,134 C188.425781,134 171,149.917296 171,160.62037 C171,171.323444 179.730447,180 190.5,180 Z" id="Oval-Copy-2" fill="#FFFFFF"></path>
                <polygon id="Star-Copy" fill="#FFFFFF" transform="translate(41.000000, 136.001587) rotate(-180.000000) translate(-41.000000, -136.001587) " points="41 140 39 143 37 143 36 141 38 138 34.0672607 137.950684 33 136 34.0227064 134 38 134 36 131 37 129 39 129 41 132 43.114502 129 45 129 46 131 44.0158626 134 47.664342 134 49 136 47.6244797 138 44 138 46 141 45 143.003174 43 143"></polygon>
                <polygon id="Star-Copy" fill="#FFFFFF" transform="translate(167.000000, 214.500000) rotate(-180.000000) translate(-167.000000, -214.500000) " points="167 219.925188 164.25 223.995694 161.5 223.995694 160.125 221.282023 162.875 217.211517 157.467484 217.144603 156 214.497847 157.406221 211.784176 162.875 211.784176 160.125 207.713671 161.5 205 164.25 205 167 209.070506 169.90744 205 172.5 205 173.875 207.713671 171.146811 211.784176 176.16347 211.784176 178 214.497847 176.10866 217.211517 171.125 217.211517 173.875 221.282023 172.5 224 169.75 223.995694"></polygon>
                <polygon id="Star-Copy-2" fill="#FFFFFF" transform="translate(119.000000, 148.000000) rotate(-270.000000) translate(-119.000000, -148.000000) " points="119 155.423941 115.25 160.994107 111.5 160.994107 109.625 157.280663 113.375 151.710497 106.001114 151.618931 104 147.997054 105.917574 144.28361 113.375 144.28361 109.625 138.713444 111.5 135 115.25 135 119 140.570166 122.964691 135 126.5 135 128.375 138.713444 124.654742 144.28361 131.495641 144.28361 134 147.997054 131.420899 151.710497 124.625 151.710497 128.375 157.280663 126.5 161 122.75 160.994107"></polygon>
            </g>
        </g>
    </g>
</svg>