<svg xmlns="http://www.w3.org/2000/svg" width="109" height="92" viewBox="0 0 109 92">
    <g fill="none" fill-rule="evenodd">
        <path fill="#FFA2A5" d="M10 45H180V135H10z" transform="translate(-70.554 -78.062) rotate(-40 95 90)"/>
        <path fill="#FFF" fill-rule="nonzero" d="M84.397 121.957c.312-.261.576-.552.794-.873.218-.32.388-.658.511-1.014.123-.355.198-.721.225-1.099.028-.377.007-.753-.062-1.126-.068-.373-.185-.738-.35-1.093-.167-.356-.381-.69-.645-1.005-.264-.314-.556-.584-.878-.809-.32-.225-.659-.403-1.013-.533-.355-.131-.72-.214-1.093-.25-.374-.035-.746-.023-1.116.038-.37.06-.732.17-1.085.329-.354.159-.686.369-.997.63l-2.613 2.192 1.036 1.234.543-.455 3.642 4.34-.543.456 1.032 1.23 2.612-2.192zm-1.04-1.223l-.57.479-3.643-4.34.57-.479c.243-.203.518-.34.826-.41.309-.07.624-.075.946-.013.322.061.64.185.953.37.314.186.597.43.851.732.256.305.449.629.578.972.13.342.197.678.203 1.007.006.33-.05.641-.17.936-.121.294-.302.543-.545.746zm8.07-4.675l-1.033-1.23-.718.602-3.646-4.345.719-.602-1.032-1.23-2.913 2.444 1.032 1.23.704-.591 3.646 4.345-.705.591 1.032 1.23 2.913-2.444zm3.662-2.982c.377-.311.638-.606.783-.886.145-.28.242-.57.29-.871.049-.3.029-.692-.06-1.174l.98 1.167 1.342-1.126-3.047-3.631-3.15 2.644 1.031 1.23 1.297-1.089c.164.408.206.804.125 1.188-.08.384-.28.709-.597.975-.248.208-.525.352-.832.43-.306.079-.624.09-.953.031-.329-.057-.637-.175-.923-.353-.287-.177-.545-.402-.773-.675-.231-.275-.412-.581-.542-.918-.13-.337-.197-.668-.202-.993-.005-.325.053-.635.173-.93.12-.294.306-.546.557-.757.254-.214.48-.349.674-.405.195-.057.393-.088.595-.094.201-.006.46.04.776.137l1.387-1.164-1.273-1.517-1.006.844c-.515-.007-.942.052-1.282.177-.34.124-.685.334-1.038.63-.309.259-.568.548-.78.868-.21.32-.374.658-.49 1.015-.115.358-.183.727-.202 1.108-.02.38.01.76.087 1.139.078.378.204.75.377 1.114.173.364.394.707.663 1.027.437.52.932.924 1.487 1.211.554.287 1.138.46 1.751.515.248.022.498.015.75-.021.254-.036.497-.09.732-.163.236-.072.463-.166.682-.281.22-.116.423-.25.611-.402zm7.316-6.23l-1.032-1.23-.718.602-3.646-4.345.719-.603-1.032-1.23-2.913 2.445 1.032 1.23.704-.592 3.646 4.345-.705.592 1.032 1.23 2.913-2.445zm4.803-4.03l-1.032-1.23-.718.602-3.68-4.385.938-.788.739.88 1.472-1.235-1.736-2.07L97 99.786l1.736 2.07 1.463-1.228-.738-.88.826-.693 3.68 4.385-.705.592 1.032 1.23 2.913-2.445zm4.085-3.428l-1.032-1.23-.718.603-.516-1.235 2.091-1.755 1.127.722-.678.569 1.032 1.23 2.58-2.166-1.031-1.23-.494.415-6.491-4.054-1.8 1.51 2.824 7.131-.507.426 1.032 1.23 2.58-2.166zm-1.502-4.461l-1.374 1.152-1.174-2.785 2.548 1.633zm11.44-3.878l-2.098-2.5-1.455 1.22.765.912c.032.038.057.086.075.143.017.057.026.116.028.175.002.06-.007.117-.025.17-.019.055-.048.098-.087.13l-1.48 1.243-3.643-4.34.718-.603-1.035-1.234-2.914 2.444 1.036 1.235.705-.592 3.642 4.34-.705.592 1.032 1.23 5.44-4.565zm-25.309 41.054c.371-.31.664-.648.879-1.012.215-.364.35-.735.405-1.113.055-.378.03-.753-.078-1.127-.107-.374-.299-.726-.575-1.055-.204-.243-.418-.435-.644-.576-.226-.142-.457-.242-.692-.3-.234-.058-.47-.077-.708-.056-.237.021-.467.073-.687.156l-1.581.623c-.135.052-.27.11-.406.173-.136.063-.271.107-.405.133-.134.025-.263.023-.388-.007s-.244-.113-.357-.248c-.09-.108-.147-.219-.168-.333-.022-.114-.017-.226.015-.337.031-.111.087-.22.165-.327.079-.107.175-.208.289-.303.126-.106.262-.187.41-.245.148-.058.296-.091.444-.1.147-.01.29.007.426.051s.255.112.358.204l.331.395 1.625-1.363-1.137-1.356-.449.377c-.194-.092-.415-.153-.662-.183-.247-.03-.509-.02-.786.03-.278.048-.562.14-.852.274-.29.134-.575.318-.853.551-.353.297-.64.614-.861.952-.221.339-.366.685-.436 1.04-.07.354-.059.707.034 1.06.092.354.274.692.545 1.015.234.279.483.492.747.64.264.148.534.244.809.289.274.045.547.045.819 0 .271-.043.53-.117.774-.22l1.307-.53c.118-.049.24-.095.365-.14.126-.044.25-.073.372-.085.121-.013.24-.002.352.032.114.035.218.11.314.223.185.222.26.454.224.696-.037.242-.19.476-.459.702-.176.148-.35.254-.52.318-.171.065-.335.091-.492.08-.157-.01-.305-.055-.444-.132-.139-.078-.265-.184-.378-.318l-.233-.279-1.625 1.364 1.134 1.35.462-.387c.244.127.502.207.775.24.273.034.552.026.836-.024.285-.05.568-.143.848-.28.281-.136.552-.313.812-.532zm7.2-6.278l-1.032-1.23-.718.603-3.68-4.385.938-.788.738.88 1.472-1.235-1.736-2.07-6.19 5.194 1.737 2.07 1.463-1.228-.738-.88.826-.693 3.68 4.385-.705.592 1.032 1.23 2.913-2.445zm5.157-4.327l-1.032-1.23-.624.523-1.243-1.48.58-.487c.182-.153.357-.264.526-.334.168-.07.336-.1.502-.09.167.011.337.063.509.155.172.093.352.224.54.393l1.625 1.39 1.975-1.658-1.12-1.316-.562.47-.97-.691c-.274-.205-.536-.338-.787-.4s-.485-.068-.703-.018c.106-.232.185-.457.236-.676.05-.219.067-.435.048-.649-.019-.213-.076-.428-.172-.643-.097-.215-.242-.437-.435-.668-.21-.251-.464-.45-.758-.598-.295-.148-.61-.23-.946-.247-.335-.017-.685.037-1.048.164-.363.126-.72.336-1.07.63l-3.6 3.02 1.036 1.235.705-.592 3.642 4.34-.705.592 1.032 1.23 2.82-2.365zm-3.022-4.15l-.894.75-1.382-1.647.893-.75c.365-.306.704-.465 1.015-.476.312-.012.578.114.8.377.117.14.193.284.226.43.033.145.029.293-.012.442-.04.149-.116.296-.226.442-.11.145-.25.29-.42.433zm9.984-1.692l-1.032-1.23-.718.603-3.646-4.345.718-.603-1.032-1.23-2.913 2.445 1.032 1.23.705-.592L112 116.28l-.704.592 1.032 1.23 2.913-2.445zm3.636-3.05l-1.032-1.23-.719.602-1.924-2.294 4.028.353 1.119 1.333 2.258-1.894-1.12-1.334-.551.464-4.018-.377.632-3.85.507-.425-1.11-1.325-2.321 1.948 1.103 1.315-.584 3.725-1.66-1.98.718-.602-1.036-1.234-2.913 2.444 1.035 1.234.705-.59 3.642 4.34-.704.59 1.031 1.23 2.914-2.444zm9.928-8.332l-2.045-2.437-1.463 1.228 1.013 1.207-1.746 1.465-1.322-1.575 1.351-1.134-1.092-1.302-1.351 1.134-1.126-1.342 1.746-1.465.81.965 1.463-1.228-1.948-2.32-5.413 4.542 1.138 1.355.713-.598 3.54 4.219-.713.599 1.032 1.23 5.413-4.543z" transform="translate(-70.554 -78.062)"/>
    </g>
</svg>
