<?xml version="1.0" encoding="UTF-8"?>
<svg width="109px" height="92px" viewBox="0 0 109 92" version="1.1" xmlns="http://www.w3.org/2000/svg" xmlns:xlink="http://www.w3.org/1999/xlink">
    <!-- Generator: Sketch 63.1 (92452) - https://sketch.com -->
    <title>tag_onlinestrike</title>
    <desc>Created with Sketch.</desc>
    <g id="Mobile" stroke="none" stroke-width="1" fill="none" fill-rule="evenodd">
        <g id="M-Done-eng-corona-2">
            <g id="tag_onlinestrike" transform="translate(-70.554198, -78.061600)">
                <rect id="Rectangle" fill="#FFA2A5" transform="translate(95.000000, 90.000000) rotate(-40.000000) translate(-95.000000, -90.000000) " x="10" y="45" width="170" height="90"></rect>
                <path d="M83.1095135,107.517937 C83.5118573,107.517937 83.8975995,107.463249 84.2667401,107.353874 C84.6358807,107.244499 84.9796307,107.090202 85.2979901,106.890984 C85.6163495,106.691765 85.905412,106.452507 86.1651776,106.17321 C86.4249432,105.893913 86.6475995,105.583366 86.8331463,105.241569 C87.0186932,104.899773 87.1622479,104.532585 87.2638104,104.140007 C87.3653729,103.747429 87.4161541,103.340202 87.4161541,102.918327 C87.4161541,102.492546 87.3653729,102.083366 87.2638104,101.690788 C87.1622479,101.29821 87.0186932,100.931023 86.8331463,100.589226 C86.6475995,100.247429 86.4249432,99.936882 86.1651776,99.6575851 C85.905412,99.3782882 85.6163495,99.1390304 85.2979901,98.9398116 C84.9796307,98.7405929 84.6358807,98.586296 84.2667401,98.476921 C83.8975995,98.367546 83.5118573,98.3128585 83.1095135,98.3128585 C82.7071698,98.3128585 82.3224041,98.367546 81.9552166,98.476921 C81.5880291,98.586296 81.2452557,98.7405929 80.9268963,98.9398116 C80.608537,99.1390304 80.3194745,99.3782882 80.0597088,99.6575851 C79.7999432,99.936882 79.5782635,100.247429 79.3946698,100.589226 C79.211076,100.931023 79.0684979,101.29821 78.9669354,101.690788 C78.8653729,102.083366 78.8145916,102.492546 78.8145916,102.918327 C78.8145916,103.344109 78.8653729,103.752312 78.9669354,104.142937 C79.0684979,104.533562 79.211076,104.899773 79.3946698,105.241569 C79.5782635,105.583366 79.7999432,105.893913 80.0597088,106.17321 C80.3194745,106.452507 80.608537,106.691765 80.9268963,106.890984 C81.2452557,107.090202 81.5880291,107.244499 81.9552166,107.353874 C82.3224041,107.463249 82.7071698,107.517937 83.1095135,107.517937 Z M83.1095135,105.678093 C82.773576,105.678093 82.4649823,105.604851 82.1837323,105.458366 C81.9024823,105.311882 81.6602948,105.112663 81.4571698,104.86071 C81.2540448,104.608757 81.0948651,104.315788 80.9796307,103.981804 C80.8643963,103.647819 80.8067791,103.293327 80.8067791,102.918327 C80.8067791,102.539421 80.8643963,102.181999 80.9796307,101.846062 C81.0948651,101.510124 81.2540448,101.216179 81.4571698,100.964226 C81.6602948,100.712273 81.9024823,100.513054 82.1837323,100.366569 C82.4649823,100.220085 82.773576,100.146843 83.1095135,100.146843 C83.445451,100.146843 83.7540448,100.220085 84.0352948,100.366569 C84.3165448,100.513054 84.5597088,100.712273 84.764787,100.964226 C84.9698651,101.216179 85.1290448,101.510124 85.242326,101.846062 C85.3556073,102.181999 85.4122479,102.539421 85.4122479,102.918327 C85.4122479,103.293327 85.3565838,103.647819 85.2452557,103.981804 C85.1339276,104.315788 84.976701,104.608757 84.773576,104.86071 C84.570451,105.112663 84.327287,105.311882 84.0440838,105.458366 C83.7608807,105.604851 83.4493573,105.678093 83.1095135,105.678093 Z M91.9513104,107.359734 L91.9513104,105.754265 L91.2071698,105.754265 L91.2071698,101.617546 L94.9044354,107.359734 L96.8497479,107.359734 L96.8497479,100.088249 L97.570451,100.088249 L97.570451,98.476921 L94.195451,98.476921 L94.195451,100.088249 L94.9513104,100.088249 L94.9513104,104.29528 L91.2774823,98.476921 L88.5938885,98.476921 L88.5938885,100.088249 L89.3145916,100.088249 L89.3145916,105.754265 L88.5821698,105.754265 L88.5821698,107.359734 L91.9513104,107.359734 Z M105.632951,107.359734 L105.632951,104.096062 L103.734514,104.096062 L103.734514,105.285515 C103.734514,105.336296 103.722795,105.38903 103.699357,105.443718 C103.67592,105.498405 103.645646,105.549187 103.608537,105.596062 C103.571428,105.642937 103.528459,105.681023 103.479631,105.710319 C103.430803,105.739616 103.380998,105.754265 103.330217,105.754265 L103.330217,105.754265 L101.396623,105.754265 L101.396623,100.088249 L102.334123,100.088249 L102.334123,98.476921 L98.5313885,98.476921 L98.5313885,100.088249 L99.4513104,100.088249 L99.4513104,105.754265 L98.5313885,105.754265 L98.5313885,107.359734 L105.632951,107.359734 Z M110.220842,107.359734 L110.220842,105.754265 L109.283342,105.754265 L109.283342,100.08239 L110.220842,100.08239 L110.220842,98.476921 L106.418107,98.476921 L106.418107,100.08239 L107.338029,100.08239 L107.338029,105.754265 L106.418107,105.754265 L106.418107,107.359734 L110.220842,107.359734 Z M114.533342,107.359734 L114.533342,105.754265 L113.789201,105.754265 L113.789201,101.617546 L117.486467,107.359734 L119.431779,107.359734 L119.431779,100.088249 L120.152482,100.088249 L120.152482,98.476921 L116.777482,98.476921 L116.777482,100.088249 L117.533342,100.088249 L117.533342,104.29528 L113.859514,98.476921 L111.17592,98.476921 L111.17592,100.088249 L111.896623,100.088249 L111.896623,105.754265 L111.164201,105.754265 L111.164201,107.359734 L114.533342,107.359734 Z M128.179826,107.359734 L128.179826,104.178093 L126.26967,104.178093 L126.26967,105.754265 L123.990373,105.754265 L123.990373,103.697624 L125.754045,103.697624 L125.754045,101.998405 L123.990373,101.998405 L123.990373,100.246452 L126.26967,100.246452 L126.26967,101.506218 L128.179826,101.506218 L128.179826,98.476921 L121.11342,98.476921 L121.11342,100.246452 L122.04506,100.246452 L122.04506,105.754265 L121.11342,105.754265 L121.11342,107.359734 L128.179826,107.359734 Z M83.6309979,122.541374 C84.1153729,122.541374 84.5567791,122.471062 84.9552166,122.330437 C85.3536541,122.189812 85.695451,121.992546 85.9806073,121.73864 C86.2657635,121.484734 86.4874432,121.180046 86.6456463,120.824577 C86.8038495,120.469109 86.882951,120.07653 86.882951,119.646843 C86.882951,119.330437 86.8419354,119.04528 86.7599041,118.791374 C86.6778729,118.537468 86.5655682,118.312859 86.4229901,118.117546 C86.280412,117.922234 86.1114666,117.756218 85.9161541,117.619499 C85.7208416,117.48278 85.5118573,117.375359 85.289201,117.297234 L85.289201,117.297234 L83.6778729,116.758171 C83.5411541,116.711296 83.4005291,116.668327 83.2559979,116.629265 C83.1114666,116.590202 82.9796307,116.537468 82.8604901,116.471062 C82.7413495,116.404655 82.6436932,116.319694 82.5675213,116.216179 C82.4913495,116.112663 82.4532635,115.973015 82.4532635,115.797234 C82.4532635,115.656609 82.4815838,115.535515 82.5382245,115.433952 C82.5948651,115.33239 82.671037,115.249382 82.7667401,115.184929 C82.8624432,115.120476 82.9747479,115.072624 83.1036541,115.041374 C83.2325604,115.010124 83.3712323,114.994499 83.5196698,114.994499 C83.6837323,114.994499 83.8409588,115.01989 83.9913495,115.070671 C84.1417401,115.121452 84.2765057,115.190788 84.3956463,115.278679 C84.514787,115.366569 84.6124432,115.471062 84.6886151,115.592155 C84.764787,115.713249 84.8126385,115.842155 84.8321698,115.978874 L84.8321698,115.978874 L84.8321698,116.494499 L86.9532635,116.494499 L86.9532635,114.724968 L86.367326,114.724968 C86.2774823,114.529655 86.1475995,114.341179 85.9776776,114.159538 C85.8077557,113.977898 85.6007245,113.816765 85.3565838,113.67614 C85.1124432,113.535515 84.836076,113.42321 84.5274823,113.339226 C84.2188885,113.255241 83.882951,113.213249 83.5196698,113.213249 C83.0587323,113.213249 82.6349041,113.271843 82.2481854,113.38903 C81.8614666,113.506218 81.5274823,113.678093 81.2462323,113.904655 C80.9649823,114.131218 80.7462323,114.409538 80.5899823,114.739616 C80.4337323,115.069694 80.3556073,115.445671 80.3556073,115.867546 C80.3556073,116.230827 80.4093182,116.554069 80.5167401,116.837273 C80.624162,117.120476 80.7686932,117.367546 80.9503338,117.578484 C81.1319745,117.789421 81.3409588,117.965202 81.577287,118.105827 C81.8136151,118.246452 82.0587323,118.355827 82.3126385,118.433952 L82.3126385,118.433952 L83.6544354,118.867546 C83.7755291,118.906609 83.898576,118.949577 84.023576,118.996452 C84.148576,119.043327 84.2618573,119.100944 84.3634198,119.169304 C84.4649823,119.237663 84.5479901,119.321648 84.6124432,119.421257 C84.6768963,119.520866 84.7091229,119.64489 84.7091229,119.793327 C84.7091229,120.08239 84.617326,120.307976 84.4337323,120.470085 C84.2501385,120.632194 83.9825604,120.713249 83.6309979,120.713249 C83.4005291,120.713249 83.1993573,120.682976 83.0274823,120.622429 C82.8556073,120.561882 82.7130291,120.476921 82.5997479,120.367546 C82.4864666,120.258171 82.4015057,120.129265 82.3448651,119.980827 C82.2882245,119.83239 82.2599041,119.67028 82.2599041,119.494499 L82.2599041,119.494499 L82.2599041,119.131218 L80.1388104,119.131218 L80.1388104,120.89489 L80.742326,120.89489 C80.8477948,121.148796 80.9942791,121.376335 81.1817791,121.577507 C81.3692791,121.778679 81.5880291,121.95153 81.8380291,122.096062 C82.0880291,122.240593 82.3643963,122.350944 82.6671307,122.427116 C82.9698651,122.503288 83.2911541,122.541374 83.6309979,122.541374 Z M93.1817791,122.359734 L93.1817791,120.754265 L92.2442791,120.754265 L92.2442791,115.029655 L93.4688885,115.029655 L93.4688885,116.178093 L95.3907635,116.178093 L95.3907635,113.476921 L87.3106854,113.476921 L87.3106854,116.178093 L89.2208416,116.178093 L89.2208416,115.029655 L90.2989666,115.029655 L90.2989666,120.754265 L89.3790448,120.754265 L89.3790448,122.359734 L93.1817791,122.359734 Z M99.914201,122.359734 L99.914201,120.754265 L99.0997479,120.754265 L99.0997479,118.820671 L99.8556073,118.820671 C100.093889,118.820671 100.299943,118.848015 100.473771,118.902702 C100.647599,118.95739 100.79506,119.042351 100.916154,119.157585 C101.037248,119.272819 101.133928,119.421257 101.206193,119.602898 C101.278459,119.784538 101.33217,120.000359 101.367326,120.250359 L101.367326,120.250359 L101.718889,122.359734 L104.297014,122.359734 L104.285295,120.631218 L103.552873,120.631218 L103.254045,119.476921 C103.17592,119.14489 103.060685,118.874382 102.908342,118.665398 C102.755998,118.456413 102.580217,118.30114 102.380998,118.199577 C102.611467,118.090202 102.816545,117.968132 102.996232,117.833366 C103.17592,117.698601 103.327287,117.543327 103.450334,117.367546 C103.573381,117.191765 103.667131,116.990593 103.731584,116.76403 C103.796037,116.537468 103.828264,116.273796 103.828264,115.973015 C103.828264,115.64489 103.762834,115.32946 103.631974,115.026726 C103.501115,114.723991 103.312639,114.458366 103.066545,114.229851 C102.820451,114.001335 102.517717,113.818718 102.158342,113.681999 C101.798967,113.54528 101.390764,113.476921 100.933732,113.476921 L100.933732,113.476921 L96.2345135,113.476921 L96.2345135,115.088249 L97.1544354,115.088249 L97.1544354,120.754265 L96.2345135,120.754265 L96.2345135,122.359734 L99.914201,122.359734 Z M100.265764,117.23864 L99.0997479,117.23864 L99.0997479,115.088249 L100.265764,115.088249 C100.742326,115.088249 101.103654,115.183952 101.349748,115.375359 C101.595842,115.566765 101.718889,115.834343 101.718889,116.178093 C101.718889,116.361687 101.684709,116.51989 101.616349,116.652702 C101.54799,116.785515 101.450334,116.895866 101.323381,116.983757 C101.196428,117.071648 101.044084,117.136101 100.866349,117.177116 C100.688615,117.218132 100.48842,117.23864 100.265764,117.23864 L100.265764,117.23864 Z M109.002092,122.359734 L109.002092,120.754265 L108.064592,120.754265 L108.064592,115.08239 L109.002092,115.08239 L109.002092,113.476921 L105.199357,113.476921 L105.199357,115.08239 L106.119279,115.08239 L106.119279,120.754265 L105.199357,120.754265 L105.199357,122.359734 L109.002092,122.359734 Z M113.748185,122.359734 L113.748185,120.754265 L112.810685,120.754265 L112.810685,117.760124 L115.67006,120.619499 L115.67006,122.359734 L118.617326,122.359734 L118.617326,120.619499 L117.896623,120.619499 L115.060685,117.748405 L118.01967,115.205437 L118.681779,115.205437 L118.681779,113.476921 L115.652482,113.476921 L115.652482,115.193718 L112.810685,117.672234 L112.810685,115.088249 L113.748185,115.088249 L113.748185,113.476921 L109.945451,113.476921 L109.945451,115.088249 L110.865373,115.088249 L110.865373,120.754265 L109.945451,120.754265 L109.945451,122.359734 L113.748185,122.359734 Z M126.709123,122.359734 L126.709123,119.178093 L124.798967,119.178093 L124.798967,120.754265 L122.51967,120.754265 L122.51967,118.697624 L124.283342,118.697624 L124.283342,116.998405 L122.51967,116.998405 L122.51967,115.246452 L124.798967,115.246452 L124.798967,116.506218 L126.709123,116.506218 L126.709123,113.476921 L119.642717,113.476921 L119.642717,115.246452 L120.574357,115.246452 L120.574357,120.754265 L119.642717,120.754265 L119.642717,122.359734 L126.709123,122.359734 Z" id="ONLINESTRIKE" fill="#FFFFFF" fill-rule="nonzero" transform="translate(103.497209, 110.427116) rotate(-40.000000) translate(-103.497209, -110.427116) "></path>
            </g>
        </g>
    </g>
</svg>