<svg xmlns="http://www.w3.org/2000/svg" xmlns:xlink="http://www.w3.org/1999/xlink" width="34" height="34" viewBox="0 0 34 34">
    <defs>
        <circle id="prefix__a" cx="17" cy="17" r="17"/>
        <path id="prefix__c" d="M18 0C8.094 0 .064 7.611.064 17c0 9.39 8.03 17 17.936 17s17.936-7.61 17.936-17c0-9.389-8.03-17-17.936-17z"/>
    </defs>
    <g fill="none" fill-rule="evenodd">
        <mask id="prefix__b" fill="#fff">
            <use xlink:href="#prefix__a"/>
        </mask>
        <use fill="#D8D8D8" xlink:href="#prefix__a"/>
        <g mask="url(#prefix__b)">
            <mask id="prefix__d" fill="#fff">
                <use xlink:href="#prefix__c"/>
            </mask>
            <path fill="#FEFEFE" d="M-7.312 34.053L43.313 34.053 43.313 0.053 -7.312 0.053z" mask="url(#prefix__d)"/>
            <path fill="#E5332A" d="M9.286 2.668L43.313 2.668 43.313 0.053 9.286 0.053z" mask="url(#prefix__d)"/>
            <path fill="#FEFEFE" d="M9.286 5.284L43.313 5.284 43.313 2.668 9.286 2.668z" mask="url(#prefix__d)"/>
            <path fill="#E5332A" d="M9.286 7.899L43.313 7.899 43.313 5.284 9.286 5.284z" mask="url(#prefix__d)"/>
            <path fill="#FEFEFE" d="M9.286 10.514L43.313 10.514 43.313 7.899 9.286 7.899z" mask="url(#prefix__d)"/>
            <path fill="#E5332A" d="M9.286 13.129L43.313 13.129 43.313 10.514 9.286 10.514z" mask="url(#prefix__d)"/>
            <path fill="#FEFEFE" d="M-7.312 15.745L43.313 15.745 43.313 13.129 -7.312 13.129z" mask="url(#prefix__d)"/>
            <path fill="#E5332A" d="M9.286 18.361L43.313 18.361 43.313 15.746 9.286 15.746z" mask="url(#prefix__d)"/>
            <path fill="#FEFEFE" d="M-7.313 20.976L43.313 20.976 43.313 18.361 -7.313 18.361z" mask="url(#prefix__d)"/>
            <path fill="#E5332A" d="M-7.313 23.591L43.313 23.591 43.313 20.976 -7.313 20.976z" mask="url(#prefix__d)"/>
            <path fill="#FEFEFE" d="M-7.312 26.207L43.313 26.207 43.313 23.592 -7.312 23.592z" mask="url(#prefix__d)"/>
            <path fill="#E5332A" d="M-7.312 28.822L43.313 28.822 43.313 26.207 -7.312 26.207z" mask="url(#prefix__d)"/>
            <path fill="#FEFEFE" d="M-7.313 31.438L43.313 31.438 43.313 28.822 -7.313 28.822z" mask="url(#prefix__d)"/>
            <path fill="#E5332A" d="M-7.313 34.053L43.313 34.053 43.313 31.438 -7.313 31.438z" mask="url(#prefix__d)"/>
            <path fill="#2D2E83" d="M-7.313 20.927L14.768 20.927 14.768 0.053 -7.313 0.053z" mask="url(#prefix__d)"/>
            <path fill="#FEFEFE" d="M1.733 1.143L2.141 1.886 3.055 2.005 2.394 2.584 2.55 3.4 1.733 3.015.916 3.4 1.073 2.584.412 2.005 1.325 1.886zM5.108 1.143L5.516 1.886 6.43 2.005 5.769 2.584 5.925 3.4 5.108 3.015 4.291 3.4 4.448 2.584 3.787 2.005 4.7 1.886zM8.483 1.143L8.891 1.886 9.805 2.005 9.144 2.584 9.3 3.4 8.483 3.015 7.666 3.4 7.823 2.584 7.162 2.005 8.075 1.886zM11.858 1.143L12.266 1.886 13.18 2.005 12.519 2.584 12.675 3.4 11.858 3.015 11.041 3.4 11.198 2.584 10.537 2.005 11.45 1.886zM1.733 4.543L2.141 5.286 3.055 5.405 2.394 5.984 2.55 6.8 1.733 6.415.916 6.8 1.073 5.984.412 5.405 1.325 5.286zM5.108 4.543L5.516 5.286 6.43 5.405 5.769 5.984 5.925 6.8 5.108 6.415 4.291 6.8 4.448 5.984 3.787 5.405 4.7 5.286zM8.483 4.543L8.891 5.286 9.805 5.405 9.144 5.984 9.3 6.8 8.483 6.415 7.666 6.8 7.823 5.984 7.162 5.405 8.075 5.286zM11.858 4.543L12.266 5.286 13.18 5.405 12.519 5.984 12.675 6.8 11.858 6.415 11.041 6.8 11.198 5.984 10.537 5.405 11.45 5.286zM1.733 7.943L2.141 8.686 3.055 8.805 2.394 9.384 2.55 10.2 1.733 9.815.916 10.2 1.073 9.384.412 8.805 1.325 8.686zM5.108 7.943L5.516 8.686 6.43 8.805 5.769 9.384 5.925 10.2 5.108 9.815 4.291 10.2 4.448 9.384 3.787 8.805 4.7 8.686zM8.483 7.943L8.891 8.686 9.805 8.805 9.144 9.384 9.3 10.2 8.483 9.815 7.666 10.2 7.823 9.384 7.162 8.805 8.075 8.686zM11.858 7.943L12.266 8.686 13.18 8.805 12.519 9.384 12.675 10.2 11.858 9.815 11.041 10.2 11.198 9.384 10.537 8.805 11.45 8.686zM1.733 11.343L2.141 12.086 3.055 12.205 2.394 12.784 2.55 13.6 1.733 13.215.916 13.6 1.073 12.784.412 12.205 1.325 12.086zM5.108 11.343L5.516 12.086 6.43 12.205 5.769 12.784 5.925 13.6 5.108 13.215 4.291 13.6 4.448 12.784 3.787 12.205 4.7 12.086zM8.483 11.343L8.891 12.086 9.805 12.205 9.144 12.784 9.3 13.6 8.483 13.215 7.666 13.6 7.823 12.784 7.162 12.205 8.075 12.086zM11.858 11.343L12.266 12.086 13.18 12.205 12.519 12.784 12.675 13.6 11.858 13.215 11.041 13.6 11.198 12.784 10.537 12.205 11.45 12.086zM1.733 14.743L2.141 15.486 3.055 15.605 2.394 16.184 2.55 17 1.733 16.615.916 17 1.073 16.184.412 15.605 1.325 15.486zM5.108 14.743L5.516 15.486 6.43 15.605 5.769 16.184 5.925 17 5.108 16.615 4.291 17 4.448 16.184 3.787 15.605 4.7 15.486zM8.483 14.743L8.891 15.486 9.805 15.605 9.144 16.184 9.3 17 8.483 16.615 7.666 17 7.823 16.184 7.162 15.605 8.075 15.486zM11.858 14.743L12.266 15.486 13.18 15.605 12.519 16.184 12.675 17 11.858 16.615 11.041 17 11.198 16.184 10.537 15.605 11.45 15.486zM1.733 18.143L2.141 18.886 3.055 19.005 2.394 19.584 2.55 20.4 1.733 20.015.916 20.4 1.073 19.584.412 19.005 1.325 18.886zM5.108 18.143L5.516 18.886 6.43 19.005 5.769 19.584 5.925 20.4 5.108 20.015 4.291 20.4 4.448 19.584 3.787 19.005 4.7 18.886zM8.483 18.143L8.891 18.886 9.805 19.005 9.144 19.584 9.3 20.4 8.483 20.015 7.666 20.4 7.823 19.584 7.162 19.005 8.075 18.886zM11.858 18.143L12.266 18.886 13.18 19.005 12.519 19.584 12.675 20.4 11.858 20.015 11.041 20.4 11.198 19.584 10.537 19.005 11.45 18.886z" mask="url(#prefix__d)"/>
        </g>
    </g>
</svg>
