<svg xmlns="http://www.w3.org/2000/svg" xmlns:xlink="http://www.w3.org/1999/xlink" width="34" height="34" viewBox="0 0 34 34">
    <defs>
        <circle id="prefix__a" cx="17" cy="17" r="17"/>
    </defs>
    <g fill="none" fill-rule="evenodd">
        <mask id="prefix__b" fill="#fff">
            <use xlink:href="#prefix__a"/>
        </mask>
        <use fill="#4A90E2" xlink:href="#prefix__a"/>
        <g mask="url(#prefix__b)">
            <path fill="#E20714" d="M0.031 35.001L52.441 35.001 52.441 0.031 0.031 0.031z"/>
            <path fill="#E20714" d="M0.031 35.001L52.441 35.001 52.441 0.031 0.031 0.031z"/>
            <path stroke="#1D1D1B" stroke-width=".1" d="M0.031 35.001L52.441 35.001 52.441 0.031 0.031 0.031z"/>
            <path fill="#FFEC00" d="M8.493 10.508L11.726 12.845 10.494 9.059 13.725 6.714 9.729 6.714 8.493 2.928 7.254 6.714 3.259 6.714 6.49 9.059 5.258 12.845zM17.981 3.519L19.461 3.152 18.051 2.578 18.157 1.065 17.174 2.227 15.761 1.655 16.567 2.947 15.584 4.108 17.065 3.745 17.873 5.034zM17.981 16.159L19.461 15.794 18.051 15.221 18.157 13.705 17.174 14.867 15.761 14.296 16.567 15.588 15.584 16.749 17.065 16.387 17.873 17.675zM21.525 7.449L23.027 7.706 21.964 6.617 22.671 5.27 21.303 5.944 20.238 4.855 20.457 6.361 19.09 7.033 20.593 7.291 20.814 8.794zM21.052 12.891L22.316 13.741 21.799 12.313 23 11.377 21.475 11.429 20.956 10 20.53 11.46 19.008 11.51 20.27 12.364 19.848 13.822z"/>
        </g>
    </g>
</svg>
