<svg xmlns="http://www.w3.org/2000/svg" xmlns:xlink="http://www.w3.org/1999/xlink" width="34" height="34" viewBox="0 0 34 34">
    <defs>
        <circle id="prefix__a" cx="17" cy="17" r="17"/>
    </defs>
    <g fill="none" fill-rule="evenodd">
        <mask id="prefix__b" fill="#fff">
            <use xlink:href="#prefix__a"/>
        </mask>
        <use fill="#4A90E2" xlink:href="#prefix__a"/>
        <g mask="url(#prefix__b)">
            <g>
                <path fill="#31287B" d="M0.033 35.002L52.439 35.002 52.439 0.031 0.033 0.031z" transform="translate(-5)"/>
                <path fill="#FEFEFE" d="M12.716 28.263L15.006 30.674 14.591 27.364 17.862 27.104 15.054 25.343 16.843 22.655 13.756 23.722 12.715 20.674 11.677 23.722 8.588 22.655 10.379 25.343 7.568 27.104 10.842 27.364 10.425 30.674zM32.803 16.044L33.864 17.16 33.672 15.626 35.187 15.506 33.886 14.69 34.715 13.445 33.284 13.939 32.803 12.527 32.321 13.939 30.89 13.445 31.72 14.69 30.418 15.506 31.935 15.626 31.741 17.16zM39.551 6.612L40.612 7.729 40.419 6.195 41.935 6.076 40.634 5.26 41.463 4.014 40.033 4.508 39.551 3.096 39.069 4.508 37.638 4.014 38.468 5.26 37.166 6.076 38.683 6.195 38.489 7.729zM39.551 30.062L40.612 31.178 40.419 29.645 41.935 29.525 40.634 28.709 41.463 27.464 40.033 27.958 39.551 26.545 39.069 27.958 37.638 27.464 38.468 28.709 37.166 29.525 38.683 29.645 38.489 31.178zM22.672.032L15.885 4.561 15.885.032 10.067.032 10.067 4.563 3.276.032.033.032.033 2.194 5.388 5.768.033 5.768.033 11.567 5.388 11.567.033 15.141.033 17.303 3.275 17.303 10.067 12.771 10.067 17.303 15.885 17.303 15.885 12.773 22.674 17.303 25.915 17.303 25.915 15.14 20.561 11.567 25.915 11.567 25.915 5.768 20.561 5.768 25.915 2.195 25.915.032z" transform="translate(-5)"/>
                <path fill="#E20714" d="M8.629 11.567L.033 17.303 2.089 17.303 10.066 11.98 10.066 11.567zM23.858.032L15.885 5.353 15.885 5.768 17.318 5.768 25.915.032zM.033 1.403L6.573 5.768 8.63 5.768.033.032zM17.319 11.567L25.915 17.303 25.915 15.931 19.375 11.567z" transform="translate(-5)"/>
                <path fill="#E20714" d="M11.23 0.032L11.23 6.928 0.033 6.928 0.033 10.407 11.23 10.407 11.23 17.303 14.721 17.303 14.721 10.407 25.915 10.407 25.915 6.928 14.721 6.928 14.721 0.032z" transform="translate(-5)"/>
                <path stroke="#1D1D1B" stroke-width=".1" d="M0.031 35.002L52.437 35.002 52.437 0.031 0.031 0.031z" transform="translate(-5)"/>
            </g>
        </g>
    </g>
</svg>
