<svg xmlns="http://www.w3.org/2000/svg" xmlns:xlink="http://www.w3.org/1999/xlink" width="34" height="34" viewBox="0 0 34 34">
    <defs>
        <circle id="prefix__a" cx="17" cy="17" r="17"/>
    </defs>
    <g fill="none" fill-rule="evenodd">
        <mask id="prefix__b" fill="#fff">
            <use xlink:href="#prefix__a"/>
        </mask>
        <use fill="#4A90E2" xlink:href="#prefix__a"/>
        <g mask="url(#prefix__b)">
            <g>
                <path fill="#FEFEFE" d="M0.031 35.557L52.442 35.557 52.442 0.031 0.031 0.031z" transform="translate(-9 -1)"/>
                <g>
                    <path stroke="#1D1D1B" stroke-width=".1" d="M0.031 35.523L52.442 35.523 52.442 -0.002 0.031 -0.002z" transform="translate(-9 -1) translate(0 .034)"/>
                    <path fill="#E20714" d="M33.584 22.442c-2.555 4.108-7.918 5.341-11.976 2.753-4.06-2.586-5.275-8.014-2.72-12.122 2.556-4.107 7.918-5.34 11.977-2.753 4.057 2.587 5.275 8.016 2.719 12.122" transform="translate(-9 -1) translate(0 .034)"/>
                    <path fill="#0069B3" d="M33.584 22.442c-2.555 4.108-7.918 5.341-11.976 2.753-4.06-2.586-5.276-8.014-2.72-12.122-1.279 2.054-.669 4.768 1.36 6.06 2.028 1.295 4.71.679 5.988-1.375 1.279-2.054 3.96-2.67 5.988-1.377 2.029 1.294 2.638 4.007 1.36 6.061" transform="translate(-9 -1) translate(0 .034)"/>
                    <path fill="#1D1D1B" d="M37.352 4.516L36.36 5.192 41.434 12.828 42.427 12.152zM37.6 9.164L35.397 5.848 34.404 6.523 36.609 9.839zM37.276 10.842L39.479 14.159 40.473 13.483 38.267 10.167zM41.512 6.502L39.308 3.184 38.316 3.86 40.519 7.177zM42.179 7.505L41.188 8.18 43.39 11.496 44.382 10.82zM12.291 21.358L11.3 22.033 16.373 29.669 17.366 28.994zM12.539 26.004L10.336 22.689 9.343 23.365 11.548 26.681zM12.216 27.684L14.418 31.002 15.41 30.325 13.206 27.008zM8.379 24.02L7.388 24.695 12.462 32.332 13.454 31.656zM16.373 5.848L11.3 13.483 12.291 14.159 17.366 6.522zM14.418 4.516L9.343 12.152 10.335 12.828 15.41 5.192zM12.462 3.184L7.388 10.82 8.379 11.496 13.454 3.86zM40.472 22.033L39.48 21.358 37.276 24.674 38.267 25.35zM34.405 28.994L35.397 29.669 37.6 26.353 36.608 25.678zM42.427 23.364L41.434 22.689 39.231 26.004 40.223 26.68zM36.36 30.326L37.352 31.002 39.557 27.685 38.564 27.009zM44.382 24.695L43.39 24.02 41.187 27.336 42.179 28.012zM38.316 31.656L39.308 32.332 41.513 29.015 40.519 28.34z" transform="translate(-9 -1) translate(0 .034)"/>
                </g>
            </g>
        </g>
    </g>
</svg>
