<svg xmlns="http://www.w3.org/2000/svg" xmlns:xlink="http://www.w3.org/1999/xlink" width="34" height="34" viewBox="0 0 34 34">
    <defs>
        <circle id="prefix__a" cx="17" cy="17" r="17"/>
        <path id="prefix__c" d="M0 36.609L53.469 36.609 53.469 0.591 0 0.591z"/>
    </defs>
    <g fill="none" fill-rule="evenodd">
        <mask id="prefix__b" fill="#fff">
            <use xlink:href="#prefix__a"/>
        </mask>
        <use fill="#4A90E2" xlink:href="#prefix__a"/>
        <g mask="url(#prefix__b)">
            <g>
                <path fill="#FAB900" d="M0.031 36.618L53.438 36.618 53.438 0.663 0.031 0.663z" transform="translate(-10 -2)"/>
                <path fill="#FEFEFE" d="M0.031 36.618L53.438 36.618 53.438 12.648 0.031 12.648z" transform="translate(-10 -2)"/>
                <path fill="#009640" d="M0.031 36.618L53.438 36.618 53.438 24.629 0.031 24.629z" transform="translate(-10 -2)"/>
                <g transform="translate(-10 -2) translate(0 .04)">
                    <path fill="#009EE2" d="M31.626 19.773c-.13-.026-1.155-.234-1.732-.61-.672.015-1.463-.136-1.89-.274-.241-.077-.225-.121-.225-.121s-.004-.047.25-.06c.447-.02 1.25.038 1.896.227.652-.213 1.694-.147 1.829-.138-.193.063-.344.231-.373.447-.028.216.075.418.245.53m-.562.659c-.083.201-.035.423.1.575-.12-.06-1.055-.527-1.516-1.04-.653-.161-1.378-.512-1.755-.758-.212-.136-.187-.174-.187-.174s.01-.047.257.007c.437.095 1.198.362 1.773.712.685-.035 1.675.299 1.802.343-.202.01-.39.134-.474.335m-.613 1.065c-.132.173-.143.4-.052.582-.1-.089-.883-.784-1.195-1.398-.59-.327-1.2-.855-1.501-1.189-.17-.188-.135-.218-.135-.218s.02-.042.246.074c.398.206 1.063.661 1.53 1.149.67.144 1.54.725 1.651.801-.197-.042-.412.027-.544.2m-.866.87c-.172.132-.242.348-.2.548-.074-.111-.651-.987-.795-1.662-.485-.469-.939-1.138-1.144-1.538-.116-.227-.073-.246-.073-.246s.029-.037.217.135c.332.303.858.916 1.182 1.508.611.314 1.302 1.1 1.39 1.203-.18-.093-.406-.08-.577.051m-1.06.615c-.2.083-.325.274-.335.478-.043-.126-.375-1.123-.34-1.812-.348-.58-.614-1.343-.71-1.783-.053-.25-.007-.257-.007-.257s.038-.027.176.187c.242.379.592 1.109.753 1.764.51.462.974 1.402 1.034 1.524-.151-.136-.372-.184-.572-.101m-1.183.318c-.215.029-.383.18-.445.375-.01-.134-.074-1.183.137-1.84-.188-.649-.247-1.457-.225-1.906.013-.254.058-.25.058-.25s.044-.016.121.226c.138.43.288 1.224.274 1.9.373.58.58 1.607.606 1.741-.11-.17-.311-.274-.526-.246m-.439-9.724c.062.194.23.345.445.374.213.029.415-.075.526-.245-.027.131-.234 1.16-.607 1.74.014.675-.136 1.471-.274 1.9-.077.243-.12.226-.12.226s-.047.004-.06-.25c-.02-.45.04-1.257.226-1.906-.211-.657-.146-1.704-.136-1.839m1.627.694c.2.083.42.035.572-.1-.06.12-.524 1.06-1.034 1.523-.161.656-.51 1.385-.753 1.764-.138.214-.175.187-.175.187s-.046-.008.007-.257c.096-.44.36-1.205.709-1.783-.036-.69.297-1.683.34-1.812.012.204.134.394.334.478m1.06.615c.171.133.397.144.579.052-.089.102-.78.889-1.392 1.204-.324.592-.85 1.205-1.181 1.507-.188.172-.218.136-.218.136s-.042-.02.073-.247c.206-.4.658-1.07 1.144-1.538.143-.674.72-1.549.796-1.66-.042.199.027.414.199.546m.866.872c.13.172.346.242.545.2-.111.074-.982.655-1.654.8-.465.488-1.131.943-1.53 1.149-.225.116-.245.074-.245.074s-.035-.03.135-.22c.301-.332.911-.861 1.5-1.187.312-.614 1.095-1.309 1.197-1.398-.092.182-.08.408.052.582m.61 1.066c.084.201.274.324.476.335-.126.043-1.117.378-1.803.342-.575.351-1.335.617-1.774.713-.248.054-.255.008-.255.008s-.026-.039.186-.177c.376-.243 1.102-.596 1.755-.757.46-.512 1.394-.98 1.516-1.038-.136.152-.182.373-.1.574m.316 1.19c.028.214.18.383.372.447-.132.008-1.176.074-1.829-.139-.645.19-1.449.249-1.896.227-.254-.012-.25-.06-.25-.06s-.015-.043.226-.121c.427-.137 1.218-.289 1.89-.275.575-.375 1.599-.582 1.732-.608-.17.11-.273.312-.245.528m-4.727-.69c-.012.253-.059.25-.059.25s-.044.015-.121-.227c-.138-.43-.287-1.225-.274-1.9-.372-.58-.58-1.608-.605-1.741.11.171.311.274.525.245.215-.028.383-.18.446-.374.008.134.074 1.182-.137 1.84.186.649.247 1.456.225 1.907m-.094 6.352c-.063-.194-.23-.345-.445-.375-.215-.028-.416.076-.526.246.025-.131.233-1.16.606-1.74-.014-.676.136-1.471.273-1.9.078-.242.12-.227.12-.227s.048-.003.06.25c.022.45-.037 1.258-.224 1.907.21.657.145 1.703.136 1.839m-1.628-.693c-.2-.084-.42-.037-.57.1.057-.12.523-1.06 1.033-1.524.16-.656.51-1.386.752-1.764.138-.214.176-.188.176-.188s.046.009-.007.258c-.096.44-.36 1.204-.709 1.782.036.69-.297 1.684-.341 1.812-.011-.203-.134-.393-.334-.476m-1.06-.617c-.171-.132-.396-.144-.578-.052.088-.1.78-.888 1.39-1.202.326-.592.851-1.206 1.183-1.509.188-.17.218-.135.218-.135s.042.02-.074.247c-.206.4-.658 1.07-1.144 1.537-.143.675-.72 1.55-.795 1.662.042-.2-.028-.415-.2-.548m-.865-.871c-.133-.172-.346-.243-.545-.2.11-.075.982-.655 1.652-.8.467-.488 1.132-.943 1.531-1.15.226-.116.245-.073.245-.073s.036.03-.135.218c-.301.334-.911.863-1.5 1.189-.312.613-1.094 1.308-1.197 1.397.092-.182.08-.408-.051-.581m-.612-1.066c-.083-.201-.272-.324-.475-.336.127-.043 1.117-.377 1.803-.343.575-.349 1.336-.616 1.774-.712.247-.053.256-.006.256-.006s.026.037-.186.176c-.378.243-1.103.595-1.755.756-.46.513-1.396.98-1.516 1.04.136-.152.183-.374.1-.575m-.317-1.19c-.029-.215-.179-.384-.372-.447.132-.01 1.176-.074 1.83.139.645-.189 1.448-.25 1.896-.227.253.013.249.059.249.059s.016.044-.225.122c-.428.137-1.219.288-1.89.275-.577.375-1.6.583-1.733.608.171-.111.273-.312.245-.528m-.244-1.76c.13.025 1.155.234 1.732.61.672-.014 1.463.135 1.89.274.242.077.226.122.226.122s.004.046-.25.058c-.447.022-1.25-.037-1.896-.226-.653.213-1.695.147-1.83.138.194-.063.344-.231.373-.447.028-.216-.075-.418-.245-.529m.563-.66c.083-.202.035-.423-.1-.575.12.059 1.055.528 1.516 1.04.653.162 1.378.513 1.755.757.212.137.186.176.186.176s-.008.045-.256-.008c-.438-.096-1.198-.363-1.773-.712-.686.035-1.676-.299-1.803-.343.202-.01.391-.134.475-.336m.612-1.065c.132-.173.144-.399.051-.582.1.089.885.785 1.197 1.4.59.325 1.2.853 1.5 1.188.171.188.135.218.135.218s-.02.042-.245-.074c-.398-.207-1.064-.662-1.53-1.15-.67-.144-1.54-.724-1.653-.8.2.043.413-.027.545-.2m.866-.87c.172-.133.242-.348.2-.548.074.111.652.987.796 1.662.485.468.938 1.137 1.143 1.539.116.226.074.245.074.245s-.03.036-.217-.135c-.332-.303-.858-.917-1.183-1.508-.61-.315-1.302-1.1-1.39-1.203.18.093.406.08.577-.051m1.062-.616c.2-.083.323-.273.333-.477.043.126.376 1.122.34 1.812.35.578.614 1.343.71 1.783.053.249.007.257.007.257s-.038.027-.175-.187c-.243-.379-.593-1.108-.753-1.764-.51-.462-.975-1.402-1.034-1.524.151.136.371.184.572.1m1.796-1.137c-3.018 0-5.464 2.46-5.464 5.493 0 3.034 2.446 5.493 5.464 5.493 3.018 0 5.464-2.459 5.464-5.493 0-3.033-2.446-5.493-5.464-5.493"/>
                    <mask id="prefix__d" fill="#fff">
                        <use xlink:href="#prefix__c"/>
                    </mask>
                    <path stroke="#1D1D1B" stroke-width=".1" d="M0.031 36.577L53.438 36.577 53.438 0.622 0.031 0.622z" mask="url(#prefix__d)"/>
                </g>
            </g>
        </g>
    </g>
</svg>
