<svg xmlns="http://www.w3.org/2000/svg" xmlns:xlink="http://www.w3.org/1999/xlink" width="34" height="34" viewBox="0 0 34 34">
    <defs>
        <circle id="prefix__a" cx="17" cy="17" r="17"/>
    </defs>
    <g fill="none" fill-rule="evenodd">
        <mask id="prefix__b" fill="#fff">
            <use xlink:href="#prefix__a"/>
        </mask>
        <use fill="#4A90E2" xlink:href="#prefix__a"/>
        <g mask="url(#prefix__b)">
            <g>
                <path fill="#009640" d="M0.031 35.53L53.397 35.53 53.397 0.032 0.031 0.032z" transform="translate(-10 -1)"/>
                <path stroke="#1D1D1B" stroke-width=".1" d="M0.031 35.53L53.397 35.53 53.397 0.031 0.031 0.031z" transform="translate(-10 -1)"/>
                <path fill="#FFEC00" d="M4.574 17.78L26.715 31.968 48.856 17.78 26.715 3.593z" transform="translate(-10 -1)"/>
                <g>
                    <path fill="#009EE2" d="M19.025 9.646c0 5.078-4.143 9.193-9.255 9.193-5.113 0-9.257-4.115-9.257-9.193C.513 4.57 4.657.453 9.77.453c5.112 0 9.255 4.116 9.255 9.193" transform="translate(-10 -1) translate(16.945 8.134)"/>
                    <path fill="#FEFEFE" d="M7.67 6.272c-2.468-.338-4.709-.196-6.542.075-.142.366-.26.743-.355 1.13 1.668-.28 4.08-.516 6.752-.151 4.096.56 7.785 2.363 10.98 5.367.132-.374.24-.76.324-1.154-3.264-2.93-7.01-4.701-11.16-5.267" transform="translate(-10 -1) translate(16.945 8.134)"/>
                    <path fill="#009EE2" d="M3.231 6.397c-.142.013-.199.035-.237.086-.031.04-.048.094-.035.26.023.269.11.292.337.273.247-.02.279-.104.259-.343-.022-.258-.102-.294-.324-.276m.197.303c.003.039.008.103 0 .138-.01.056-.076.066-.14.071-.119.01-.149.002-.168-.023-.023-.032-.03-.107-.033-.158-.004-.043-.011-.13.008-.162.019-.03.052-.043.131-.049.119-.01.147-.002.168.024.025.031.03.11.034.159M3.855 6.352l.024.61.127-.005-.008-.229.196-.008c.041-.002.083-.004.086.072l.003.06c0 .032.004.063.013.092l.13-.004c-.01-.038-.016-.077-.018-.116l-.002-.056c-.003-.06-.025-.1-.085-.112.086-.032.085-.113.083-.158-.007-.168-.128-.163-.183-.16l-.366.014zm.342.099c.043-.002.074.01.076.066.003.068-.022.083-.071.086l-.214.008-.007-.15.216-.01zM4.656 6.317l-.001.61.357.001c.176 0 .228-.077.228-.308.001-.105-.008-.21-.073-.262-.05-.04-.112-.04-.157-.04h-.354zm.33.12c.09 0 .112.032.112.182 0 .167-.013.2-.112.2h-.209v-.383h.209zM6.005 6.358L6 6.473 5.636 6.456 5.629 6.583 5.979 6.599 5.973 6.71 5.625 6.693 5.618 6.83 5.99 6.847 5.985 6.962 5.486 6.939 5.514 6.336zM6.639 6.405l.103.47.192-.442.185.017-.058.601-.121-.01.03-.311.002-.023.017-.142-.2.46-.121-.01-.11-.491-.011.169-.03.307-.122-.011.059-.602.185.018zM7.853 6.751L7.841 6.826 7.601 6.792 7.588 6.877 7.819 6.909 7.809 6.981 7.578 6.949 7.565 7.039 7.812 7.074 7.8 7.15 7.471 7.103 7.528 6.705zM9.47 6.833l-.222.942.19.047.074-.311.352.088c.231.057.316-.032.365-.245.055-.23-.009-.333-.209-.382l-.55-.14zm.475.309c.075.019.123.037.093.167-.027.116-.075.125-.156.104l-.327-.082.063-.27.327.08zM10.444 7.077l-.264.79.185.048.1-.296.288.076c.058.014.12.031.087.13l-.025.077c-.015.041-.027.082-.028.124l.19.05c.003-.053.013-.104.032-.155l.024-.072c.026-.08.012-.14-.067-.18.139-.005.177-.108.197-.166.072-.218-.104-.265-.185-.287l-.534-.14zm.45.282c.063.017.102.044.078.117-.03.089-.075.097-.147.08l-.311-.083.065-.198.315.084zM11.806 7.476c-.207-.07-.303-.074-.389-.028-.068.036-.126.1-.211.335-.138.383-.031.468.3.583.36.124.459.028.581-.312.135-.367.043-.467-.28-.578m.09.53c-.022.054-.055.144-.088.187-.05.07-.146.04-.242.009-.171-.06-.208-.088-.221-.136-.013-.057.025-.162.05-.233.023-.06.067-.183.113-.213.045-.03.102-.025.217.014.172.06.207.088.22.137.014.057-.025.165-.05.235M12.597 8.078c.04-.089-.013-.111-.114-.152-.136-.057-.156-.055-.232.128-.044.107-.066.157.03.204.023.012.047.022.07.032.107.043.145.048.186-.055l-.162-.066.04-.096.277.114c-.07.167-.072.175-.108.212-.078.079-.194.03-.282-.005-.142-.06-.2-.096-.215-.169-.01-.057 0-.108.052-.235.063-.149.105-.215.21-.219.026-.001.058 0 .185.052.15.06.258.12.18.303l-.117-.048zM13.32 8.12l-.37.7.163.07.14-.264.254.108c.05.022.105.045.058.133l-.035.068c-.019.036-.037.073-.044.112l.167.072c.01-.049.028-.096.054-.142l.033-.064c.036-.07.033-.128-.032-.176.128.015.18-.076.207-.13.103-.192-.053-.259-.123-.288l-.472-.2zm.371.32c.055.023.087.054.053.119-.042.078-.085.08-.148.054l-.275-.117.093-.174.277.118zM14.526 8.777L14.471 8.878 14.149 8.708 14.09 8.82 14.396 8.983 14.345 9.081 14.036 8.917 13.972 9.037 14.3 9.212 14.246 9.313 13.806 9.079 14.092 8.547zM15.147 9.358c.035-.058.037-.082-.067-.143-.069-.041-.119-.071-.155-.01-.016.028-.017.051.027.083l.154.111c.024.017.065.053.078.1.015.05-.005.098-.025.13-.089.148-.203.101-.325.028-.137-.08-.161-.12-.172-.156-.02-.058.005-.107.042-.17l.11.064c-.04.066-.05.087.068.158.09.053.133.073.168.015.023-.039.013-.065-.018-.088l-.18-.13c-.082-.06-.073-.137-.03-.208.087-.146.206-.088.309-.027.115.068.141.104.157.137.028.06.005.105-.033.17l-.108-.064zM15.968 9.877c.038-.057.04-.082-.06-.146-.067-.045-.115-.076-.154-.018-.018.027-.02.05.022.084l.15.119c.022.018.062.055.073.103.012.052-.011.097-.032.13-.096.142-.207.09-.325.012-.132-.087-.156-.127-.165-.165-.016-.058.009-.106.05-.167l.106.07c-.042.063-.054.084.062.16.086.057.129.08.166.023.025-.037.016-.064-.014-.089l-.173-.138c-.079-.065-.066-.14-.021-.21.094-.14.21-.077.31-.012.112.074.137.11.15.145.026.06.001.104-.04.167l-.105-.068zM17.046 10.255c-.168-.121-.253-.15-.344-.131-.072.014-.142.058-.285.253-.232.314-.158.422.11.617.29.21.407.148.612-.132.222-.302.168-.418-.093-.607m-.066.511c-.033.045-.089.117-.13.15-.064.048-.146-.002-.222-.058-.139-.1-.165-.137-.162-.184.003-.056.066-.142.11-.2.035-.05.11-.152.161-.166.05-.016.098.003.193.07.138.1.162.136.16.184-.002.057-.068.146-.11.204" transform="translate(-10 -1) translate(16.945 8.134)"/>
                    <path fill="#FEFEFE" d="M2.134 7.894L1.813 7.894 2.072 8.082 1.973 8.386 2.233 8.198 2.493 8.386 2.395 8.082 2.654 7.894 2.333 7.894 2.233 7.59zM6.033 9.781L5.712 9.781 5.972 9.969 5.873 10.273 6.133 10.085 6.392 10.273 6.295 9.969 6.554 9.781 6.232 9.781 6.133 9.478zM8.444 8.067L8.266 8.067 8.409 8.171 8.354 8.34 8.5 8.236 8.643 8.34 8.588 8.171 8.731 8.067 8.554 8.067 8.5 7.899zM12.172 9.259L11.994 9.259 12.138 9.363 12.082 9.532 12.228 9.428 12.371 9.532 12.316 9.363 12.46 9.259 12.283 9.259 12.228 9.091zM9.558 11.26L9.38 11.26 9.524 11.364 9.469 11.532 9.613 11.428 9.757 11.532 9.702 11.364 9.846 11.26 9.668 11.26 9.613 11.091zM8.615 12.139L8.437 12.139 8.581 12.243 8.526 12.411 8.67 12.307 8.814 12.411 8.759 12.243 8.903 12.139 8.725 12.139 8.67 11.971zM4.787 12.792L4.609 12.792 4.753 12.896 4.698 13.064 4.843 12.961 4.986 13.064 4.931 12.896 5.075 12.792 4.897 12.792 4.843 12.623zM3.787 11.245L3.609 11.245 3.753 11.35 3.698 11.518 3.842 11.414 3.986 11.518 3.931 11.35 4.075 11.245 3.898 11.245 3.842 11.077zM1.845 12.692L1.667 12.692 1.811 12.797 1.755 12.965 1.9 12.861 2.043 12.965 1.989 12.797 2.132 12.692 1.955 12.692 1.9 12.524zM4.401 13.715L4.223 13.715 4.367 13.818 4.312 13.986 4.457 13.882 4.6 13.986 4.545 13.818 4.689 13.715 4.512 13.715 4.457 13.546zM9.558 12.891L9.38 12.891 9.524 12.995 9.469 13.163 9.613 13.059 9.757 13.163 9.702 12.995 9.846 12.891 9.668 12.891 9.613 12.723zM10.686 12.011L10.508 12.011 10.652 12.115 10.597 12.284 10.742 12.18 10.886 12.284 10.83 12.115 10.974 12.011 10.796 12.011 10.742 11.843zM11.672 14.821L11.494 14.821 11.638 14.924 11.583 15.093 11.727 14.989 11.87 15.093 11.816 14.924 11.96 14.821 11.783 14.821 11.727 14.652zM13.172 15.09L12.994 15.09 13.137 15.194 13.083 15.363 13.226 15.259 13.37 15.363 13.316 15.194 13.46 15.09 13.282 15.09 13.226 14.922zM14.3 14.892L14.123 14.892 14.266 14.996 14.211 15.164 14.355 15.06 14.499 15.164 14.445 14.996 14.588 14.892 14.411 14.892 14.355 14.723zM15.229 15.048L15.05 15.048 15.195 15.152 15.14 15.32 15.284 15.216 15.427 15.32 15.373 15.152 15.517 15.048 15.339 15.048 15.284 14.879zM15.972 14.593L15.793 14.593 15.938 14.698 15.883 14.866 16.027 14.762 16.17 14.866 16.116 14.698 16.26 14.593 16.082 14.593 16.027 14.425zM16.486 13.956L16.309 13.956 16.452 14.059 16.397 14.227 16.541 14.123 16.685 14.227 16.63 14.059 16.774 13.956 16.596 13.956 16.541 13.787zM17.314 13.118L17.137 13.118 17.28 13.222 17.225 13.39 17.369 13.286 17.513 13.39 17.459 13.222 17.603 13.118 17.425 13.118 17.369 12.95zM14.343 15.956L14.165 15.956 14.309 16.059 14.254 16.228 14.399 16.124 14.541 16.228 14.487 16.059 14.631 15.956 14.454 15.956 14.399 15.787zM14.343 16.863L14.165 16.863 14.309 16.968 14.254 17.136 14.399 17.032 14.541 17.136 14.487 16.968 14.631 16.863 14.454 16.863 14.399 16.695zM9.529 17.034L9.352 17.034 9.496 17.137 9.44 17.306 9.585 17.202 9.728 17.306 9.673 17.137 9.818 17.034 9.64 17.034 9.585 16.866zM5.733 14.527L5.412 14.527 5.672 14.715 5.573 15.019 5.833 14.831 6.093 15.018 5.994 14.715 6.253 14.527 5.933 14.527 5.833 14.223zM9.526 13.912L9.204 13.912 9.464 14.099 9.365 14.404 9.626 14.215 9.885 14.403 9.787 14.099 10.047 13.912 9.725 13.912 9.626 13.608zM12.509 6.736L12.207 6.63 12.389 6.893 12.194 7.147 12.501 7.056 12.684 7.319 12.693 7 13.001 6.908 12.698 6.801 12.705 6.483zM12.354 16.06L12.032 16.06 12.293 16.249 12.194 16.553 12.453 16.365 12.714 16.552 12.615 16.249 12.875 16.06 12.554 16.06 12.453 15.758zM16.125 12.784L15.803 12.784 16.064 12.971 15.965 13.276 16.225 13.087 16.484 13.275 16.387 12.971 16.646 12.784 16.324 12.784 16.225 12.48zM2.919 11.895L2.598 11.895 2.857 12.083 2.759 12.387 3.019 12.199 3.28 12.386 3.18 12.083 3.44 11.895 3.119 11.895 3.019 11.591z" transform="translate(-10 -1) translate(16.945 8.134)"/>
                </g>
            </g>
        </g>
    </g>
</svg>
