<svg xmlns="http://www.w3.org/2000/svg" xmlns:xlink="http://www.w3.org/1999/xlink" width="34" height="34" viewBox="0 0 34 34">
    <defs>
        <circle id="prefix__a" cx="17" cy="17" r="17"/>
    </defs>
    <g fill="none" fill-rule="evenodd">
        <mask id="prefix__b" fill="#fff">
            <use xlink:href="#prefix__a"/>
        </mask>
        <use fill="#4A90E2" xlink:href="#prefix__a"/>
        <g mask="url(#prefix__b)">
            <g>
                <path fill="#006C35" d="M0 35L53 35 53 0 0 0z" transform="translate(-9)"/>
                <path fill="#FFF" d="M32.65 26.107h.002c.66.029 1.281.005 1.941.034.105.08.053.263-.015.297l-.012.004h-.018l-.553-.015c0-.01-.002-.02-.005-.028-.05-.135-.42-.126-.506-.02l-.005.006-.004.008-.005.01-.002.014c0 .005-.003.011-.002.017-.29.03-.55-.01-.84-.019-.086-.095-.076-.267.024-.308zm-.307-1.467l-.003.002c-.428.099-.415.498-.14.674-4.526 0-11.472-.07-12.961-.07-.834 0-3.47-.089-3.521-.089.565.743 1.384.894 2.456.91 2.01 0 11.326-.023 13.977-.023-.189.3.017.784.164.872l.012.007.018.006h.007c.175.037.253-.077.311-.16.285.022 1.888.043 2.034-.003l.003-.002c.099.131.197.255.386.234.33-.064.59-.096.599-.698 0 0-.034-1.026-.784-.962-.178.024-.676.069-.676.069-.577-.062-1-.068-1.647-.09.06-.067.165-.344.036-.444-.034-.025-.084-.039-.154-.034h-.007l-.002-.002-.007-.002-.011-.01-.005-.004c-.032-.043-.05-.148-.072-.175l-.002-.002-.002-.002-.005-.002h-.002-.002zm3.871-7.038c-.053.001-.11.008-.192.014-.088.017-.12.052-.135.148.006.146.105.14.207.197.06.067.098.128-.004.24-.097.079-.166.123-.262.202-.046.07-.074.178.065.211.258.065.855-.283.855-.29.096-.065.064-.188.056-.188-.056-.058-.184-.024-.269-.033-.04 0-.174-.018-.11-.124.052-.066.072-.105.108-.186.04-.08.005-.134-.14-.177-.074-.012-.125-.016-.179-.014zm-9.267-.31c-.032-.002-.065.002-.1.018-.006 0-.304.18-.4.306-.058.04-.051.075-.033.144.045.094.125.065.217.02.12-.014.179.057.17.187-.057.163.024.223.024.233 0 .01.116.1.253.029.288-.1.468-.195.872-.274.106-.002.1-.257-.068-.266-.218.01-.42.02-.64.175-.134.028-.157-.046-.187-.112-.034-.164.077-.279.055-.402.006.006-.068-.054-.163-.059zm-14.474-.798c-.018 0-.054.048-.101.103-.425.608-.463 1.515-.229 1.785.125.128.33.185.482.145.266-.104.384-.59.32-.767-.089-.126-.16-.145-.248-.039-.188.342-.266.108-.283-.083-.028-.363.01-.697.055-.962.023-.136.022-.183.004-.182zm11.276-.44H23.78c.287.07.712.077 1.08.11.3.018.448.229.167.317-.277.086-.543.152-.545.512.037.178.03.271-.002.314l-.009.01-.002.002-.002.002-.003.002-.002.002-.004.002-.014.007-.013.001c-.066.01-.162-.047-.233-.08-.171-.11-.65-.377-.719-.95-.01-.13.098-.24.271-.252zm-4.616-.567c-.113.007-.213.061-.168.203-.006.103.318.228.337.467.046.098-.07.413.027.442.089.033.211-.218.258-.45.026-.128-.111-.574-.344-.654-.035-.007-.073-.01-.11-.008zm15.424-.625c-.127.014-.247.122-.192.294-.035.102.173.456.226.644.049.133-.062.512.039.551.092.045.336-.224.327-.561.027-.174-.069-.813-.312-.922-.028-.007-.058-.009-.088-.006zm-18.161-.255c.07 0 .144.032.183.12.035.08.001.165-.04.207v.002c-.002 0-.003.003-.003.004-.03.034-.135.02-.21.02-.091-.003-.136-.017-.19-.083-.026-.074.053-.146.088-.2 0-.002.002-.003.002-.003l.016-.016c.027-.023.074-.043.124-.049l.03-.002zm-2.314-.288c-.714.012-1.76.84-1.788 1.3.754-.324 1.494-.637 2.26-.973-.124-.166-.008-.316-.472-.327zm12.07-.223c.055-.006.13.011.2.048.103.054.167.135.158.193v.006c0 .002-.003.005-.004.006l-.002.006-.003.005-.002.003c-.003.006-.009.01-.013.015-.05.041-.164.035-.272-.02-.102-.053-.164-.135-.158-.193l.003-.006c.001-.008.004-.014.009-.02.001-.003.002-.007.004-.009l.002-.002.011-.01c.017-.012.04-.02.066-.022zm8.674-.13c-.008-.002-.017-.002-.025.001 0 0-1.378.88-1.413.911-.136.11-.068.493 0 .449.1.034 1.487-.81 1.46-.91.06.004.09-.434-.022-.452zm-9.977-.368c-.054.008-.106.048-.124.114-.012.042.023.114-.02.136-.026.022-.122.009-.118-.11 0-.038-.031-.08-.05-.104-.019-.01-.03-.014-.063-.014-.042.002-.043.012-.066.043-.01.032-.022.063-.022.1-.006.042-.022.056-.057.062-.039 0-.03.004-.06-.014-.02-.018-.044-.025-.044-.057s-.007-.084-.018-.105c-.016-.02-.045-.028-.074-.035-.163 0-.173.166-.163.23-.012.011-.02.31.2.393.298.127 1.007.052.835-.36 0-.037-.012-.165-.016-.2-.03-.063-.087-.087-.14-.079zm-2.472-.349l-.012.006-.006.004c-.03.02-.064.065-.14.114-.13.132-.153.224-.145.489.007.028.246.623.447 1.04.136.435.262.933.17 1.403-.319.62-.96 1.178-1.577 1.48-.316.091-.587.06-.66-.001l-.003-.002c-.18-.11-.185-.304-.174-.337v-.002l.003-.002c.521-.326 1.117-.59 1.584-1.471.138-.337.18-.539.043-1.06-.054-.193-.12-.353-.267-.49l.002-.002c.09-.038.32.114.355.018-.054-.249-.242-.582-.454-.753-.186-.151-.388-.169-.558-.03-.192.095-.233.44-.14.74.102.227.379.267.576.723v.002c.004.028.067.34-.032.466-.08.226-1.115.959-1.189 1.003l-.006.004-.002.002-.003.002-.002.002h-.004l-.003-.002v-.002l-.002-.004c-.003-.019.002-.065 0-.14-.007-.138.056-.448.052-.502v-.001l-.002-.002v-.003h-.003c-.342.199-.455.807-.517.987-.866.537-1.85.936-2.416 1.48-.295.414 2.033-.474 2.303-.582l.007.006c.051.051.056.228.21.388.242.294.756.476 1.256.363.84-.272 1.323-.785 1.815-1.355.07-.092.18-.164.282-.093.339.68 1.314 1.163 2.574 1.213.292-.319.152-.475.034-.542-.036-.022-.627-.228-.718-.434-.058-.192.082-.361.363-.49.81-.087 1.605-.185 2.375-.407.008-.232.16-.58.262-.73.071-.105.117-.115.134-.13l.002-.002.002-.002.003-.002v-.004c0-.005 0-.013-.003-.02l-.13-.07-2.584-.01c-.031-.01-.055-.022-.07-.032l-.004-.004-.002-.002-.003-.002-.002-.004-.002-.002v-.002l-.003-.002v-.017l.003-.002.002-.004c.013-.015.043-.03.081-.042.617-.076 1.713-.237 1.786-1.183-.012-.493-.235-.816-.909-.905-.495.034-.848.464-.79.937-.024.128.047.378-.098.406-.95.078-1.985.612-2.02.994h-.002l-.003.002-.004.002h-.005l-.006.002h-.01-.004l-.01-.002c-.06-.015-.14-.107-.128-.235-.036-.66-.275-1.409-.65-1.984-.134-.12-.193-.17-.231-.175H22.377zm11.687-.875c-.146-.006-.302.08-.342.258.001.106.054.164.043.26-.015.055-.078.09-.228.026.024-.02-.097-.172-.097-.172-.117-.064-.273.003-.375.063-.056.091-.098.248-.034.408.168.278.744.754 1.019.758.005-.25.032-.585.048-.793.006-.078.026-.165.11-.185.084-.02.23.076.23-.006-.015-.16-.05-.395-.15-.507-.052-.069-.137-.106-.224-.11zm-14.12-.058c-.036-.004-.084.008-.14.038-.262.128-.364.507-.2.729.153.195.395.123.427.123.257.03.411-.434.411-.434s.008-.13-.298.116c-.129.022-.147-.02-.179-.085-.026-.12-.02-.243.04-.364.03-.072.001-.118-.06-.123zm9.988-.09c-.053.009-.105.05-.124.116-.012.043.023.112-.02.134-.025.022-.121.01-.118-.11 0-.038-.03-.08-.05-.103-.018-.011-.03-.014-.065-.014-.041.001-.04.011-.063.042-.01.032-.023.064-.023.1-.005.042-.022.056-.056.063-.04 0-.032.004-.064-.015-.018-.018-.04-.025-.04-.056 0-.033-.01-.084-.02-.106-.017-.02-.043-.027-.073-.034-.162 0-.172.166-.163.229-.012.012-.02.311.202.394.297.127.857.071.833-.36 0-.038-.011-.166-.015-.2-.03-.064-.087-.088-.14-.08zm-2.187-.965c.013.05.026.102.034.154.028.112.053.224.079.335-.11-.136-.2-.246-.24-.284-.248-.265.006-.174.127-.205zm9.495-.211c-.139-.005-.29.09-.23.276-.035.101.296.445.35.633.048.133-.074.564.027.604.093.045.223-.298.271-.615.027-.173-.116-.782-.36-.89-.018-.005-.038-.008-.058-.008zm-17.174-.4c.07-.007.154.05.195.132.043.086.022.169-.05.184-.072.016-.164-.04-.208-.127-.044-.087-.022-.171.05-.187l.013-.002zm9.258-.292c-.152-.004-.32.082-.255.253-.038.094.327.411.386.585.106.266-.08.521.03.558.101.04.243-.276.296-.568.061-.237-.127-.722-.393-.822-.02-.005-.042-.006-.064-.006zm-11.883-.006c-.043.005-.091.027-.147.038-.185.053-.357.196-.303.475.218 1.19.36 2.099.579 3.289.033.14-.097.323-.265.304-.285-.173-.356-.524-.843-.509-.352.004-.754.348-.804.68-.059.263-.08.549 0 .779.248.267.544.239.804.178.214-.079.39-.268.466-.223h.002v.002c.047.073-.004.693-1.008 1.17-.616.25-1.107.309-1.372-.143-.163-.283.012-1.359-.39-1.11-1.192 2.757 2.79 3.142 3.236.114.028-.086.116-.171.178-.15.027.01.052.043.061.105-.092 2.742-3.08 2.93-3.588 2.068-.126-.204-.164-.656-.177-.928-.023-.164-.069-.258-.122-.296-.12-.082-.283.131-.318.501-.05.298-.037.38-.037.666.16 2.166 4.006 1.235 4.63-.554.31-.925-.006-1.623.098-1.708l.004-.003.005-.002.005-.002.013-.002c.382.37.918.047 1.035-.08.05-.065.176-.106.264-.023.298.192.82.101.929-.237.063-.332.116-.673.129-1.027-.194.054-.35.095-.414.154-.015.015-.026.031-.029.049l-.05.294c-.002.008-.004.016-.009.022-.008.012-.022.024-.036.03-.068.034-.188.015-.194-.074-.093-.377-.472-.426-.703.158-.155.113-.438.135-.468-.035.038-.391-.138-.444-.49-.26-.113-.775-.226-1.516-.339-2.292.147-.004.281.092.416-.059-.146-.405-.453-1.231-.626-1.308l-.005-.003-.025-.022-.01-.008-.012-.006-.023-.008c-.016-.004-.031-.006-.047-.004zm-3.049-.004c-.084.008-.163.07-.2.152-.015.29-.017.579.02.846.146.468.193.88.264 1.36.02.641-.413.277-.393-.041.1-.414.073-1.065-.016-1.23-.07-.165-.152-.206-.323-.178-.136-.008-.487.336-.585.904 0 0-.082.292-.118.552-.048.294-.265.502-.416-.04-.13-.394-.21-1.366-.429-1.138-.063.758-.137 2.092.58 2.23.869.074.39-1.318.704-1.571.059-.125.17-.127.178.03v1.183c-.008.385.274.5.493.579.227-.016.378-.01.467.188l.109 2.047s.526.136.551-1.15c.025-.755-.167-1.389-.054-1.536.004-.144.21-.151.353-.081.226.144.327.32.68.25.536-.133.86-.367.867-.737-.03-.352-.076-.703-.246-1.055.024-.064-.103-.23-.08-.294.097.135.243.124.277 0-.092-.27-.234-.53-.464-.641-.19-.15-.467-.119-.569.194-.047.361.146.79.438 1.139.062.136.15.363.111.568-.156.08-.31.046-.44-.078 0 0-.428-.286-.428-.35.114-.652.025-.726-.038-.907-.044-.25-.176-.329-.283-.5-.106-.101-.251-.101-.32 0-.19.294-.1.925.036 1.208.098.26.25.422.178.422-.058.147-.18.113-.268-.057-.126-.35-.152-.872-.152-1.108-.038-.292-.08-.915-.294-1.073-.057-.07-.124-.094-.19-.087zm16.16-.056c-.03.003-.067.044-.122.15-.134.198-.225.541-.215.863.29 1.806.38 3.386.57 5.192.015.175-.014.428-.143.53-.478.448-1.168 1.001-1.918 1.256-.081.08.2.428.565.428.608-.064 1.144-.37 1.64-1.18.133-.188.366-.591.373-.904.046-1.834-.103-3.26-.409-4.586-.02-.129-.006-.281.018-.32.04-.042.173 0 .244-.104.104-.095-.278-.886-.495-1.19-.043-.077-.07-.138-.108-.135zm-10.431-.004c-.103.005-.194.031-.271.067-.197.17-.244.442-.088.611.15.064.301.2.2.276-.426.41-1.539 1.094-1.595 1.22l-.002.003v.006l.002.005.003.001h.002l.002.003h.002l.003.002c.056.034.752.033.829.002l.002-.002h.003v-.002c.239-.08 1.373-1.244 1.373-1.244-.059-.045-.113-.079-.171-.124-.063-.049-.057-.097 0-.146.28-.147.192-.47.045-.617-.122-.049-.236-.065-.34-.06zm-3.99-.004c-.055.009-.106.048-.125.114-.012.043.02.114-.023.136-.024.022-.119.007-.115-.112 0-.038-.031-.077-.05-.101-.018-.011-.031-.014-.065-.014-.042.001-.04.011-.063.042-.01.032-.024.063-.024.1-.005.042-.024.056-.058.062-.04 0-.03.004-.061-.014-.019-.018-.041-.025-.041-.057s-.01-.084-.02-.105c-.017-.02-.043-.03-.073-.037-.162 0-.174.169-.165.232-.012.012-.018.309.204.391.297.128.855.074.831-.357 0-.038-.009-.166-.013-.2-.03-.064-.087-.088-.14-.08zm15.548-.038c-.025.004-.062.038-.131.12-.17.499-.23.907-.165 1.217.437 2.047.885 3.913.814 5.862.207 0 .446-.426.549-.849.056-.582-.038-.936-.055-1.278-.016-.342-.43-3.117-.515-3.376-.101-.49.403-.064.348-.349-.174-.359-.61-.881-.745-1.193-.052-.083-.058-.16-.1-.154zm6.386-.03c-.03.002-.066.045-.122.152-.134.197-.18.55-.126.862.322 1.96.562 3.86.612 5.598-.028.165-.036.252-.122.46-.19.22-.4.495-.599.627-.198.133-.62.26-.757.357-.437.227-.44.488-.086.498.61-.064 1.33-.109 1.826-.782.133-.188.29-.7.296-1.012.047-1.834-.026-3.627-.332-4.953-.02-.13-.083-.426-.059-.465.04-.09.239.01.31-.095.104-.095-.516-.807-.732-1.112-.044-.076-.07-.14-.109-.136zm-25.085-.003c-.131-.004-.276.07-.22.21-.032.078.257.338.308.482.045.102-.045.43.05.46.087.034.207-.227.253-.468.025-.133.006-.585-.337-.678-.018-.004-.036-.006-.054-.006zm22.02-.02c-.036-.006-.076.01-.121.07-.087.068-.18.191-.177.35.021.278.076.563.098.841l.022.112c-.033-.038-.062-.068-.08-.083-.604-.57.279-.093-.114-.534-.332-.327-.43-.432-.714-.629-.143-.083-.23-.24-.276.029-.019.236-.038.51-.02.71-.001.11.126.32.237.442.403.445.815.918 1.23 1.412.086 1.008.11 1.931.198 2.94-.012.432-.16 1.005-.3 1.06 0 0-.214.11-.358-.013-.104-.037-.52-.623-.52-.623-.212-.175-.354-.125-.505 0-.418.362-.607 1.04-.89 1.508-.074.104-.28.193-.51-.008-.581-.714-.24-1.73-.313-1.47-.519.525-.29 1.394-.172 1.581.17.307.31.504.642.656.303.2.539.075.669-.065.305-.284.308-1.01.452-1.153.1-.263.351-.218.474-.101.119.153.26.253.434.337.284.225.624.266.958.06.229-.114.377-.264.51-.56.144-.344.073-2.151.042-3.157.214.272.426.55.637.83.092.883.134 1.752.104 2.585-.022.166.644-.495.64-.807-.004-.274 0-.522 0-.753.322.463.635.933.93 1.41.183-.087.12-1.018.005-1.146-.31-.466-.706-.97-1.013-1.36-.06-.492-.143-1.072-.18-1.25-.059-.277-.118-.693-.206-1.022-.024-.129-.098-.539-.075-.579.036-.091.173.004.24-.103.1-.098-.348-1.143-.576-1.44-.082-.134-.23-.088-.414.13-.17.142-.108.468-.043.778.169.79.32 1.596.438 2.399-.22-.295-.49-.65-.754-.995l-.034-.156c0-.014-.037-.646-.068-.797-.005-.061-.022-.079.05-.071.076.057.086.06.133.079.077.013.143-.103.097-.21l-.71-1.178c-.028-.025-.06-.051-.096-.057zm-8.532-.08c-.076.006-.136.046-.158.146-.03.236-.015.364.03.56.033.131.245.35.35.477.498.602.978 1.207 1.441 1.832.073.465.126.92.16 1.372.076.992.098 2.228.03 3.273.207.007.539-.3.655-.751.076-.623-.027-1.895-.034-2.262-.005-.153-.015-.335-.027-.526.54.79 1.062 1.629 1.575 2.549.187-.08.146-1.026.036-1.159-.41-.794-.978-1.578-1.159-1.879-.065-.109-.288-.412-.551-.763-.049-.5-.101-.923-.136-1.05-.085-.53.242.059.197-.248-.106-.528-.43-.887-.814-1.37-.123-.157-.12-.19-.312.039-.114.232-.112.425-.079.606-.05-.065-.112-.143-.2-.24-.332-.254-.352-.268-.627-.476-.086-.055-.251-.14-.377-.13zm-2.879-.046c-.073.005-.155.082-.222.23-.056.114-.126.705-.115.705-.045.176.205.25.319.024.17-.414.172-.59.183-.767-.027-.133-.091-.198-.165-.192zm.78-.055c-.048.006-.106.06-.186.19-.057.138-.305.345-.126.772.146.27.206.71.14 1.2-.102.14-.125.188-.258.328-.187.18-.39.134-.544.067-.145-.088-.26-.133-.326-.412.012-.445.041-1.173-.05-1.327-.133-.24-.353-.154-.447-.081-.452.37-.675.997-.811 1.495-.126.363-.259.258-.353.111-.228-.191-.244-1.693-.52-1.446-.44 1.132.254 2.373.735 2.252.347.129.567-.464.71-1.114.097-.182.17-.203.221-.11-.013.864.069 1.057.316 1.32.552.382 1.009.048 1.044.016l.43-.386c.095-.09.222-.096.357-.016.131.107.114.292.395.42.237.085.742.02.859-.162.157-.243.196-.326.269-.418.112-.135.305-.075.305-.033-.018.075-.131.15-.054.284.133.09.165.032.244.012.28-.12.49-.665.49-.665.012-.204-.116-.188-.199-.146-.107.059-.114.079-.221.138-.137.018-.402.1-.534-.083-.134-.22-.134-.526-.237-.747 0-.016-.179-.348-.013-.37.083.015.263.056.291-.079.088-.13-.189-.503-.377-.691-.164-.162-.39-.181-.608-.017-.153.127-.13.268-.16.402-.04.154-.032.345.142.548.153.27.43.618.339 1.108 0 0-.162.233-.445.203-.119-.024-.311-.07-.414-.749-.078-.514.02-1.235-.224-1.572-.055-.128-.102-.252-.18-.242zM21.904 10c-.027 0-.07.013-.128.045-.132.079-.394.324-.403.606-.008.16-.041.159.075.26.084.109.168.098.337.018.097-.064.13-.105.162-.213.04-.18-.211.086-.244-.115-.056-.187.105-.264.258-.445.003-.085.005-.155-.057-.156z" transform="translate(-9)"/>
            </g>
        </g>
    </g>
</svg>
