<svg xmlns="http://www.w3.org/2000/svg" xmlns:xlink="http://www.w3.org/1999/xlink" width="34" height="34" viewBox="0 0 34 34">
    <defs>
        <circle id="prefix__a" cx="17" cy="17" r="17"/>
    </defs>
    <g fill="none" fill-rule="evenodd">
        <mask id="prefix__b" fill="#fff">
            <use xlink:href="#prefix__a"/>
        </mask>
        <use fill="#039" xlink:href="#prefix__a"/>
        <g mask="url(#prefix__b)">
            <g>
                <path fill="#039" d="M0 33L50 33 50 0 0 0z" transform="translate(-8)"/>
                <path fill="#FC0" d="M25.764 6.472L27 5.528 25.472 5.528 25 4 24.528 5.528 23 5.528 24.236 6.472 23.764 8 25 7.056 26.236 8zM25.764 27.472L27 26.528 25.472 26.528 25 25 24.528 26.528 23 26.528 24.236 27.472 23.764 29 25 28.056 26.236 29zM14.764 16.472L16 15.528 14.472 15.528 14 14 13.528 15.528 12 15.528 13.236 16.472 12.764 18 14 17.056 15.236 18zM20.764 7.472L22 6.528 20.472 6.528 20 5 19.528 6.528 18 6.528 19.236 7.472 18.764 9 20 8.056 21.236 9zM16.764 11.472L18 10.528 16.472 10.528 16 9 15.528 10.528 14 10.528 15.236 11.472 14.764 13 16 12.056 17.236 13zM16.764 22.472L18 21.528 16.472 21.528 16 20 15.528 21.528 14 21.528 15.236 22.472 14.764 24 16 23.056 17.236 24zM20.764 26.472L22 25.528 20.472 25.528 20 24 19.528 25.528 18 25.528 19.236 26.472 18.764 28 20 27.056 21.236 28zM36.764 16.472L38 15.528 36.472 15.528 36 14 35.528 15.528 34 15.528 35.236 16.472 34.764 18 36 17.056 37.236 18zM30.764 7.472L32 6.528 30.472 6.528 30 5 29.528 6.528 28 6.528 29.236 7.472 28.764 9 30 8.056 31.236 9zM34.764 11.472L36 10.528 34.472 10.528 34 9 33.528 10.528 32 10.528 33.236 11.472 32.764 13 34 12.056 35.236 13zM34.764 22.472L36 21.528 34.472 21.528 34 20 33.528 21.528 32 21.528 33.236 22.472 32.764 24 34 23.056 35.236 24zM30.764 26.472L32 25.528 30.472 25.528 30 24 29.528 25.528 28 25.528 29.236 26.472 28.764 28 30 27.056 31.236 28z" transform="translate(-8)"/>
            </g>
        </g>
    </g>
</svg>
