<svg xmlns="http://www.w3.org/2000/svg" xmlns:xlink="http://www.w3.org/1999/xlink" width="34" height="34" viewBox="0 0 34 34">
    <defs>
        <circle id="prefix__a" cx="17" cy="17" r="17"/>
    </defs>
    <g fill="none" fill-rule="evenodd">
        <mask id="prefix__b" fill="#fff">
            <use xlink:href="#prefix__a"/>
        </mask>
        <use fill="#4A90E2" xlink:href="#prefix__a"/>
        <g mask="url(#prefix__b)">
            <g>
                <path fill="#5291CD" d="M0 37L53 37 53 1 0 1z" transform="translate(-10 -1)"/>
                <g>
                    <path stroke="#1D1D1B" stroke-width=".25" d="M0.031 35.969L53.782 35.969 53.782 0.217 0.031 0.217z" transform="translate(-10 -1)"/>
                    <path fill="#FEFEFE" d="M23.584 16.834c.093.068.155.155.098.274-.02.041-.028.075-.023.1.006.026.003.04-.009.056-.01.017-.014.04-.003.054.011.014.008.039.002.058-.005.02 0 .05.022.065.023.014.007.05-.014.025-.033-.04-.066-.012-.084-.054-.052-.126-.03-.177-.014-.26.014-.084.027-.182-.01-.25-.035-.067.01-.086.035-.068M23.46 17.23c-.022-.034-.05-.024-.048.013.003.036.033.098.058.11.025.01.03-.011.02-.037-.021-.047-.023-.077-.03-.087M23.718 17.358c-.003.024.015.038.034.028.019-.01.02-.03.002-.038-.017-.009-.033-.005-.036.01M23.795 17.262c-.025.012-.004.038.023.034.027-.004.04-.065-.023-.034M23.547 17.48c.03.04.054.058.086.066.03.009.043.04.052.062.008.02.026.065.016.088-.011.023-.018.053-.016.078.002.025.004.069-.057.016-.06-.053-.081-.102-.097-.175-.016-.074-.02-.1-.024-.12-.004-.021.021-.04.04-.015M23.66 17.933c.028.033.089.018.05-.033-.04-.051-.08-.005-.05.033M23.725 18.051c-.021-.002-.024.021.002.021.025 0 .023-.019-.002-.02M23.78 18.18c-.012.012-.025.025-.03.037-.003.013.011.021.018.007.006-.015.013-.03.02-.036.01-.006.001-.017-.007-.008M23.567 18.319c-.034 0-.064.03-.07.062-.007.032.016.04.031.017s.043-.044.06-.05c.016-.006-.002-.03-.021-.03" transform="translate(-10 -1)"/>
                    <path fill="#FEFEFE" d="M23.038 17.19c.05.064.041.089.02.135-.022.046-.014.084.057.135.072.051.067.093.15.178.084.085.033.11-.021.096-.055-.013-.08-.005-.094.054-.013.059.008.076.13.026.083-.033.093.043.084.085-.009.042-.017.076.016.105.034.03.042.05.016.067-.025.017.008.072.037.106.03.034.063.042.033.08-.03.037-.004.067-.018.134-.013.067.037.072.032.219-.002.046.003.16.09.27.088.11.083.164.095.273.011.11.007.118-.09.176-.098.058-.103.146.028.126.127-.02.26.078.292.297.012.08.196.22.36.54.041.079.02.1-.054.17-.074.069-.144.066-.17.054-.024-.011-.07-.028-.117-.004-.048.025-.073-.045-.181.028-.068.046-.165.058-.292.102-.127.046-.27-.006-.298-.07-.03-.062-.113-.11-.196-.182-.084-.072-.172-.144-.328-.061-.157.083-.27.014-.316-.04-.045-.056-.096-.098-.234-.141-.139-.044-.117-.102-.188-.157-.047-.037-.071-.077-.041-.152.03-.075-.037-.114-.08-.026-.043.088-.14.062-.173.015-.033-.046-.066-.076-.12-.123-.055-.046-.096-.126-.096-.177 0-.05-.025-.059-.1-.051-.076.008-.068-.034-.05-.063.017-.03.004-.064-.012-.102-.017-.037-.05-.059-.084-.055-.034.004-.03.034-.013.084.016.05-.072.02-.08-.022-.008-.042-.02-.038-.046-.05-.025-.013-.046-.043-.054-.08-.008-.038-.067-.043-.072.003-.004.046-.017.08-.11.041-.092-.039-.1-.11-.141-.14-.042-.03-.042-.067-.105-.051-.03.007-.038.004-.084-.035-.076-.062-.079-.126-.078-.231-.059-.047-.062-.152-.04-.19.02-.037.026-.08.022-.125-.004-.047.03-.076.101-.092.072-.016.11-.012.131.005.02.017.054.026.071.014.017-.013.051-.017.089-.033.038-.017.072-.042.051-.067-.02-.025.013-.042.072-.062.06-.02.097-.02.16.06.062.08.113.051.18.04.068-.013.224.005.337.019.114.014.203-.049.278-.048.076 0 .094-.075.111-.142.018-.067.01-.1-.007-.126-.017-.025-.02-.08.01-.113.03-.034.017-.072.009-.105-.009-.034.013-.1.039-.13.025-.03.055-.092.068-.138.013-.046.065-.13.102-.155.039-.025.068-.058.09-.112.045-.114.16-.104.266-.074.105.03.222.095.277.133.054.038.088.03.155-.003.068-.033.062-.06.002-.122l.122-.02z" transform="translate(-10 -1)"/>
                    <path fill="#FEFEFE" d="M26.331 14.983c.027-.017.006-.05.051-.08.03-.02.02-.048.074-.062.031-.008.028-.028.009-.047-.02-.02-.04-.015-.04.005s-.02.036-.05.044c-.031.008-.006.04-.04.05-.034.011-.102.109-.134.195-.015.043-.053.025-.056-.003-.002-.028-.02-.031-.036-.01-.017.02-.01.067.02.071.03.005.046.018.038.039-.009.02-.056.066-.09.079-.033.012-.071.02-.084.045-.013.025-.038.042-.068.033-.03-.008-.063.016-.1.033-.039.016-.114.011-.174.008-.061-.003-.101.044-.148.065-.046.02-.172.015-.24.002-.067-.013-.11.032-.164.015-.03-.01-.068.008-.088-.022-.021-.03.013-.063.072-.096.06-.033-.02-.046-.058-.046-.038 0-.076-.047-.151-.09-.042-.023-.092-.051-.155-.064-.063-.014-.089.028-.148.007-.059-.022-.105.016-.147.045-.043.029-.157.045-.207.036-.05-.009-.147-.002-.215.06-.068.063-.097-.004-.165.083-.068.088.02.11.092.073.072-.038.186-.083.29-.06.055.01-.021.108-.059.095-.038-.013-.135.058-.164.033-.03-.026-.06-.022-.093-.001-.034.02-.076-.01-.13.036-.04.033-.115.062-.145.054-.029-.01-.054-.017-.097.016-.042.033-.055.113-.08.146-.026.033-.073.083-.078.121-.004.038-.025.063-.05.088-.026.025-.044.095-.033.173.01.079-.03.14-.058.168-.028.028-.051.066-.096.11-.046.045-.069.135-.07.19 0 .057-.017.096-.054.137-.094.108-.018.101-.107.256-.03.052-.044.142.01.197l.123-.02c-.05-.063-.053-.206.099-.213.151-.007.153-.036.165-.154.01-.092.018-.117.098-.117.08.001.089.009.121.035.038.03.119-.029.073-.092s.003-.106-.07-.13c-.026-.01-.02-.044-.063-.052-.025-.004-.016-.1-.016-.147.001-.092.06-.134.12-.154.059-.02.126-.033.19-.015.062.017.13.047.13.093-.001.046.015.105.031.127.017.02.033.1-.01.138-.042.037-.064.134-.017.168.046.034.075.068.05.089-.026.02-.001.092-.044.125-.042.033-.118.06-.123.106-.005.046-.038.074.012.09.031.012.08-.015.11-.009.029.007.06-.012.088-.03.028-.02.069-.052.084-.017.013.028.074.024.09.068.017.044.05.068.077.087.028.02.107.03.133.005.026-.025.07-.066.104-.064.033.003.052.028.027.05-.026.024-.02.034.018.043.038.009.065.026.067.06.002.029.002.05.029.063.027.013.042.009.055-.017.013-.025.044-.05.065-.022.021.027.048.051.078.06.03.008.069.044.088.065.019.021.029.055.001.057-.027.002-.055-.003-.08-.018-.025-.014-.052.008-.023.036.03.028.046.044.056.061.01.017.03.034.055.035.025 0 .044.01.056.036.013.025.025.033.048.025s.03-.029.018-.042c-.013-.012-.025-.042-.01-.052.014-.01.017-.03-.004-.044-.021-.015-.015-.076.017-.061.074.035.061-.017.097-.008.052.013.072.016.1.05.03.033.057.038.078.04.021.002.038.01.053.023.014.012.029.004.036-.032.008-.045.033-.126.066-.15.028-.018.022-.083.054-.093.031-.01.071-.052.065-.077-.006-.026-.024-.036-.062-.035-.038.002-.089-.045-.044-.1.054-.067.037-.124.077-.194s-.016-.11-.095-.082c-.078.027-.12.005-.146.021-.025.017-.059 0-.07-.014-.01-.015-.039-.006-.062.018-.022.026-.095.047-.126.016-.03-.03-.013-.112.049-.117.061-.005.09-.024.096-.086.006-.061.063-.17.114-.192.05-.022.12-.033.146-.002.025.031.061.046.092.018s.074-.039.079-.002c.005.036.053.045.05.087-.004.042.03.062.03.101 0 .04.105.108.106.01 0-.073.032-.101.038-.132.006-.03.045-.041.07-.024.025.017.101.015.096-.033-.005-.048-.05-.062-.084-.04s-.085.022-.084-.029c0-.03 0-.061.026-.08.025-.02.031-.065.012-.093-.02-.028-.037-.077-.013-.093.042-.027.043-.072.068-.094.025-.022.046-.073.088-.064.042.009.078-.016.09-.055.011-.04.035-.115.085-.114.05 0 .113-.016.146-.044.034-.028.116-.013.16-.068.046-.056.064-.087.103-.109.04-.022.029-.055.015-.08-.014-.026-.036-.037-.081-.032-.045.005-.065-.018-.05-.034.014-.017.039-.042.061-.045.023-.002.015-.075-.024-.087-.039-.011-.09-.04-.07-.076.02-.036.016-.114-.032-.12-.048-.007-.135.004-.129-.038.006-.042-.013-.07.026-.095M20.629 18.257c.008.03.052.047.075.032.023-.014.013-.033-.018-.05-.032-.017-.066-.009-.057.018M20.502 18.28c.02.025.053.015.053-.01 0-.026-.023-.055-.048-.066-.025-.01-.04-.007-.046.02-.007.028-.037.028-.064.025-.027-.002-.034.014-.01.03.022.014.037.016.056.004.02-.012.049-.016.06-.004M20.27 18.307c.044.03.072.005.03-.03-.042-.033-.07.002-.03.03M20.213 18.363c-.02.005-.009.03.006.025.015-.004.017-.031-.006-.025M20.237 18.454c-.03-.016-.071-.01-.065.022.006.032.027.028.055.015.027-.012.027-.029.01-.037M20.186 18.596c.024.024.07-.006.04-.031-.03-.026-.063.007-.04.03M20.202 18.672c-.029-.022-.057-.022-.036.029.015.039.086.009.036-.03M20.297 18.906c-.017-.017-.019-.043-.021-.066-.002-.023-.042-.063-.073-.04-.032.023-.03.067 0 .094.028.028.039.047.038.068 0 .02.015.036.027.05.013.015.03.047.025.07-.005.023.005.037.035.053.072.038.09.072.077.112-.013.04-.013.063.004.077.031.028.01.057.037.08.027.024.063.047.072-.007.008-.055-.023-.116-.028-.175-.006-.058-.033-.086-.064-.12-.032-.034-.08-.074-.107-.085-.028-.01-.04-.04-.025-.059.015-.019.017-.038.003-.052M20.506 19.523c.002.034.018.07.037.09.019.021.067.018.055-.026-.012-.045-.035-.072-.056-.087-.02-.015-.038-.009-.036.023M20.852 19.883c.005.034.042.08.077.082.036.003.06-.02.035-.054-.025-.034-.053-.06-.078-.064-.025-.004-.038.006-.034.036M21.002 20.103c.048.04.022.088.073.112.05.023.082-.026.049-.063-.048-.053-.046-.089-.077-.108-.032-.019-.08.029-.045.059M22.58 22.105c.043.038.113.125.144.153.031.027.105-.008.045-.086-.06-.078-.136-.123-.165-.13-.03-.006-.057.033-.024.063" transform="translate(-10 -1)"/>
                    <path fill="#FEFEFE" d="M25.183 15.351c-.029.02-.023.061.01.05.034-.01.08-.032.1-.032.019 0 .03-.028-.003-.037-.034-.008-.079 0-.107.019M23.796 17.155c-.027.002-.049.016-.045.035.004.02.021.034.055.013.034-.02.036-.052-.01-.048M25.196 17.585c-.044-.04-.115-.035-.099.014.016.048-.02.06-.003.08.03.034.002.05.03.078.026.027.043.042.032.078-.01.035.051.058.064.01.007-.021.019-.047.033-.058.015-.01.024-.041.02-.067-.004-.025.002-.048.03-.062.027-.015.023-.047-.019-.043-.042.004-.05.004-.088-.03M25.86 17.552c.027-.053.022-.181.019-.224-.004-.041.005-.105.055-.138.051-.033.022-.104.073-.12.05-.017.152-.016.148-.071-.004-.055.052-.125.03-.168-.02-.042.006-.075.065-.075.059 0 .223-.019.261-.031.038-.012.084-.004.118.01.033.012.075.034.096.055.021.021.042.041.017.062-.026.021-.03.055-.001.077.03.02.044.066-.004.11s-.029.1-.066.123c-.036.022-.05.045-.031.067.018.022.008.081-.018.092-.025.011-.042.033-.042.058 0 .026-.06.126-.161.106-.118-.024-.144.058-.228.025-.05-.02-.12.037-.163.047-.042.01-.079.035-.096.052-.017.017-.098-.005-.072-.057M25.587 16.927c.03-.031.065-.06.069-.096.003-.036.062-.075.084-.027.022.048.05.053.09.009.04-.045.056-.059.046-.106-.011-.048.006-.07.034-.106.028-.036.054-.03.087-.022.034.009.062.006.085-.022.022-.027.053-.022.056.01.002.03.008.055.002.08-.006.026-.006.034-.048.003-.042-.031-.11.033-.054.05s.056.048.016.081c-.04.034-.037.081-.082.117-.045.036-.057.108-.063.162-.006.054-.078.104-.096.05-.018-.055-.067-.046-.104-.02-.036.024-.081.035-.112.029-.031-.006-.04-.02-.028-.048s.023-.056.018-.078c-.006-.023-.024-.041 0-.066M25.57 16.584c-.023.032-.048.086-.012.103.037.017.076-.013.065-.038-.01-.026.01-.048-.002-.068-.01-.02-.036-.017-.05.003M26.365 16.582c-.05-.01-.079.02-.088.047-.008.028.003.059.05.048.048-.011.116-.013.155-.01.04.003.085-.027.057-.075-.028-.048-.072-.076-.109-.08-.036-.002-.042.009-.03.031.01.023-.002.045-.035.04M26.13 16.412c.026.026.06.032.082.023.022-.008.023-.044-.025-.056-.048-.011-.081.008-.056.033M26.285 16.422c0 .031.041.062.075.054.034-.008.015-.031-.008-.062-.022-.03-.067-.037-.067.008M26.216 16.335c.025-.01.067-.011.092-.008.026.003.057-.016.037-.033-.02-.017-.039-.046-.03-.076.009-.03-.047-.06-.07-.032-.037.045-.084.025-.088.07-.003.044.014.095.059.079" transform="translate(-10 -1)"/>
                    <path fill="#FEFEFE" d="M26.054 16.162c-.026-.019-.05.003-.04.028.012.025.014.05-.005.073-.02.022-.018.039.005.042.022.003.03.03.025.048-.006.016.05.05.045-.008-.006-.06-.017-.095.012-.11.048-.024.009-.05.037-.067.028-.016.084.015.093-.03.008-.044-.05-.09-.09-.093-.039-.003-.053.028-.028.053.025.026.036.051.008.062-.028.011-.034.022-.062.002M26.39 17.647c.015.03.038.045.018.075-.02.031.02.099.103.071.085-.027.172-.06.111-.144-.036-.051-.069.014-.173-.055-.056-.037-.08.016-.06.053M26.975 17.064c.006.03.017.067.045.087.028.02.042-.01.042-.036 0-.026-.03-.07-.053-.079-.022-.009-.039-.003-.034.028M27.055 16.958c-.02-.002-.023.025-.003.028.02.003.031-.025.003-.028M27.37 16.815c-.014.03-.009.09.011.104.02.014.062-.017.048-.036-.014-.02-.028-.054-.028-.07 0-.017-.016-.026-.03.002M27.442 17.006c.006.027.058.073.092.07.034-.002.056-.046.023-.08s-.09-.048-.106-.035c-.017.014-.015.023-.01.045M27.309 16.476c-.022-.004-.028.022.003.02.03-.003.03-.014-.003-.02M27.23 15.94c-.02-.002-.015.025.002.025s.02-.022-.003-.025M27.31 16.014c-.017.005-.003.03.017.022s.009-.03-.017-.022M26.516 14.73c-.022-.003-.031.033 0 .033.03 0 .028-.03 0-.033M26.648 14.689c-.022-.014-.059 0-.056.016.002.017.025.017.05.009.026-.008.02-.017.006-.025M27.046 14.726c-.002.01.026.026.028.011.003-.013-.025-.028-.028-.011M27.209 14.8c-.017 0-.015.02 0 .02.013 0 .016-.02 0-.02M27.264 14.87c0 .015.022.015.02 0-.003-.013-.02-.016-.02 0M26.74 14.67c-.023-.001-.005.034.01.031.013-.003.055-.027-.01-.03M25.385 13.371c-.03.032-.035.086.035.091.07.005.071-.014.053-.065-.019-.05-.05-.067-.088-.026M25.548 13.43c.024.015.087-.01.045-.038-.042-.027-.076.016-.045.038M24.19 11.98c-.046.026.009.066.034.05.025-.017.009-.076-.033-.05M25.965 11.465c.025-.01.07-.01.093-.003.023.007.042.028.023.044-.02.017-.036.025-.048.004-.013-.021-.05-.03-.061-.022-.011.009-.032-.012-.007-.023M26.15 11.561c.015.03.084.022.061-.022-.022-.045-.082-.018-.061.022M25.773 21.192c.022.036.063-.016.042-.046-.02-.03-.071 0-.042.046M26.392 21.702c-.012.046.07.046.046-.008-.025-.055-.038-.026-.046.008M28.507 19.061c-.071-.005-.038.075.008.072.047-.004.093-.004.134.06.042.063.173.03.235.106.05.06.256.053.357.083.1.03.122.014.143-.002.022-.017.076-.016.11-.004.034.013.067.005.084-.012.017-.016.026-.025.06-.033.033-.008.034-.041.03-.07-.004-.03.017-.055.05-.072.035-.016.073-.041.081-.07.021-.07.077-.067.069-.113-.008-.047.004-.055.038-.034.033.022.058.102.062.14.004.037.024.117.05.155.024.038.03.249-.004.299-.034.05-.043.176-.082.238-.038.063-.077.147-.065.264.011.118.116.182.166.195.084.022.13.098.189.17.058.072.07.105.028.143-.043.037-.022.084-.081.117-.06.033-.06.112-.128.162s-.013.11.04.173c.055.064.016.147-.022.185-.038.037-.03.113-.023.167.008.055-.073.172-.128.205-.055.033-.089.1-.124.205-.034.105-.169.112-.22.187-.051.075-.076-.01-.157.091-.044.056-.093.037-.152.083-.097.074-.156.04-.22.111-.064.071-.16.024-.207.057-.046.033-.071-.026-.096-.089-.024-.063-.113-.051-.184-.073-.072-.021-.18-.102-.218-.165-.037-.064-.134-.128-.226-.154-.092-.026-.054-.088-.125-.144-.07-.055-.074-.151-.027-.26.047-.11-.04-.135-.04-.185 0-.051-.076-.077-.08-.127-.003-.05-.125-.098-.251-.116-.126-.018-.087-.135-.05-.172.04-.038.027-.076-.01-.105-.038-.03-.14-.065-.182-.044-.042.02-.1.003-.143-.014-.041-.017-.13-.014-.185.011-.055.025-.223.044-.299.023-.076-.022-.202-.04-.37-.041-.181-.002-.105-.056-.197-.086-.093-.03-.071-.076-.13-.115-.058-.038-.05-.105-.108-.143-.059-.039-.083-.144-.125-.199-.041-.055-.066-.152.015-.176.08-.025.043-.117.077-.138.034-.02.011-.059.017-.092.006-.034.046-.084.136-.128.09-.044.175-.155.243-.16.067-.005.13-.06.175-.105.045-.045.113-.095.163-.066.05.028.22.013.265-.048.045-.061.13-.1.214-.094.084.007.123.003.161-.013.038-.017.077-.017.088.03.016.067.076.055.105.085.03.03.075.038.109.03s.059-.004.101.01c.042.012.134.026.177-.037.043-.063.098-.112.207-.12.11-.007.25-.053.27-.078.022-.024.09-.062.123-.066l.08.106zM29.658 14.953c.042-.005.101-.05.073-.086-.027-.037-.092-.048-.12-.023-.029.024-.06.02-.07.04-.012.023-.016.085.117.07" transform="translate(-10 -1)"/>
                    <path fill="#FEFEFE" d="M29.783 17.878c.035-.028.052-.059.063-.106.012-.048.032-.095.074-.044.041.05.15.06.174-.021.023-.081.068-.075.118-.05.05.026.129.027.18-.015.068-.055.157-.04.214-.074.056-.033.115-.035.166-.032.05.004.082-.052.05-.072-.03-.02-.015-.056-.074-.07-.059-.015-.117-.051-.15-.167-.013-.042-.045-.051-.091-.056-.046-.004-.059-.055-.054-.105.005-.05-.079-.106-.095-.182-.016-.075-.058-.126-.091-.156-.034-.03-.063-.118-.041-.168.021-.05.04-.176.166-.234.127-.058.127-.091.102-.159-.024-.067-.007-.121.158-.137.164-.015.231.002.253-.082.022-.083.161-.158.175-.242.013-.084.047-.121.064-.155.017-.033.043-.083-.084-.038-.126.045-.203.162-.212.208-.009.046-.073.15-.178.154-.105.003-.122-.081-.062-.148.06-.066.064-.104.056-.134-.008-.03.009-.054.026-.075.017-.02-.004-.059-.046-.076-.042-.017-.079-.102-.18-.11-.1-.01-.164.027-.186.069-.021.042-.068.054-.08.104-.014.05-.043.063-.077.046-.033-.017-.07.02-.097-.001-.033-.026-.015-.04-.034-.056-.02-.017.003-.059-.03-.09-.034-.031-.04-.06-.02-.07.02-.011.032-.048.01-.062-.023-.014-.045-.053-.047-.093-.003-.039-.108-.142-.212-.164-.042-.009-.124-.035-.152-.01-.028.025-.118-.003-.148-.012-.031-.009-.113-.007-.155.043-.043.05-.074.128-.13.122-.056-.006-.074.005-.074.053 0 .047.01.07.033.09.022.02.002.09-.026.07-.028-.02-.047-.034-.067-.04-.02-.006-.025-.04 0-.053.026-.014.046-.04.02-.05-.024-.012-.107-.077-.06-.108.076-.05.035-.094.068-.12.034-.024.06-.055.026-.094-.033-.04-.077-.065-.12-.06-.042.005-.087.047-.11.091-.023.045-.057.056-.116.055-.058 0-.177.02-.21-.027-.033-.048-.08-.079-.106-.051-.026.028-.064-.015-.115.035-.051.05-.094.106-.13.117-.037.01-.074.078-.13.091-.02.005-.023.028-.018.05.006.023-.012.056-.048.064-.037.008-.085.033-.12.027-.037-.006-.068-.031-.087-.06-.02-.027-.084-.042-.115-.076-.03-.034-.098-.057-.137-.026-.04.03-.09.069-.133.06-.041-.009-.07-.048-.027-.065.042-.016.062-.066.133-.088.07-.022.157-.072.163-.11.006-.04.014-.082.024-.11.017-.05-.072-.112-.112-.05-.04.06-.18.098-.204.177-.023.078-.035.145-.113.155-.079.01-.074.095-.158.083-.084-.012-.118.038-.09.078.027.039-.019.095-.063.066-.045-.028-.1-.057-.134-.046-.034.011-.065 0-.062-.023.003-.022-.028-.042-.05-.03-.023.01-.023.035.005.047.028.011.04.028.022.05-.017.023-.031.073.024.115.056.043.134.086.145.125.01.04.036.056.073.045.036-.01.076-.016.098.001.022.017.047.023.084.02.037-.002.079.004.092.054.014.051.04.048.072.074.034.025.062.07.073.093.01.022.022.02.005.05-.017.031-.006.04.016.026.023-.014.062-.028.102-.02.039.01.064.01.047.057-.017.048-.018.14.013.163.03.023.055.085.001.112-.053.027-.048.045-.048.067 0 .022-.009.039-.026.056-.017.016-.025.027-.023.044.003.017.006.034-.014.045-.02.01-.034.036.011.017.045-.02.11-.055.129.026.019.082.052.157.085.163.034.006.062.023.04.045-.023.023-.004.062.044.057.048-.005.079-.02.115-.041.037-.022.068-.033.085-.022.016.012.028.028.008.045-.02.017 0 .028.027.042.028.015.068.07.038.088-.03.016-.059.011-.08-.029-.02-.04-.052-.048-.088-.042-.035.006-.09-.001-.13-.004-.04-.002-.074.016-.053.071.006.017.027.053.06.068.034.015.05.043.029.065-.021.023-.013.049-.01.08l2.074.792zM29.998 18.714c-.03.018-.032.09-.006.112.024.023.061.01.081-.05.02-.058-.024-.092-.075-.062" transform="translate(-10 -1)"/>
                    <path fill="#FEFEFE" d="M30.75 17.186c-.052.026-.071.07-.013.104.06.034.157.029.205.01.048-.02.054-.061.018-.1-.036-.04-.08-.08-.21-.014M30.055 15.365c-.009.06-.005.114.075.102.08-.012.055-.042.014-.084-.042-.042-.084-.047-.089-.018M31.082 15.941c-.036.029-.051.059-.043.093.008.033-.022.096.007.121.03.026.067.056.085-.02.017-.075.115-.137.12-.2.004-.063.09-.155.085-.201-.004-.047.073-.147.065-.189-.008-.042-.012-.092.005-.121.017-.03-.024-.11-.088-.052-.063.058-.06.147-.094.184-.034.038-.035.139-.077.168-.043.029-.035.092-.03.125.003.034.011.055-.035.092M27.67 14.731c.017-.013.046-.035.067-.035.021 0 .05.032.015.04-.036.008-.062.008-.07.017-.009.008-.03-.01-.012-.022M27.849 14.678c-.022.015-.005.042.023.04.038-.001.031-.02.07-.02.037 0 .05.003.064.013.015.01.043-.002.04-.029-.001-.027-.045-.036-.077-.015-.032.02-.053.023-.063.01-.01-.013-.038-.011-.057.001M28.375 18.757c-.028.012-.065.044-.057.071.008.028.039.037.067.022.036-.019.007-.052.026-.065.019-.012-.01-.038-.036-.028M27.944 18.993c.03 0 .07-.018.097-.033.027-.014.075.01.04.049-.037.04-.117.047-.146.028-.03-.019-.01-.044.009-.044M27.447 19.022c-.017.018-.022.057.001.072.023.015.067.009.082-.008s-.008-.042 0-.065c.01-.023-.053-.03-.083.001M27.245 18.943c-.01.014-.02.057 0 .071.018.015.03-.008.044-.02.015-.013.017-.04.007-.053-.01-.012-.038-.015-.05.002M27.233 18.855c.016.02.036-.004.022-.017-.015-.013-.034.002-.022.017M26.584 18.26c-.002.024-.009.056-.026.072-.017.017-.015.067.018.078.034.01.06.003.08-.033.022-.035.036-.062.022-.075-.025-.024-.008-.05-.027-.068-.018-.017-.065-.007-.067.027M26.712 18.504c-.028-.008-.044-.05-.012-.07.032-.02.051-.056.041-.086-.01-.03.007-.062.026-.075.019-.012.028-.056.003-.065-.026-.009-.07-.043-.05-.057.03-.023.07-.04.08-.069.02-.059.07-.056.057.005-.013.06.001.062.02.076.021.015.034.046.032.063-.003.017.01.059.03.072.021.012.023.048-.009.063-.031.014-.023.06-.063.064-.04.004-.07.035-.079.054-.013.03-.059.029-.076.025M30.656 19.829c-.034.056-.001.173-.052.218-.051.044-.007.14-.058.184-.05.044-.074.106-.024.146.05.04.073.078.078.14.005.062.1.119.15.102.051-.016.113-.077.17-.07.056.005.13-.151.097-.207-.033-.057-.077-.23-.065-.27.011-.039-.005-.084-.033-.1-.028-.018-.039-.046-.039-.085 0-.04-.033-.056-.106-.074-.072-.017-.1-.012-.118.016M31.36 19.639c-.05-.005-.04.078.005.073.045-.005.05-.067-.005-.073M31.411 19.494c0-.057.08-.028.056.034-.023.061-.056.005-.056-.034M33.03 17.912c-.05.012-.039.067.017.05.056-.016.051-.066-.016-.05M33.241 18.894c-.056.027-.08.094-.046.134.033.04.062.017.073-.028.012-.044.046-.072.035-.106-.011-.034-.028-.017-.062 0M33.512 18.728c.02.02.04-.005.023-.022-.017-.017-.04.005-.023.022M33.572 18.618c.02.014.038-.012.021-.025-.017-.013-.046.008-.021.025M27.906 15.09c.006-.041.056-.075.056-.108 0-.034.038-.055.06-.063.02-.008.042-.02.063-.045.021-.026.051-.049.076-.04.025.008.05.078-.03.116-.08.037-.157.107-.174.153-.018.047-.064.08-.05-.012M28.137 14.71c.03.02.037.064.041.089.004.025.017.042.063.034.047-.008.123-.04.135-.07.013-.03.03-.063.056-.063.025 0 .06-.037.097-.037.038 0 .046.034.088.03.042-.003.11.048.143.073.033.026.092.022.109.01.017-.013.097-.03.126-.008.03.021.092-.06.017-.075-.076-.015-.115-.085-.114-.116 0-.03-.045-.065-.079-.068-.033-.003-.092.002-.143-.013-.05-.014-.058-.036-.052-.059.006-.022-.082-.006-.107.03-.026.036-.068.084-.108.097-.04.014-.056.05-.068.086-.012.037-.057.059-.082.028-.025-.031-.022-.05-.086-.049-.065.003-.07.059-.036.081M29.146 14.845c-.027-.012-.094.005-.069.051.025.047.069.046.094.029.025-.016.026-.059-.025-.08M29.292 14.67c.02.02.054-.005.031-.025-.022-.02-.056 0-.03.025M29.516 14.803c.012.018.045.006.028-.016-.017-.023-.042-.003-.028.016M29.945 14.512c.01-.035.036-.031.042-.008.006.023.033.038.053.019.019-.019.078-.07.097-.073.019-.002.044-.003.042.026-.002.03-.051.083-.073.09-.02.006-.044.033-.019.035.025.003.065.016.07.04.002.016-.007.054-.05.057-.029.002-.069.012-.076.041-.006.03-.01.072-.057.065-.046-.007-.086-.007-.101.005-.015.013-.063.008-.073-.036-.01-.044 0-.1.051-.115.05-.014.104-.041.097-.077-.005-.036-.007-.055-.003-.07M29.936 14.34c-.021.023-.026.052-.005.073.02.021.05.017.063-.004.013-.02.026-.058.007-.073-.019-.015-.048-.015-.065.003M30.064 14.387c-.025-.002-.036.033-.007.04.03.006.036-.038.007-.04M30.238 14.716c.024.019.098.032.118.02.019-.013.006-.046-.013-.042-.019.004-.057.008-.078.001-.02-.006-.046.006-.027.02M30.388 14.421c-.017-.01-.04.016-.024.034.017.017.055.017.082.013.028-.004.034-.035-.001-.032-.036.004-.047-.008-.057-.015M30.207 14.138c-.027 0-.063-.005-.084-.005-.021 0-.027-.01-.05.015-.024.024-.045.047-.054.07-.009.023-.017.038.016.053.034.015.084.053.078.07-.007.017.008.034.025.032.017-.002.042.021.037.04-.004.019.004.032.038.03.034-.002.112-.03.078-.067-.033-.036-.06-.08-.043-.105.017-.025.007-.08-.001-.099-.008-.019-.001-.044.017-.038.032.011.055-.014.038-.037-.016-.023-.04-.011-.046.02-.007.032-.024.021-.049.021M30.177 14.018c-.028 0-.04.044-.003.046.038.003.03-.046.003-.046M30.406 13.79c.02-.004.065-.034.038-.051-.027-.017-.085-.089-.1-.118-.014-.03-.054-.037-.075-.035-.021.002.002.044.029.064.027.019.048.073.06.111.012.038.02.032.048.028M30.406 13.842c-.016.016-.064.037-.1.043-.036.006-.07.066-.022.082.049.015.118.003.123-.03.004-.034.009-.068.024-.076.015-.009 0-.046-.025-.02M30.498 14.082c.033.037.133.182.146.217.012.036.016.057.043.068.027.01.065.03.078.045.012.015.054.017.065-.017.01-.033.032-.075.056-.083.023-.008.038-.06.02-.075-.02-.015-.055-.014-.075.024-.019.038-.049.065-.078.064-.03 0-.046-.019-.054-.057-.008-.037-.038-.013-.06-.07-.024-.056-.086-.133-.113-.143-.028-.01-.044.008-.028.027" transform="translate(-10 -1)"/>
                    <path fill="#FEFEFE" d="M30.648 14.081c-.017-.015-.05-.055-.067-.053-.017.002-.022.038.043.074.021.012.073.07.077.093.004.023.033.08.06.08.028 0 .051-.012.047-.04-.004-.027-.014-.058-.001-.079.013-.021-.024-.079-.06-.043-.011.01-.012.05-.006.066.007.014-.008.025-.02-.01-.013-.033-.05-.067-.073-.088M30.688 13.696c.002.025.082.135.121.161.04.026.096.005.057-.036-.056-.06-.05-.101-.089-.132-.039-.031-.095-.046-.09.007M30.387 13.372c-.028 0-.037.039 0 .042.036.003.028-.042 0-.042M30.964 13.878c-.028-.005-.034.05-.004.053.031.003.037-.047.004-.053M30.926 13.976c-.038-.013-.067.012-.057.038.01.025.023.044.052.053.03.008.034.04.03.06-.005.022.016.056.043.056.027 0 .053-.027.076-.029.023-.002.022-.06-.018-.076-.04-.015-.07-.03-.078-.05-.008-.022-.022-.043-.048-.052M31.059 14.234c-.02.037-.02.104.013.135.033.031.064.031.084.015.02-.017.014-.042 0-.067-.014-.026-.044-.054-.05-.074-.005-.02-.036-.03-.047-.009M31.158 14.447c-.014.011-.013.042.012.048.025.007.034-.002.043-.02.008-.02-.019-.06-.055-.028M31.214 14.527c-.067-.019-.073.072-.002.048.042-.014.042-.037.002-.048M31.175 14.717c.007.03.006.056-.025.028-.03-.028-.033-.062-.025-.087.009-.025.026-.04.043-.022.016.017.03.009.047 0 .017-.008.07-.005.07.032 0 .036.047.151.072.177.025.025.047.065.024.084-.022.02-.02.073.022.062.042-.011.084.02.047.065-.036.044-.04.15-.038.187.003.036-.046.083-.081.027-.036-.056-.044-.124-.041-.163.003-.039-.013-.157-.06-.213-.047-.056-.047-.09-.016-.11.031-.019.045-.075.023-.097-.022-.023-.072-.02-.062.03M30.568 14.496c-.04-.025-.073 0-.07.033.002.034.01.053-.018.078-.028.025-.04.098 0 .112.038.015.064.032.109.027.044-.006.134.057.15.102.017.045.068.072.089.093.02.02.053.062.061.101.008.04.019.099.052.093.034-.005.07-.03.107-.016.037.015.101.018.088-.024-.014-.042-.017-.06.003-.087.02-.028-.027-.093-.021-.129.006-.036-.047-.079-.038-.13.009-.05-.047-.106-.06-.131-.015-.026-.045-.099-.118-.094-.073.005-.115.027-.149 0-.033-.03-.081.03-.106-.007-.025-.037-.042.002-.079-.02M30.072 13.433c-.015.048.016.101.083.102.068 0 .12-.06.075-.112-.045-.05-.066-.162-.128-.202-.061-.04-.083-.063-.1-.102-.017-.04-.022-.09.029-.1.05-.011.04-.084-.01-.068-.051.017-.102 0-.101-.062 0-.062-.021-.168-.06-.208-.039-.04-.129-.074-.162-.046-.035.027-.09.01-.13-.063-.038-.073-.199-.248-.249-.305-.05-.056-.107-.006-.051.056s.083.124.1.147c.017.022.022.039 0 .083-.024.045-.019.101.031.14.05.04.095.114.089.164-.006.05.032.14.1.169.067.028.116.135.183.158.067.023.1.119.173.136.073.018.157.024.128.113M28.834 12.503c.017-.028.047-.03.043-.063-.004-.034.021-.033.046.013.025.046.041.114.007.143-.034.03-.138-.022-.096-.093M29.04 12.467c.031.03.084.089.139.097.054.01.126-.04.076-.075-.05-.034-.142-.03-.18-.051-.038-.022-.067-.005-.034.029M28.765 12.233c-.005.032-.014.105.037.114.05.009.067-.02.047-.046-.021-.025-.042-.042-.042-.063 0-.021-.038-.034-.042-.005M28.648 12.136c0 .03.003.083.046.08.042-.004.034-.038.017-.063s-.063-.047-.063-.017M28.501 12.092c-.005.038.029.089.07.068.043-.02.03-.054.006-.075-.025-.022-.072-.026-.076.007M28.364 11.993c0 .051.053.087.09.085.036-.003.045-.036.022-.05-.022-.014-.067-.04-.075-.057-.008-.017-.037.002-.037.022M28.31 11.864c-.003.023.013.064.035.065.023 0 .034-.025.015-.048-.02-.022-.048-.043-.05-.017M28.494 11.966c.013.02.036.009.02-.014-.017-.022-.037-.011-.02.014M27.962 11.502c-.02.034-.001.09.03.093.03.003.062-.016.042-.064-.019-.048-.058-.054-.072-.029M27.934 11.438c-.013.01 0 .022.011.017.011-.006.006-.031-.011-.017M27.773 11.277c.022.01.08.059.094.079.014.02.048.003.029-.022-.03-.04-.078-.074-.1-.085-.023-.012-.048.016-.023.028M27.933 11.194c-.04.026.022.067.045.048.023-.02-.014-.068-.045-.048M28.073 11.232c.016.045.047.081.075.101.028.02.103.096.146.063.042-.033.015-.065-.022-.107-.061-.067-.114-.054-.145-.082-.03-.028-.07-.023-.054.025M26.875 11.244c.027-.022.107-.036.154-.019.048.018.059.068.003.067-.057 0-.089.016-.105.036-.034.045-.134-.02-.052-.084M26.905 10.243c.03.002.05.034.088-.012.038-.046.093-.037.135-.07.043-.033.085-.037.144-.054.06-.016.093-.007.11.03.016.039.024.072.066.106s.046.047.028.08c-.017.034.02.097.071.114.05.018.1.085.062.102-.038.016-.164-.006-.201-.07-.038-.063-.067-.054-.105-.046-.038.008-.084-.026-.105-.052-.02-.025-.067-.059-.109-.038-.042.02-.092-.026-.152-.006-.059.02-.108-.09-.032-.084M27.487 10.097c.031.012.067 0 .088-.03.022-.028.077-.04.14-.053.063-.011.097-.011.148-.048.05-.038.135-.054.185-.032.05.02.13.064.168.03.039-.033.11.01.084.03-.025.021-.034.046-.004.06.029.012.037.037-.018.045-.055.008-.114.024-.156.05-.042.024-.071.024-.13.01-.06-.012-.114-.009-.156.016-.043.025-.127.024-.16.05-.035.024-.056.028-.09.003-.033-.026-.07-.01-.079-.047-.008-.038-.02-.047-.033-.06-.013-.012-.008-.033.013-.024M28.038 9.681c.005.04.088.043.11.018.02-.025-.122-.106-.11-.018M28.445 9.828c-.041.012-.043.05.004.067.046.017.08-.004.08-.029s-.042-.05-.084-.038" transform="translate(-10 -1)"/>
                    <path fill="#FEFEFE" d="M31.026 12.198c-.026.046-.13.033-.14-.012-.01-.045.057-.09.124-.083.067.006.067.012.073-.027.006-.04-.044-.085-.105-.102-.062-.018-.1-.08-.1-.136 0-.055-.06-.151-.094-.174-.034-.023-.095-.08-.122-.141-.028-.062-.117-.119-.19-.108-.073.01-.224-.114-.274-.17-.05-.057-.129-.03-.168-.07-.039-.039-.129-.04-.151-.012-.023.028-.107.01-.147.05-.04.038-.104.04-.197.056-.092.017-.186.077-.195.154-.004.042-.067.05-.067.08-.001.029.003.042.062.055.059.013.096.101.13.11.033.009.062.08.091.106.03.025.05.126.053.185.004.059.038.101.08.114.041.013.078.097.04.19-.039.092-.001.13.024.147.025.017.05.046.041.084-.009.038 0 .088.004.11.004.02.046.061.096.05.076-.016.097-.07.152-.082.055-.012.13-.037.185.04.054.076.117.114.125.164.008.05.029.072-.01.093-.038.02-.063.054-.034.1.03.047.104.131.12.195.017.063.029.092.084.11.054.017.074.052.048.071-.025.02-.006.042.022.054.028.011.062 0 .068-.025.006-.025.042-.042.084-.027.042.014.059.031.061.07.003.04.028.079.064.124.036.045.053.073.108.088.056.014.168.074.201.114.034.039.065.065.112.062.048-.002.104.015.13.054.024.04.052.08.088.1.036.02.086.073.105.118.02.045.053.101.1.13.048.028.067.053.073.098.005.045.1.09.14.054.04-.036.059-.055.093-.055.033 0 .062-.016.076-.035.014-.02.06-.095.119-.114.026-.009.045-.095.107-.117.062-.022.058-.14.013-.179-.045-.04-.022-.067-.058-.11-.036-.042-.077-.118-.117-.146-.039-.029-.08-.108-.088-.141-.008-.034-.061-.08-.064-.107-.002-.028-.108-.119-.114-.152-.005-.034-.103-.082-.133-.136-.03-.053-.131-.105-.156-.166-.024-.062-.077-.138-.125-.164-.047-.026-.19-.125-.189-.153 0-.028.009-.05-.016-.056-.026-.006-.076-.048-.101-.085-.025-.036-.016-.106-.001-.143.014-.036.042-.08-.013-.112-.056-.031-.11-.02-.127.01M30.166 11.07c-.006-.056.045-.055.085-.05.04-.038.123-.032.207.059.083.09.105.157.076.208-.028.05-.05.055-.095.01s-.123-.108-.179-.12c-.056-.01-.089-.056-.094-.106M28.893 18.149c-.06.05-.09-.005-.106-.036-.017-.031-.047-.045-.136-.038-.092.008-.123-.023-.139-.079-.018-.066.022-.11.107-.104.076.006.045.055-.006.054-.034 0-.029.028-.012.04.017.01.043.012.122 0 .086-.013.13.018.175.044.045.025.04.082-.005.119l.32.233c.13.027.148.005.168-.048.02-.053.057-.078.074-.12.017-.042.056-.033.09-.03.034.003.079-.002.107-.064.029-.061.038-.1.063-.122.026-.023.035-.092.068-.12l-2.073-.792c.004.032-.014.088-.037.113-.023.025-.036.057-.045.092-.009.036-.032.061-.089.056-.057-.005-.133.026-.197-.006-.066-.032-.127.018-.15.087-.038.107-.084.11-.087.195-.003.084-.035.146-.056.163-.021.017-.06.098.028.126.089.028.042.055.078.068.035.013.05.028.048.055-.003.028.035.022.03.05-.004.03.009.047.045.062.035.015.056.005.078-.024.02-.03-.004-.07.017-.095.022-.025.022-.058-.007-.088-.03-.03-.045-.135-.034-.177.01-.042.034-.077.088-.075.055.003.091.012.07.052-.022.04-.014.11-.002.147.013.035.03.056.06.046.033-.01.056-.014.075-.012.019.003.037.02 0 .036-.039.016-.045.035-.075.044-.03.008-.061.054-.07.09-.009.035-.013.066-.038.077-.026.01-.051.03-.073.047-.02.017-.099.02-.13-.005-.046-.038-.016-.061-.033-.074-.017-.013-.027-.061-.048-.067-.02-.007-.063.041-.064.079 0 .037-.003.08.01.099.012.018.04.084.005.103-.033.018-.118.08-.133.093-.015.012-.025.02-.055.023-.03.001-.06.022-.076.037-.017.014-.061.022-.093.018-.031-.005-.036.024-.04.052-.005.027.008.05.039.059.032.009.057.055.044.09-.013.036-.037.049-.077.044-.04-.005-.08-.005-.115-.005-.036 0-.068.025-.083.081-.015.057-.024.103-.018.13.006.028.016.066.003.093-.013.027-.01.072.037.082.032.007.049.03.055.046.006.017.025.038.048.014.023-.025.063-.019.091-.05.028-.031.064-.046.093-.043.03.002.063.002.074-.037.011-.04.04-.046.045-.07.004-.023.019-.04.044-.05.026-.01.03-.026.034-.05.005-.023.035-.048.054-.045.018.002.058-.006.076-.027.017-.02.055-.029.07-.04.014-.01.052-.016.069.005.016.022.044.066.08.066.035 0 .121.018.148.052.027.034.048.068.07.072.02.004.035-.004.029-.027-.006-.023-.006-.063.013-.075.02-.013.005-.05-.048-.06-.052-.008-.124-.05-.142-.07-.02-.021-.017-.07.028-.067.044.002.122.018.172.058.05.04.096.068.091.095-.004.028.002.063.017.07.019.008.031.023.04.044.008.021.041.028.058.018.017-.01.026-.028.057-.02.032.006.074-.061.037-.087-.038-.025-.06-.063-.046-.08.015-.017.034-.063.032-.077-.002-.015.011-.03.024-.038.013-.008.021-.04.01-.059-.01-.019.003-.052.018-.067.015-.014.03-.065.02-.096-.01-.032-.005-.08.039-.073.016.002.02.04.052.04.031 0 .053-.017.078-.041.026-.025.102-.058.175-.045.074.013.115.057.05.101-.085.058-.177.023-.326.14-.02.017-.046.04-.048.063-.003.023-.022.067-.043.08-.021.011-.045.035-.018.054.028.019.065.046.078.072.012.025.121.079.185-.045.021-.04.047-.054.102-.07.055-.017.064-.059.135-.054.047.003.046.051.037.076-.008.025-.026.097-.026.13 0 .034-.009.071-.043.075l.08.106c.07.005.08-.02.072-.058-.009-.038.004-.067.042-.08.038-.012.05.022.046.047.017.038.041.084.079.118.072-.003.11.022.134.043.026.022.114.056.156.052.042-.004.143.002.223.04.08.039.141.068.218.065.084-.003.15-.034.145-.076-.005-.042-.004-.084.04-.106.07-.036.024-.103.066-.148.03-.031.035-.092.035-.148 0-.056.012-.115.04-.148.029-.033.05-.078.035-.112-.013-.033-.015-.1-.007-.131.009-.031 0-.056-.019-.07-.02-.015-.036-.046-.039-.062-.002-.017-.013-.042-.027-.054-.014-.011-.054-.006-.07.008-.017.014-.085.019-.113.016-.028-.003-.064.013-.073.058-.01.045-.043.123-.06.148-.018.025-.049.072-.097.058-.047-.015-.103-.007-.131-.001-.029.005-.107.004-.124-.04-.016-.045.001-.124.133-.098l-.32-.233zM20.1 25.296c.885.356 1.814.155 3.08-.164 1.268-.32 2.783-.169 4.156.374 1.055.417 1.637.996 2.102 1.473.083.085.041.11-.027.134-.067.024-.101.049-.186.064-.084.016-.107-.042-.175-.12-.738-.84-1.397-1.468-2.381-1.65-.392-.072-1.027-.06-1.585.181-1.254.544-3.303.987-5-.25-.092-.068-.02-.057.015-.042M18.458 23.143c-.06-.081-.054-.093.034-.039.61.378.97.576 1.65.72.68.143 1.384.354 1.702.475.319.122.649.219.9.267.067.013.077-.031-.004-.056-1.09-.334-1.496-1.277-1.732-1.927-.235-.65-.279-.956-.333-1.108-.054-.152-.01-.118.073-.016.647.793.88.785 1.465 1.694.484.751.623 1.308 1.115 1.494.091.034.082.069-.024.078-.472.038-.676.14-1.137.203-1.099.15-2.386.016-3.71-1.785" transform="translate(-10 -1)"/>
                    <path fill="#FEFEFE" d="M17.094 20.129c-.025-.095-.01-.092.04-.022.628.879 1.031 1.211 1.437 1.486.442.3 1.3 1.084 1.83 1.629.063.064.116.026.06-.041-.704-.858-.866-1.978-.909-2.558-.042-.58-.104-1.068-.136-1.195-.032-.126-.004-.102.043-.016.608 1.134 1.144 2.017 1.244 2.96.073.693.084 1.023.158 1.175.074.152.016.102-.093.05-.143-.07-.72-.228-1.09-.334-1.2-.344-2.032-1.103-2.584-3.134" transform="translate(-10 -1)"/>
                    <path fill="#FEFEFE" d="M16.548 17.307c-.017-.059-.041-.067-.034.008.148 1.553.744 2.554 1.6 3.239.266.213.758.59.824.691.066.102.11.155.093-.016-.075-.74.185-1.173.171-2.148-.013-.925-.09-1.405-.334-2.113-.009-.025-.028-.034-.028.014.006.355-.134.748-.197 1.1-.093.511-.172 1.351-.042 1.915.071.312.133.506.155.579.021.073-.024.14-.08.021-.442-.95-1.014-1.595-1.362-1.995-.407-.467-.646-.874-.766-1.295" transform="translate(-10 -1)"/>
                    <path fill="#FEFEFE" d="M17.854 18.716c.033.081.061.073.068-.022.028-.43.26-.744.46-1.203.199-.46.563-1.27.53-2.547-.002-.05-.037-.08-.055-.001-.126.56-.529 1-.75 1.578-.209.549-.294 1.068-.314 1.27-.007.079-.07.078-.084-.007-.153-.918-.535-1.965-.938-2.7-.154-.281-.209-.645-.213-.751-.005-.107-.046-.087-.06.002-.226 1.307.113 2.62.906 3.602.196.243.314.447.45.779" transform="translate(-10 -1)"/>
                    <path fill="#FEFEFE" d="M17.624 16.607c.005.072.03.14.05-.01.088-.66.696-1.187.864-1.415.54-.732 1.067-1.75 1.226-2.32.016-.057-.014-.097-.075-.02-.42.53-1.28.99-1.685 1.955-.06.145-.128.145-.115-.024.068-.85 0-1.473-.053-1.944-.052-.471.09-1.024.159-1.14.069-.117-.03-.075-.068-.018-.79 1.19-.931 2.318-.58 3.745.165.668.252.888.277 1.19" transform="translate(-10 -1)"/>
                    <path fill="#FEFEFE" d="M18.186 13.987c-.019.09.019.117.09.002.2-.328.397-.49.694-.708.729-.537 1.454-1.266 1.794-2.127.032-.082-.008-.079-.068-.001-.385.499-1.178.767-1.642 1.272-.142.155-.28.332-.32.393-.04.062-.106.055-.077-.051.26-.949.344-1.382.398-1.675.055-.294.203-.656.331-.83.05-.068.014-.106-.073-.024-.875.835-1.221 1.547-1.157 2.612.042.685.078.908.03 1.137" transform="translate(-10 -1)"/>
                    <path fill="#FEFEFE" d="M18.87 12.355c-.016.097.004.12.054.064.538-.598.932-.765 1.6-1.644.258-.338.465-.71.738-.976.06-.058.023-.109-.075-.06-.984.491-2.08 1.191-2.317 2.616" transform="translate(-10 -1)"/>
                    <path stroke="#FEFEFE" stroke-width=".677" d="M25.454 16.261c.12-.693.724-1.22 1.452-1.22.13 0 .257.017.377.05M27.907 15.433c.29.268.472.652.472 1.078 0 .51-.26.958-.655 1.222M27.265 17.936c-.114.029-.235.044-.36.044-.688 0-1.266-.471-1.427-1.109" transform="translate(-10 -1)"/>
                    <path stroke="#FEFEFE" stroke-width=".2" d="M26.906 19.452c-1.628 0-2.948-1.317-2.948-2.941 0-1.624 1.32-2.941 2.948-2.941s2.948 1.317 2.948 2.94" transform="translate(-10 -1)"/>
                    <path stroke="#FEFEFE" stroke-width=".2" d="M26.906 20.923c-2.443 0-4.423-1.975-4.423-4.412s1.98-4.413 4.423-4.413c2.442 0 4.422 1.976 4.422 4.413 0 2.437-1.98 4.412-4.422 4.412z" transform="translate(-10 -1)"/>
                    <path stroke="#FEFEFE" stroke-width=".2" d="M26.906 22.395c-3.257 0-5.898-2.634-5.898-5.884 0-3.25 2.64-5.884 5.898-5.884 3.257 0 5.897 2.634 5.897 5.884 0 3.25-2.64 5.884-5.897 5.884z" transform="translate(-10 -1)"/>
                    <path stroke="#FEFEFE" stroke-width=".2" d="M26.906 23.867c-4.072 0-7.373-3.294-7.373-7.356 0-4.063 3.301-7.356 7.373-7.356 4.071 0 7.372 3.293 7.372 7.356 0 4.062-3.3 7.356-7.372 7.356zM34.278 16.511L28.379 16.511M32.119 11.31L28.775 14.646M26.906 9.155L26.906 15.037M21.692 11.31L25.861 15.469M19.533 16.511L23.272 16.511M21.692 21.712L25.861 17.553M26.906 23.867L26.906 19.656M32.119 21.712L29.822 19.421" transform="translate(-10 -1)"/>
                    <path fill="#FEFEFE" d="M33.693 25.512c-.852.456-1.841.052-3.103-.286-1.263-.34-2.805-.312-4.186.21-1.061.4-1.715.983-2.188 1.453-.084.084-.042.109.025.134.068.026.101.051.185.068.085.017.109-.041.178-.117.75-.83 1.457-1.397 2.443-1.564.393-.066 1.091-.033 1.646.218 1.245.562 3.224 1.1 5.014-.074.096-.063.02-.06-.014-.042M35.241 23.338c.06-.082.018-.082-.067-.023-.54.377-.915.587-1.597.72-.682.133-1.402.307-1.723.425-.32.117-.702.208-.955.253-.066.011-.077-.039.006-.056 1.298-.275 1.554-1.23 1.799-1.876.246-.646.344-1.014.4-1.165.057-.152.013-.119-.072-.017-.659.782-.879.796-1.479 1.696-.495.744-.604 1.248-1.237 1.49-.092.034-.084.067.022.078.471.046.642.128 1.096.233 1.012.235 2.52.035 3.807-1.758" transform="translate(-10 -1)"/>
                    <path fill="#FEFEFE" d="M36.642 20.496c.033-.092.012-.092-.039-.023-.641.87-1.113 1.183-1.46 1.465-.414.336-1.29.925-1.855 1.6-.057.069-.116.025-.06-.042.719-.847.898-1.964.95-2.543.05-.58.157-1.13.191-1.256.034-.126.006-.102-.042-.017-.625 1.125-1.187 2.088-1.301 3.03-.084.692-.126.996-.202 1.147-.076.15.033.102.143.05.143-.067.672-.217 1.045-.317.977-.262 1.935-1.147 2.63-3.094" transform="translate(-10 -1)"/>
                    <path fill="#FEFEFE" d="M37.215 17.804c.018-.058.04-.067.034.009-.134 1.765-.783 2.429-1.649 3.1-.27.21-.767.579-.835.68-.067.1-.112.153-.092-.017.085-.74-.155-1.252-.126-2.227.027-.924.112-1.264.366-1.97.009-.024.029-.033.027.016-.011.354.085.775.143 1.128.085.512.227 1.19.038 1.827-.09.307-.14.504-.164.577-.022.072.022.14.08.022.456-.943 1-1.517 1.354-1.911.414-.461.697-.814.824-1.234" transform="translate(-10 -1)"/>
                    <path fill="#FEFEFE" d="M35.913 19.118c-.035.08-.085.072-.093-.023-.03-.38-.212-.785-.45-1.227-.268-.5-.531-1.265-.428-2.526.004-.05.063-.079.08 0 .151.698.459 1.037.67 1.62.202.551.254 1.156.27 1.358.007.079.075.08.085-.005.104-.991.577-2.02.992-2.75.157-.278.218-.653.224-.76.006-.106.053-.087.06.003.1 1.286-.09 2.593-.898 3.563-.2.24-.371.417-.512.747M35.644 14.231c.017.086-.02.112-.086 0-.188-.318-.384-.46-.682-.652-.565-.362-1.314-1.262-1.64-2.043-.033-.078.046-.1.102-.025.363.485.994.703 1.432 1.195.134.15.34.411.377.47.037.06.11.052.076-.048-.248-.738-.323-1.407-.371-1.69-.048-.282-.147-.682-.268-.852-.047-.066-.007-.106.07-.021.753.826 1.113 1.553 1.036 2.575-.05.657-.088.87-.046 1.091" transform="translate(-10 -1)"/>
                    <path fill="#FEFEFE" d="M34.968 12.705c.01.098-.005.12-.054.063-.53-.606-.757-.615-1.411-1.504-.253-.342-.416-.895-.685-1.164-.059-.059-.02-.112.076-.059.837.469 1.934 1.336 2.074 2.664" transform="translate(-10 -1)"/>
                    <path fill="#FEFEFE" d="M34.159 13.276c.23.46.646 1.422.796 1.73.382.788 1.04 1.428 1.103 1.668.063.24.087.218.122-.017.11-.74.438-.555.539-2.125.038-.605-.278-1.849-.75-2.487-.05-.067-.114-.04-.067.067.139.315.19.899.076 1.542-.114.642-.026 1.625 0 1.776.025.152-.033.134-.076.013-.253-.706-.8-1.428-1.187-1.752-.264-.22-.404-.39-.468-.453-.063-.063-.139-.063-.088.038" transform="translate(-10 -1)"/>
                </g>
            </g>
        </g>
    </g>
</svg>
