<svg xmlns="http://www.w3.org/2000/svg" xmlns:xlink="http://www.w3.org/1999/xlink" width="34" height="34" viewBox="0 0 34 34">
    <defs>
        <circle id="prefix__a" cx="17" cy="17" r="17"/>
        <path id="prefix__c" d="M.204 17.5c0 9.666 8.506 17.5 19 17.5 10.493 0 19-7.834 19-17.5 0-9.664-8.507-17.5-19-17.5-10.494 0-19 7.836-19 17.5z"/>
    </defs>
    <g fill="none" fill-rule="evenodd">
        <mask id="prefix__b" fill="#fff">
            <use xlink:href="#prefix__a"/>
        </mask>
        <use fill="#4A90E2" xlink:href="#prefix__a"/>
        <g mask="url(#prefix__b)">
            <g transform="translate(-2 -1)">
                <mask id="prefix__d" fill="#fff">
                    <use xlink:href="#prefix__c"/>
                </mask>
                <path fill="#E5332A" d="M-6.884 35L6.116 35 6.116 1 -6.884 1z" mask="url(#prefix__d)"/>
                <path fill="#FEFEFE" d="M6.023 35L31.838 35 31.838 1 6.023 1z" mask="url(#prefix__d)"/>
                <path fill="#E5332A" d="M31.838 35L44.744 35 44.744 1 31.838 1zM28.444 14.046c-.269.983-.517 1.88-.759 2.78-.153.57-.122.628.406.88l.77.364c-.657.531-1.27 1.027-1.884 1.521-.904.73-1.802 1.465-2.717 2.182-.363.284-.473.601-.312 1.033.12.326.2.666.323 1.08-.53-.05-1.006-.09-1.48-.142-1.012-.111-2.025-.218-3.034-.348-.397-.052-.502.114-.48.465.09 1.383.175 2.767.257 4.15.012.2.001.401.001.628h-1.238c.046-.882.088-1.75.138-2.616.04-.699.095-1.397.133-2.097.027-.51-.034-.57-.538-.515-1.246.135-2.492.282-3.738.42-.217.024-.435.028-.704.045.116-.4.202-.752.323-1.09.149-.417.044-.723-.303-.999-1.392-1.107-2.774-2.227-4.159-3.343-.135-.11-.267-.222-.45-.373.319-.153.584-.298.863-.41.358-.144.444-.381.342-.733-.245-.855-.477-1.712-.713-2.57-.022-.081-.03-.166-.06-.328.686.136 1.334.241 1.97.396 1.34.324 1.155.125 1.474-.87.044-.138.083-.278.143-.48.666.738 1.298 1.445 1.94 2.142.22.239.418.645.808.47.422-.19.22-.607.16-.94-.284-1.53-.574-3.061-.878-4.683.373.186.692.341 1.009.501.798.405.936.364 1.35-.4l1.518-2.805 1.094 2.015c.195.36.389.72.587 1.078.195.356.482.456.853.275.421-.205.84-.418 1.342-.669-.161.872-.308 1.675-.46 2.477-.154.816-.335 1.628-.456 2.448-.033.224.111.473.174.71.226-.098.511-.14.667-.304.71-.739 1.382-1.513 2.11-2.32.114.391.213.721.304 1.053.105.377.332.518.729.428.704-.159 1.413-.298 2.12-.442.125-.026.253-.036.455-.064" mask="url(#prefix__d)"/>
            </g>
        </g>
    </g>
</svg>
