<?xml version="1.0" encoding="UTF-8"?>
<svg width="34px" height="34px" viewBox="0 0 34 34" version="1.1" xmlns="http://www.w3.org/2000/svg" xmlns:xlink="http://www.w3.org/1999/xlink">
    <!-- Generator: Sketch 63.1 (92452) - https://sketch.com -->
    <title>ic_flag_argentina</title>
    <desc>Created with Sketch.</desc>
    <defs>
        <circle id="path-1" cx="17" cy="17" r="17"></circle>
    </defs>
    <g id="Mobile" stroke="none" stroke-width="1" fill="none" fill-rule="evenodd">
        <g id="M-Letter---world-leader-corona-G20" transform="translate(-358.000000, -1962.000000)">
            <g id="Group-9-Copy-9" transform="translate(0.000000, 1926.000000)">
                <g id="ic_flag_argentina" transform="translate(358.000000, 36.000000)">
                    <mask id="mask-2" fill="white">
                        <use xlink:href="#path-1"></use>
                    </mask>
                    <use id="Mask" fill="#65ABE0" xlink:href="#path-1"></use>
                    <g id="Group-134" mask="url(#mask-2)">
                        <g transform="translate(-10.000000, 0.000000)">
                            <polygon id="Fill-1" fill="#74ACDF" points="0 33.7186 53.95 33.7186 53.95 -0.0004 0 -0.0004"></polygon>
                            <polygon id="Fill-2" fill="#FFFFFF" points="0 22.4796 53.95 22.4796 53.95 11.2406 0 11.2406"></polygon>
                            <g id="Group-133" stroke-width="1" fill="none" transform="translate(22.000000, 11.718600)">
                                <g id="Group-6" transform="translate(4.000000, 5.000000)">
                                    <path d="M1.1421,1.679 C1.1191,2.315 1.5101,2.665 1.4581,3.232 C1.4081,3.8 1.7191,4.121 1.7911,4.342 C1.8641,4.563 1.7131,4.695 1.7781,4.726 C1.8431,4.758 1.9851,4.583 1.9391,4.269 C1.8921,3.955 1.6541,3.862 1.7101,3.169 C1.7671,2.475 1.4271,2.314 1.5091,1.681 M0.7621,0.229 L2.6811,4.409 C2.6811,4.409 2.7141,4.49 2.7671,4.468 C2.8201,4.446 2.7871,4.366 2.7871,4.366 L1.1881,0.053" id="Fill-3" fill="#F6B40E"></path>
                                    <path d="M1.1421,1.679 C1.1191,2.315 1.5101,2.665 1.4581,3.232 C1.4081,3.8 1.7191,4.121 1.7911,4.342 C1.8641,4.563 1.7131,4.695 1.7781,4.726 C1.8431,4.758 1.9851,4.583 1.9391,4.269 C1.8921,3.955 1.6541,3.862 1.7101,3.169 C1.7671,2.475 1.4271,2.314 1.5091,1.681 M0.7621,0.229 L2.6811,4.409 C2.6811,4.409 2.7141,4.49 2.7671,4.468 C2.8201,4.446 2.7871,4.366 2.7871,4.366 L1.1881,0.053" id="Stroke-5" stroke="#85340A" stroke-width="0.075"></path>
                                </g>
                                <g id="Group-10" transform="translate(3.000000, 5.000000)">
                                    <path d="M1.5405,1.6258 C1.2755,2.2048 1.5025,2.6768 1.2385,3.1818 C0.9745,3.6878 1.1395,4.1038 1.1215,4.3348 C1.1035,4.5668 0.9145,4.6308 0.9625,4.6848 C1.0105,4.7388 1.2085,4.6318 1.2855,4.3238 C1.3625,4.0168 1.1785,3.8388 1.4955,3.2198 C1.8125,2.6008 1.5615,2.3208 1.8795,1.7688 M1.7445,0.1408 L1.9165,4.7378 C1.9165,4.7378 1.9165,4.8238 1.9745,4.8238 C2.0325,4.8238 2.0325,4.7378 2.0325,4.7378 L2.2055,0.1408" id="Fill-7" fill="#F6B40E"></path>
                                    <path d="M1.5405,1.6258 C1.2755,2.2048 1.5025,2.6768 1.2385,3.1818 C0.9745,3.6878 1.1395,4.1038 1.1215,4.3348 C1.1035,4.5668 0.9145,4.6308 0.9625,4.6848 C1.0105,4.7388 1.2085,4.6318 1.2855,4.3238 C1.3625,4.0168 1.1785,3.8388 1.4955,3.2198 C1.8125,2.6008 1.5615,2.3208 1.8795,1.7688 M1.7445,0.1408 L1.9165,4.7378 C1.9165,4.7378 1.9165,4.8238 1.9745,4.8238 C2.0325,4.8238 2.0325,4.7378 2.0325,4.7378 L2.2055,0.1408" id="Stroke-9" stroke="#85340A" stroke-width="0.075"></path>
                                </g>
                                <g id="Group-14" transform="translate(2.000000, 5.000000)">
                                    <path d="M2.0054,1.3465 C1.5394,1.7795 1.5684,2.3035 1.1304,2.6685 C0.6934,3.0345 0.6864,3.4815 0.5814,3.6895 C0.4764,3.8965 0.2764,3.8835 0.3004,3.9515 C0.3244,4.0195 0.5474,3.9965 0.7374,3.7425 C0.9264,3.4875 0.8234,3.2525 1.3544,2.8025 C1.8834,2.3515 1.7574,1.9965 2.2634,1.6085 M2.7614,0.0525 L1.1624,4.3655 C1.1624,4.3655 1.1294,4.4455 1.1824,4.4675 C1.2354,4.4895 1.2694,4.4095 1.2694,4.4095 L3.1884,0.2285" id="Fill-11" fill="#F6B40E"></path>
                                    <path d="M2.0054,1.3465 C1.5394,1.7795 1.5684,2.3035 1.1304,2.6685 C0.6934,3.0345 0.6864,3.4815 0.5814,3.6895 C0.4764,3.8965 0.2764,3.8835 0.3004,3.9515 C0.3244,4.0195 0.5474,3.9965 0.7374,3.7425 C0.9264,3.4875 0.8234,3.2525 1.3544,2.8025 C1.8834,2.3515 1.7574,1.9965 2.2634,1.6085 M2.7614,0.0525 L1.1624,4.3655 C1.1624,4.3655 1.1294,4.4455 1.1824,4.4675 C1.2354,4.4895 1.2694,4.4095 1.2694,4.4095 L3.1884,0.2285" id="Stroke-13" stroke="#85340A" stroke-width="0.075"></path>
                                </g>
                                <g id="Group-18" transform="translate(1.000000, 4.000000)">
                                    <path d="M2.6177,1.8836 C2.0207,2.1056 1.8477,2.6006 1.3037,2.7706 C0.7597,2.9406 0.5827,3.3516 0.4057,3.5036 C0.2297,3.6546 0.0507,3.5656 0.0457,3.6376 C0.0417,3.7096 0.2577,3.7746 0.5297,3.6116 C0.8017,3.4486 0.7967,3.1926 1.4587,2.9796 C2.1207,2.7656 2.1397,2.3896 2.7567,2.2236 M3.8117,0.9776 L0.6837,4.3506 C0.6837,4.3506 0.6227,4.4116 0.6627,4.4516 C0.7037,4.4926 0.7647,4.4316 0.7647,4.4316 L4.1377,1.3036" id="Fill-15" fill="#F6B40E"></path>
                                    <path d="M2.6177,1.8836 C2.0207,2.1056 1.8477,2.6006 1.3037,2.7706 C0.7597,2.9406 0.5827,3.3516 0.4057,3.5036 C0.2297,3.6546 0.0507,3.5656 0.0457,3.6376 C0.0417,3.7096 0.2577,3.7746 0.5297,3.6116 C0.8017,3.4486 0.7967,3.1926 1.4587,2.9796 C2.1207,2.7656 2.1397,2.3896 2.7567,2.2236 M3.8117,0.9776 L0.6837,4.3506 C0.6837,4.3506 0.6227,4.4116 0.6627,4.4516 C0.7037,4.4926 0.7647,4.4316 0.7647,4.4316 L4.1377,1.3036" id="Stroke-17" stroke="#85340A" stroke-width="0.075"></path>
                                </g>
                                <path d="M4.8682,5.1912 L6.1822,8.0622 L5.0812,5.1032 M5.2652,6.7872 C5.2962,7.3972 5.6422,7.6682 5.5742,8.2242 C5.7232,7.7842 5.3642,7.4432 5.3842,6.7932" id="Fill-19" fill="#85340A"></path>
                                <path d="M4.8569,5.1463 L4.9729,8.3023 L5.0879,5.1463 M4.6129,6.7723 C4.4079,7.3483 4.6249,7.7303 4.3489,8.2193 C4.6549,7.8693 4.4529,7.4173 4.7209,6.8243" id="Fill-21" fill="#85340A"></path>
                                <path d="M4.8638,5.1009 L3.7628,8.0599 L5.0768,5.1889 M4.0168,6.5099 C3.6068,6.9639 3.6598,7.3999 3.2178,7.7449 C3.6348,7.5389 3.6218,7.0439 4.0958,6.5989" id="Fill-23" fill="#85340A"></path>
                                <path d="M4.8877,5.0613 L2.7377,7.3743 L5.0507,5.2243 M3.5657,6.0393 C3.0127,6.3013 2.8957,6.7243 2.3557,6.8743 C2.8197,6.8443 2.9967,6.3813 3.6047,6.1513" id="Fill-25" fill="#85340A"></path>
                                <g id="Group-30" transform="translate(0.000000, 4.000000)">
                                    <path d="M3.4365,1.3079 C2.8005,1.2849 2.4515,1.6759 1.8835,1.6239 C1.3155,1.5739 0.9945,1.8849 0.7735,1.9569 C0.5525,2.0299 0.4205,1.8789 0.3895,1.9439 C0.3575,2.0089 0.5325,2.1509 0.8465,2.1049 C1.1605,2.0579 1.2535,1.8199 1.9465,1.8759 C2.6405,1.9329 2.8015,1.5929 3.4345,1.6749 M4.8865,0.9279 L0.7065,2.8469 C0.7065,2.8469 0.6255,2.8799 0.6475,2.9329 C0.6695,2.9859 0.7495,2.9529 0.7495,2.9529 L5.0625,1.3539" id="Fill-27" fill="#F6B40E"></path>
                                    <path d="M3.4365,1.3079 C2.8005,1.2849 2.4515,1.6759 1.8835,1.6239 C1.3155,1.5739 0.9945,1.8849 0.7735,1.9569 C0.5525,2.0299 0.4205,1.8789 0.3895,1.9439 C0.3575,2.0089 0.5325,2.1509 0.8465,2.1049 C1.1605,2.0579 1.2535,1.8199 1.9465,1.8759 C2.6405,1.9329 2.8015,1.5929 3.4345,1.6749 M4.8865,0.9279 L0.7065,2.8469 C0.7065,2.8469 0.6255,2.8799 0.6475,2.9329 C0.6695,2.9859 0.7495,2.9529 0.7495,2.9529 L5.0625,1.3539" id="Stroke-29" stroke="#85340A" stroke-width="0.075"></path>
                                </g>
                                <g id="Group-34" transform="translate(0.000000, 4.000000)">
                                    <path d="M3.4897,0.7063 C2.9107,0.4413 2.4387,0.6683 1.9337,0.4043 C1.4277,0.1403 1.0127,0.3053 0.7807,0.2873 C0.5497,0.2693 0.4847,0.0803 0.4307,0.1283 C0.3767,0.1763 0.4837,0.3743 0.7917,0.4513 C1.0987,0.5293 1.2767,0.3443 1.8957,0.6613 C2.5147,0.9783 2.7947,0.7273 3.3467,1.0453 M4.9747,0.9103 L0.3777,1.0823 C0.3777,1.0823 0.2917,1.0823 0.2917,1.1403 C0.2917,1.1983 0.3777,1.1983 0.3777,1.1983 L4.9747,1.3713" id="Fill-31" fill="#F6B40E"></path>
                                    <path d="M3.4897,0.7063 C2.9107,0.4413 2.4387,0.6683 1.9337,0.4043 C1.4277,0.1403 1.0127,0.3053 0.7807,0.2873 C0.5497,0.2693 0.4847,0.0803 0.4307,0.1283 C0.3767,0.1763 0.4837,0.3743 0.7917,0.4513 C1.0987,0.5293 1.2767,0.3443 1.8957,0.6613 C2.5147,0.9783 2.7947,0.7273 3.3467,1.0453 M4.9747,0.9103 L0.3777,1.0823 C0.3777,1.0823 0.2917,1.0823 0.2917,1.1403 C0.2917,1.1983 0.3777,1.1983 0.3777,1.1983 L4.9747,1.3713" id="Stroke-33" stroke="#85340A" stroke-width="0.075"></path>
                                </g>
                                <g id="Group-38" transform="translate(0.000000, 2.000000)">
                                    <path d="M3.769,2.1712 C3.336,1.7052 2.812,1.7342 2.447,1.2962 C2.082,0.8592 1.634,0.8522 1.427,0.7472 C1.219,0.6422 1.232,0.4422 1.164,0.4662 C1.096,0.4902 1.119,0.7132 1.373,0.9032 C1.628,1.0922 1.863,0.9892 2.313,1.5202 C2.764,2.0492 3.119,1.9232 3.507,2.4292 M5.063,2.9272 L0.75,1.3282 C0.75,1.3282 0.67,1.2952 0.648,1.3482 C0.626,1.4012 0.706,1.4352 0.706,1.4352 L4.887,3.3542" id="Fill-35" fill="#F6B40E"></path>
                                    <path d="M3.769,2.1712 C3.336,1.7052 2.812,1.7342 2.447,1.2962 C2.082,0.8592 1.634,0.8522 1.427,0.7472 C1.219,0.6422 1.232,0.4422 1.164,0.4662 C1.096,0.4902 1.119,0.7132 1.373,0.9032 C1.628,1.0922 1.863,0.9892 2.313,1.5202 C2.764,2.0492 3.119,1.9232 3.507,2.4292 M5.063,2.9272 L0.75,1.3282 C0.75,1.3282 0.67,1.2952 0.648,1.3482 C0.626,1.4012 0.706,1.4352 0.706,1.4352 L4.887,3.3542" id="Stroke-37" stroke="#85340A" stroke-width="0.075"></path>
                                </g>
                                <g id="Group-42" transform="translate(1.000000, 1.000000)">
                                    <path d="M3.2319,2.7835 C3.0099,2.1865 2.5149,2.0135 2.3449,1.4695 C2.1749,0.9255 1.7639,0.7485 1.6119,0.5715 C1.4609,0.3955 1.5499,0.2165 1.4779,0.2115 C1.4059,0.2075 1.3409,0.4235 1.5039,0.6955 C1.6669,0.9675 1.9229,0.9625 2.1369,1.6245 C2.3499,2.2865 2.7259,2.3055 2.8919,2.9225 M4.1379,3.9775 L0.7649,0.8495 C0.7649,0.8495 0.7039,0.7885 0.6639,0.8285 C0.6229,0.8695 0.6839,0.9305 0.6839,0.9305 L3.8119,4.3035" id="Fill-39" fill="#F6B40E"></path>
                                    <path d="M3.2319,2.7835 C3.0099,2.1865 2.5149,2.0135 2.3449,1.4695 C2.1749,0.9255 1.7639,0.7485 1.6119,0.5715 C1.4609,0.3955 1.5499,0.2165 1.4779,0.2115 C1.4059,0.2075 1.3409,0.4235 1.5039,0.6955 C1.6669,0.9675 1.9229,0.9625 2.1369,1.6245 C2.3499,2.2865 2.7259,2.3055 2.8919,2.9225 M4.1379,3.9775 L0.7649,0.8495 C0.7649,0.8495 0.7039,0.7885 0.6639,0.8285 C0.6229,0.8695 0.6839,0.9305 0.6839,0.9305 L3.8119,4.3035" id="Stroke-41" stroke="#85340A" stroke-width="0.075"></path>
                                </g>
                                <path d="M4.9243,5.034 L2.0533,6.348 L5.0123,5.247 M3.3283,5.431 C2.7183,5.462 2.4473,5.808 1.8913,5.74 C2.3313,5.889 2.6723,5.53 3.3223,5.55" id="Fill-43" fill="#85340A"></path>
                                <path d="M4.9692,5.0232 L1.8132,5.1382 L4.9692,5.2532 M3.3432,4.7792 C2.7672,4.5742 2.3852,4.7902 1.8962,4.5142 C2.2462,4.8202 2.6992,4.6192 3.2912,4.8862" id="Fill-45" fill="#85340A"></path>
                                <path d="M5.0146,5.0296 L2.0556,3.9286 L4.9266,5.2426 M3.6056,4.1826 C3.1516,3.7726 2.7156,3.8256 2.3706,3.3836 C2.5766,3.8006 3.0716,3.7876 3.5166,4.2616" id="Fill-47" fill="#85340A"></path>
                                <path d="M5.0542,5.0535 L2.7412,2.9035 L4.8912,5.2165 M4.0762,3.7315 C3.8142,3.1785 3.3912,3.0615 3.2412,2.5215 C3.2712,2.9855 3.7342,3.1625 3.9642,3.7705" id="Fill-49" fill="#85340A"></path>
                                <g id="Group-54" transform="translate(3.000000, 0.000000)">
                                    <path d="M1.8076,3.6023 C1.8306,2.9663 1.4396,2.6173 1.4916,2.0493 C1.5426,1.4813 1.2306,1.1603 1.1586,0.9393 C1.0856,0.7183 1.2366,0.5863 1.1716,0.5553 C1.1066,0.5233 0.9646,0.6983 1.0106,1.0123 C1.0576,1.3263 1.2956,1.4193 1.2396,2.1123 C1.1836,2.8063 1.5226,2.9673 1.4406,3.6003 M2.1876,5.0523 L0.2686,0.8723 C0.2686,0.8723 0.2366,0.7913 0.1826,0.8133 C0.1296,0.8353 0.1626,0.9153 0.1626,0.9153 L1.7616,5.2283" id="Fill-51" fill="#F6B40E"></path>
                                    <path d="M1.8076,3.6023 C1.8306,2.9663 1.4396,2.6173 1.4916,2.0493 C1.5426,1.4813 1.2306,1.1603 1.1586,0.9393 C1.0856,0.7183 1.2366,0.5863 1.1716,0.5553 C1.1066,0.5233 0.9646,0.6983 1.0106,1.0123 C1.0576,1.3263 1.2956,1.4193 1.2396,2.1123 C1.1836,2.8063 1.5226,2.9673 1.4406,3.6003 M2.1876,5.0523 L0.2686,0.8723 C0.2686,0.8723 0.2366,0.7913 0.1826,0.8133 C0.1296,0.8353 0.1626,0.9153 0.1626,0.9153 L1.7616,5.2283" id="Stroke-53" stroke="#85340A" stroke-width="0.075"></path>
                                </g>
                                <g id="Group-58" transform="translate(4.000000, 0.000000)">
                                    <path d="M1.4092,3.6555 C1.6742,3.0765 1.4472,2.6045 1.7112,2.0995 C1.9752,1.5935 1.8102,1.1785 1.8282,0.9465 C1.8462,0.7155 2.0352,0.6505 1.9872,0.5965 C1.9392,0.5425 1.7412,0.6495 1.6642,0.9575 C1.5872,1.2645 1.7712,1.4425 1.4542,2.0615 C1.1372,2.6805 1.3892,2.9605 1.0702,3.5125 M1.2052,5.1405 L1.0332,0.5445 C1.0332,0.5445 1.0332,0.4575 0.9752,0.4575 C0.9172,0.4575 0.9172,0.5435 0.9172,0.5435 L0.7442,5.1405" id="Fill-55" fill="#F6B40E"></path>
                                    <path d="M1.4092,3.6555 C1.6742,3.0765 1.4472,2.6045 1.7112,2.0995 C1.9752,1.5935 1.8102,1.1785 1.8282,0.9465 C1.8462,0.7155 2.0352,0.6505 1.9872,0.5965 C1.9392,0.5425 1.7412,0.6495 1.6642,0.9575 C1.5872,1.2645 1.7712,1.4425 1.4542,2.0615 C1.1372,2.6805 1.3892,2.9605 1.0702,3.5125 M1.2052,5.1405 L1.0332,0.5445 C1.0332,0.5445 1.0332,0.4575 0.9752,0.4575 C0.9172,0.4575 0.9172,0.5435 0.9172,0.5435 L0.7442,5.1405" id="Stroke-57" stroke="#85340A" stroke-width="0.075"></path>
                                </g>
                                <g id="Group-62" transform="translate(4.000000, 0.000000)">
                                    <path d="M1.9443,3.9348 C2.4103,3.5018 2.3813,2.9778 2.8193,2.6128 C3.2563,2.2478 3.2633,1.7998 3.3683,1.5928 C3.4733,1.3848 3.6733,1.3978 3.6493,1.3308 C3.6253,1.2618 3.4023,1.2848 3.2123,1.5388 C3.0233,1.7938 3.1263,2.0288 2.5953,2.4788 C2.0663,2.9308 2.1923,3.2848 1.6863,3.6738 M1.1883,5.2288 L2.7873,0.9158 C2.7873,0.9158 2.8203,0.8358 2.7673,0.8138 C2.7143,0.7918 2.6803,0.8718 2.6803,0.8718 L0.7623,5.0528" id="Fill-59" fill="#F6B40E"></path>
                                    <path d="M1.9443,3.9348 C2.4103,3.5018 2.3813,2.9778 2.8193,2.6128 C3.2563,2.2478 3.2633,1.7998 3.3683,1.5928 C3.4733,1.3848 3.6733,1.3978 3.6493,1.3308 C3.6253,1.2618 3.4023,1.2848 3.2123,1.5388 C3.0233,1.7938 3.1263,2.0288 2.5953,2.4788 C2.0663,2.9308 2.1923,3.2848 1.6863,3.6738 M1.1883,5.2288 L2.7873,0.9158 C2.7873,0.9158 2.8203,0.8358 2.7673,0.8138 C2.7143,0.7918 2.6803,0.8718 2.6803,0.8718 L0.7623,5.0528" id="Stroke-61" stroke="#85340A" stroke-width="0.075"></path>
                                </g>
                                <g id="Group-66" transform="translate(4.000000, 1.000000)">
                                    <path d="M2.332,3.3977 C2.929,3.1757 3.102,2.6807 3.646,2.5107 C4.19,2.3407 4.368,1.9297 4.544,1.7777 C4.72,1.6267 4.9,1.7157 4.904,1.6437 C4.908,1.5717 4.692,1.5067 4.42,1.6697 C4.148,1.8327 4.153,2.0887 3.491,2.3027 C2.829,2.5157 2.81,2.8917 2.193,3.0577 M1.138,4.3037 L4.266,0.9307 C4.266,0.9307 4.327,0.8697 4.287,0.8297 C4.246,0.7887 4.185,0.8497 4.185,0.8497 L0.812,3.9777" id="Fill-63" fill="#F6B40E"></path>
                                    <path d="M2.332,3.3977 C2.929,3.1757 3.102,2.6807 3.646,2.5107 C4.19,2.3407 4.368,1.9297 4.544,1.7777 C4.72,1.6267 4.9,1.7157 4.904,1.6437 C4.908,1.5717 4.692,1.5067 4.42,1.6697 C4.148,1.8327 4.153,2.0887 3.491,2.3027 C2.829,2.5157 2.81,2.8917 2.193,3.0577 M1.138,4.3037 L4.266,0.9307 C4.266,0.9307 4.327,0.8697 4.287,0.8297 C4.246,0.7887 4.185,0.8497 4.185,0.8497 L0.812,3.9777" id="Stroke-65" stroke="#85340A" stroke-width="0.075"></path>
                                </g>
                                <path d="M5.0815,5.0901 L3.7675,2.2191 L4.8685,5.1781 M4.6845,3.4941 C4.6535,2.8841 4.3075,2.6131 4.3755,2.0571 C4.2265,2.4971 4.5855,2.8381 4.5655,3.4881" id="Fill-67" fill="#85340A"></path>
                                <path d="M5.0928,5.135 L4.9768,1.979 L4.8618,5.135 M5.3368,3.509 C5.5418,2.933 5.3248,2.551 5.6008,2.062 C5.2948,2.412 5.4968,2.865 5.2288,3.457" id="Fill-69" fill="#85340A"></path>
                                <path d="M5.0859,5.1805 L6.1869,2.2215 L4.8729,5.0925 M5.9339,3.7715 C6.3429,3.3175 6.2899,2.8815 6.7319,2.5365 C6.3149,2.7425 6.3279,3.2375 5.8539,3.6825" id="Fill-71" fill="#85340A"></path>
                                <path d="M5.062,5.22 L7.212,2.907 L4.899,5.057 M6.384,4.242 C6.937,3.98 7.054,3.557 7.594,3.407 C7.131,3.437 6.953,3.9 6.345,4.13" id="Fill-73" fill="#85340A"></path>
                                <g id="Group-78" transform="translate(4.000000, 3.000000)">
                                    <path d="M2.5132,1.9734 C3.1492,1.9964 3.4992,1.6054 4.0662,1.6574 C4.6342,1.7084 4.9552,1.3964 5.1762,1.3244 C5.3972,1.2514 5.5292,1.4024 5.5602,1.3374 C5.5922,1.2724 5.4172,1.1304 5.1032,1.1764 C4.7892,1.2234 4.6962,1.4614 4.0032,1.4054 C3.3092,1.3494 3.1482,1.6884 2.5152,1.6064 M1.0632,2.3534 L5.2432,0.4344 C5.2432,0.4344 5.3242,0.4024 5.3022,0.3484 C5.2802,0.2954 5.2002,0.3284 5.2002,0.3284 L0.8872,1.9274" id="Fill-75" fill="#F6B40E"></path>
                                    <path d="M2.5132,1.9734 C3.1492,1.9964 3.4992,1.6054 4.0662,1.6574 C4.6342,1.7084 4.9552,1.3964 5.1762,1.3244 C5.3972,1.2514 5.5292,1.4024 5.5602,1.3374 C5.5922,1.2724 5.4172,1.1304 5.1032,1.1764 C4.7892,1.2234 4.6962,1.4614 4.0032,1.4054 C3.3092,1.3494 3.1482,1.6884 2.5152,1.6064 M1.0632,2.3534 L5.2432,0.4344 C5.2432,0.4344 5.3242,0.4024 5.3022,0.3484 C5.2802,0.2954 5.2002,0.3284 5.2002,0.3284 L0.8872,1.9274" id="Stroke-77" stroke="#85340A" stroke-width="0.075"></path>
                                </g>
                                <g id="Group-82" transform="translate(4.000000, 4.000000)">
                                    <path d="M2.46,1.575 C3.039,1.84 3.511,1.613 4.016,1.877 C4.522,2.141 4.938,1.976 5.169,1.994 C5.4,2.012 5.465,2.201 5.519,2.153 C5.573,2.105 5.466,1.907 5.158,1.83 C4.851,1.753 4.673,1.937 4.054,1.62 C3.435,1.303 3.155,1.555 2.603,1.236 M0.975,1.371 L5.572,1.199 C5.572,1.199 5.658,1.199 5.658,1.141 C5.658,1.083 5.572,1.083 5.572,1.083 L0.975,0.91" id="Fill-79" fill="#F6B40E"></path>
                                    <path d="M2.46,1.575 C3.039,1.84 3.511,1.613 4.016,1.877 C4.522,2.141 4.938,1.976 5.169,1.994 C5.4,2.012 5.465,2.201 5.519,2.153 C5.573,2.105 5.466,1.907 5.158,1.83 C4.851,1.753 4.673,1.937 4.054,1.62 C3.435,1.303 3.155,1.555 2.603,1.236 M0.975,1.371 L5.572,1.199 C5.572,1.199 5.658,1.199 5.658,1.141 C5.658,1.083 5.572,1.083 5.572,1.083 L0.975,0.91" id="Stroke-81" stroke="#85340A" stroke-width="0.075"></path>
                                </g>
                                <g id="Group-86" transform="translate(4.000000, 4.000000)">
                                    <path d="M2.1807,2.1106 C2.6137,2.5766 3.1377,2.5476 3.5027,2.9846 C3.8687,3.4226 4.3157,3.4286 4.5227,3.5336 C4.7307,3.6386 4.7177,3.8386 4.7857,3.8156 C4.8537,3.7916 4.8307,3.5676 4.5767,3.3786 C4.3217,3.1896 4.0867,3.2916 3.6367,2.7616 C3.1857,2.2316 2.8307,2.3576 2.4427,1.8516 M0.8867,1.3536 L5.1997,2.9526 C5.1997,2.9526 5.2797,2.9856 5.3017,2.9326 C5.3237,2.8796 5.2437,2.8466 5.2437,2.8466 L1.0627,0.9276" id="Fill-83" fill="#F6B40E"></path>
                                    <path d="M2.1807,2.1106 C2.6137,2.5766 3.1377,2.5476 3.5027,2.9846 C3.8687,3.4226 4.3157,3.4286 4.5227,3.5336 C4.7307,3.6386 4.7177,3.8386 4.7857,3.8156 C4.8537,3.7916 4.8307,3.5676 4.5767,3.3786 C4.3217,3.1896 4.0867,3.2916 3.6367,2.7616 C3.1857,2.2316 2.8307,2.3576 2.4427,1.8516 M0.8867,1.3536 L5.1997,2.9526 C5.1997,2.9526 5.2797,2.9856 5.3017,2.9326 C5.3237,2.8796 5.2437,2.8466 5.2437,2.8466 L1.0627,0.9276" id="Stroke-85" stroke="#85340A" stroke-width="0.075"></path>
                                </g>
                                <g id="Group-90" transform="translate(4.000000, 4.000000)">
                                    <path d="M1.7178,2.4983 C1.9398,3.0943 2.4348,3.2683 2.6048,3.8113 C2.7748,4.3563 3.1858,4.5333 3.3378,4.7093 C3.4888,4.8863 3.3998,5.0653 3.4718,5.0693 C3.5438,5.0743 3.6088,4.8583 3.4458,4.5863 C3.2828,4.3133 3.0268,4.3193 2.8128,3.6563 C2.5998,2.9953 2.2238,2.9753 2.0578,2.3593 M0.8118,1.3043 L4.1848,4.4323 C4.1848,4.4323 4.2458,4.4933 4.2858,4.4523 C4.3268,4.4113 4.2658,4.3503 4.2658,4.3503 L1.1378,0.9773" id="Fill-87" fill="#F6B40E"></path>
                                    <path d="M1.7178,2.4983 C1.9398,3.0943 2.4348,3.2683 2.6048,3.8113 C2.7748,4.3563 3.1858,4.5333 3.3378,4.7093 C3.4888,4.8863 3.3998,5.0653 3.4718,5.0693 C3.5438,5.0743 3.6088,4.8583 3.4458,4.5863 C3.2828,4.3133 3.0268,4.3193 2.8128,3.6563 C2.5998,2.9953 2.2238,2.9753 2.0578,2.3593 M0.8118,1.3043 L4.1848,4.4323 C4.1848,4.4323 4.2458,4.4933 4.2858,4.4523 C4.3268,4.4113 4.2658,4.3503 4.2658,4.3503 L1.1378,0.9773" id="Stroke-89" stroke="#85340A" stroke-width="0.075"></path>
                                </g>
                                <path d="M5.0254,5.2473 L7.8964,3.9333 L4.9374,5.0343 M6.6214,4.8503 C7.2314,4.8193 7.5024,4.4733 8.0584,4.5413 C7.6184,4.3923 7.2774,4.7513 6.6274,4.7313" id="Fill-91" fill="#85340A"></path>
                                <path d="M4.9805,5.2586 L8.1365,5.1426 L4.9805,5.0276 M6.6065,5.5026 C7.1825,5.7076 7.5645,5.4906 8.0535,5.7666 C7.7035,5.4606 7.2515,5.6626 6.6585,5.3946" id="Fill-93" fill="#85340A"></path>
                                <path d="M4.9351,5.2517 L7.8941,6.3527 L5.0231,5.0387 M6.3441,6.0997 C6.7981,6.5087 7.2341,6.4557 7.5791,6.8977 C7.3731,6.4807 6.8781,6.4937 6.4331,6.0197" id="Fill-95" fill="#85340A"></path>
                                <path d="M4.8955,5.2278 L7.2085,7.3778 L5.0585,5.0648 M5.8735,6.5498 C6.1355,7.1028 6.5585,7.2198 6.7085,7.7598 C6.6785,7.2968 6.2155,7.1188 5.9855,6.5108" id="Fill-97" fill="#85340A"></path>
                                <path d="M4.9751,3.2674 C6.0091,3.2674 6.8481,4.1064 6.8481,5.1414 C6.8481,6.1754 6.0091,7.0144 4.9751,7.0144 C3.9401,7.0144 3.1011,6.1754 3.1011,5.1414 C3.1011,4.1064 3.9401,3.2674 4.9751,3.2674" id="Fill-99" fill="#F6B40E"></path>
                                <path d="M4.9751,3.2674 C6.0091,3.2674 6.8481,4.1064 6.8481,5.1414 C6.8481,6.1754 6.0091,7.0144 4.9751,7.0144 C3.9401,7.0144 3.1011,6.1754 3.1011,5.1414 C3.1011,4.1064 3.9401,3.2674 4.9751,3.2674 Z" id="Stroke-101" stroke="#85340A" stroke-width="0.101"></path>
                                <path d="M5.6113,4.7698 C5.7363,4.7678 5.8523,4.8248 5.8683,4.8808 C5.7243,5.0398 5.4943,5.0258 5.3503,4.9108 C5.4133,4.8098 5.5143,4.7708 5.6113,4.7698 M5.6133,4.7398 C5.4863,4.7398 5.3633,4.7958 5.2913,4.9108 C5.4353,5.0408 5.7533,5.0548 5.9693,4.8958 C5.8763,4.7948 5.7413,4.7398 5.6133,4.7398" id="Fill-103" fill="#843511"></path>
                                <path d="M5.6377,4.6512 C5.4507,4.6512 5.4077,4.6942 5.3207,4.7662 C5.2347,4.8382 5.1907,4.8242 5.1767,4.8382 C5.1627,4.8532 5.1767,4.8962 5.2057,4.8812 C5.2347,4.8672 5.2917,4.8382 5.3787,4.7662 C5.4647,4.6942 5.5517,4.6942 5.6377,4.6942 C5.8967,4.6942 6.0407,4.9102 6.0697,4.8962 C6.0987,4.8812 5.9257,4.6512 5.6377,4.6512" id="Fill-105" fill="#85340A"></path>
                                <path d="M6.1563,4.7376 C5.8253,4.4496 5.4073,4.4056 5.1773,4.6226 C5.1203,4.6976 5.0843,4.7786 5.0693,4.8626 C5.0403,5.0276 5.0913,5.2046 5.2193,5.3856 C5.2053,5.3856 5.1763,5.4006 5.1623,5.4146 C5.0483,5.1956 5.0073,4.9716 5.0453,4.7576 C5.0543,4.7016 5.0703,4.6466 5.0903,4.5926 C5.4063,4.3336 5.8393,4.3046 6.1563,4.7376" id="Fill-107" fill="#85340A"></path>
                                <path d="M5.6089,4.7513 C5.6809,4.7513 5.7389,4.8093 5.7389,4.8813 C5.7389,4.9533 5.6809,5.0103 5.6089,5.0103 C5.5369,5.0103 5.4789,4.9533 5.4789,4.8813 C5.4789,4.8093 5.5369,4.7513 5.6089,4.7513" id="Fill-109" fill="#85340A"></path>
                                <path d="M5.9839,4.968 C5.7389,5.155 5.4939,5.141 5.3499,5.054 C5.2059,4.968 5.2059,4.939 5.2339,4.939 C5.2629,4.939 5.2919,4.968 5.4069,5.026 C5.5229,5.083 5.6949,5.083 5.9839,4.968 Z" id="Fill-111" fill="#85340A"></path>
                                <path d="M4.6885,5.3997 C4.6265,5.4107 4.5835,5.4657 4.5835,5.5277 C4.5835,5.5997 4.6425,5.6567 4.7135,5.6567 C4.7555,5.6567 4.7945,5.6367 4.8185,5.6017 C4.8685,5.6397 4.9385,5.6437 4.9755,5.6447 L4.9915,5.6447 C5.0285,5.6437 5.0975,5.6397 5.1475,5.6017 C5.1715,5.6367 5.2105,5.6567 5.2525,5.6567 C5.3245,5.6567 5.3835,5.5997 5.3835,5.5277 C5.3835,5.4657 5.3395,5.4107 5.2785,5.3997 C5.3135,5.4117 5.3355,5.4447 5.3355,5.4817 C5.3355,5.5297 5.2965,5.5677 5.2495,5.5677 C5.2035,5.5677 5.1655,5.5317 5.1625,5.4857 C5.1485,5.5137 5.0925,5.5977 4.9835,5.6017 C4.8745,5.5977 4.8185,5.5137 4.8045,5.4857 C4.8015,5.5317 4.7635,5.5677 4.7175,5.5677 C4.6695,5.5677 4.6315,5.5297 4.6315,5.4817 C4.6315,5.4447 4.6535,5.4117 4.6885,5.3997" id="Fill-113" fill="#85340A"></path>
                                <path d="M4.8291,5.7835 C4.6851,5.7835 4.6281,5.9135 4.4981,6.0005 C4.5701,5.9715 4.6271,5.9145 4.7281,5.8575 C4.8291,5.7995 4.9151,5.8695 4.9731,5.8695 L4.9751,5.8695 C5.0321,5.8695 5.1181,5.7995 5.2191,5.8575 C5.3201,5.9145 5.3791,5.9715 5.4511,6.0005 C5.3211,5.9135 5.2621,5.7835 5.1181,5.7835 C5.0891,5.7835 5.0321,5.7995 4.9751,5.8275 L4.9731,5.8275 C4.9151,5.7995 4.8581,5.7835 4.8291,5.7835" id="Fill-115" fill="#85340A"></path>
                                <path d="M4.7808,5.9539 C4.7238,5.9559 4.6488,5.9679 4.5408,5.9999 C4.7998,5.9429 4.8568,6.0299 4.9728,6.0299 L4.9748,6.0299 C5.0898,6.0299 5.1468,5.9429 5.4068,5.9999 C5.1178,5.9139 5.0608,5.9709 4.9748,5.9709 L4.9728,5.9709 C4.9188,5.9709 4.8758,5.9499 4.7808,5.9539" id="Fill-117" fill="#85340A"></path>
                                <path d="M4.5532,5.9983 C4.5362,5.9983 4.5182,5.9983 4.4982,6.0003 C4.8012,6.0293 4.6562,6.2033 4.9722,6.2033 L4.9752,6.2033 C5.2922,6.2033 5.1482,6.0293 5.4512,6.0003 C5.1342,5.9723 5.2342,6.1583 4.9752,6.1583 L4.9722,6.1583 C4.7292,6.1583 4.8042,5.9953 4.5532,5.9983" id="Fill-119" fill="#85340A"></path>
                                <path d="M5.2344,6.4666 C5.2344,6.3236 5.1184,6.2076 4.9754,6.2076 C4.8324,6.2076 4.7154,6.3236 4.7154,6.4666 C4.7444,6.3466 4.8514,6.2616 4.9754,6.2616 C5.0984,6.2616 5.2064,6.3466 5.2344,6.4666" id="Fill-121" fill="#85340A"></path>
                                <path d="M3.8101,4.7376 C4.1421,4.4496 4.5601,4.4056 4.7901,4.6226 C4.8471,4.6976 4.8831,4.7786 4.8971,4.8626 C4.9271,5.0276 4.8751,5.2046 4.7471,5.3856 C4.7611,5.3856 4.7901,5.4006 4.8051,5.4146 C4.9191,5.1956 4.9591,4.9716 4.9221,4.7576 C4.9121,4.7016 4.8961,4.6466 4.8761,4.5926 C4.5601,4.3336 4.1271,4.3046 3.8101,4.7376 Z" id="Fill-123" fill="#85340A"></path>
                                <path d="M4.3286,4.6512 C4.5156,4.6512 4.5596,4.6942 4.6456,4.7662 C4.7326,4.8382 4.7756,4.8242 4.7896,4.8382 C4.8046,4.8532 4.7896,4.8962 4.7616,4.8812 C4.7326,4.8672 4.6746,4.8382 4.5886,4.7662 C4.5016,4.6942 4.4156,4.6942 4.3286,4.6942 C4.0696,4.6942 3.9256,4.9102 3.8966,4.8962 C3.8676,4.8812 4.0406,4.6512 4.3286,4.6512 Z" id="Fill-125" fill="#85340A"></path>
                                <path d="M4.3179,4.7698 C4.4429,4.7678 4.5589,4.8248 4.5749,4.8808 C4.4309,5.0398 4.2009,5.0258 4.0569,4.9108 C4.1199,4.8098 4.2209,4.7708 4.3179,4.7698 M4.3199,4.7398 C4.1919,4.7398 4.0699,4.7958 3.9979,4.9108 C4.1419,5.0408 4.4599,5.0548 4.6759,4.8958 C4.5829,4.7948 4.4479,4.7398 4.3199,4.7398" id="Fill-127" fill="#843511"></path>
                                <path d="M4.3369,4.7513 C4.4089,4.7513 4.4669,4.8093 4.4669,4.8813 C4.4669,4.9533 4.4089,5.0103 4.3369,5.0103 C4.2649,5.0103 4.2069,4.9533 4.2069,4.8813 C4.2069,4.8093 4.2649,4.7513 4.3369,4.7513" id="Fill-129" fill="#85340A"></path>
                                <path d="M3.9829,4.968 C4.2279,5.155 4.4729,5.141 4.6169,5.054 C4.7609,4.968 4.7609,4.939 4.7329,4.939 C4.7039,4.939 4.6749,4.968 4.5599,5.026 C4.4439,5.083 4.2709,5.083 3.9829,4.968" id="Fill-131" fill="#85340A"></path>
                            </g>
                        </g>
                    </g>
                </g>
            </g>
        </g>
    </g>
</svg>